<svg id="visual" viewBox="0 0 900 600" width="900" height="600" xmlns="http://www.w3.org/2000/svg" xmlns:xlink="http://www.w3.org/1999/xlink" version="1.1"><path d="M0 61L13.7 75C27.3 89 54.7 117 82 118C109.3 119 136.7 93 163.8 86C191 79 218 91 245.2 103C272.3 115 299.7 127 327 125C354.3 123 381.7 107 409 101C436.3 95 463.7 99 491 96C518.3 93 545.7 83 573 88C600.3 93 627.7 113 654.8 116C682 119 709 105 736.2 97C763.3 89 790.7 87 818 83C845.3 79 872.7 73 886.3 70L900 67L900 0L886.3 0C872.7 0 845.3 0 818 0C790.7 0 763.3 0 736.2 0C709 0 682 0 654.8 0C627.7 0 600.3 0 573 0C545.7 0 518.3 0 491 0C463.7 0 436.3 0 409 0C381.7 0 354.3 0 327 0C299.7 0 272.3 0 245.2 0C218 0 191 0 163.8 0C136.7 0 109.3 0 82 0C54.7 0 27.3 0 13.7 0L0 0Z" fill="#6600ff"></path><path d="M0 145L13.7 158C27.3 171 54.7 197 82 194C109.3 191 136.7 159 163.8 155C191 151 218 175 245.2 186C272.3 197 299.7 195 327 198C354.3 201 381.7 209 409 213C436.3 217 463.7 217 491 209C518.3 201 545.7 185 573 186C600.3 187 627.7 205 654.8 207C682 209 709 195 736.2 192C763.3 189 790.7 197 818 185C845.3 173 872.7 141 886.3 125L900 109L900 65L886.3 68C872.7 71 845.3 77 818 81C790.7 85 763.3 87 736.2 95C709 103 682 117 654.8 114C627.7 111 600.3 91 573 86C545.7 81 518.3 91 491 94C463.7 97 436.3 93 409 99C381.7 105 354.3 121 327 123C299.7 125 272.3 113 245.2 101C218 89 191 77 163.8 84C136.7 91 109.3 117 82 116C54.7 115 27.3 87 13.7 73L0 59Z" fill="#5947f7"></path><path d="M0 187L13.7 209C27.3 231 54.7 275 82 281C109.3 287 136.7 255 163.8 252C191 249 218 275 245.2 279C272.3 283 299.7 265 327 261C354.3 257 381.7 267 409 276C436.3 285 463.7 293 491 289C518.3 285 545.7 269 573 267C600.3 265 627.7 277 654.8 275C682 273 709 257 736.2 259C763.3 261 790.7 281 818 275C845.3 269 872.7 237 886.3 221L900 205L900 107L886.3 123C872.7 139 845.3 171 818 183C790.7 195 763.3 187 736.2 190C709 193 682 207 654.8 205C627.7 203 600.3 185 573 184C545.7 183 518.3 199 491 207C463.7 215 436.3 215 409 211C381.7 207 354.3 199 327 196C299.7 193 272.3 195 245.2 184C218 173 191 149 163.8 153C136.7 157 109.3 189 82 192C54.7 195 27.3 169 13.7 156L0 143Z" fill="#5959ee"></path><path d="M0 319L13.7 332C27.3 345 54.7 371 82 383C109.3 395 136.7 393 163.8 400C191 407 218 423 245.2 420C272.3 417 299.7 395 327 390C354.3 385 381.7 397 409 400C436.3 403 463.7 397 491 407C518.3 417 545.7 443 573 453C600.3 463 627.7 457 654.8 458C682 459 709 467 736.2 477C763.3 487 790.7 499 818 492C845.3 485 872.7 459 886.3 446L900 433L900 203L886.3 219C872.7 235 845.3 267 818 273C790.7 279 763.3 259 736.2 257C709 255 682 271 654.8 273C627.7 275 600.3 263 573 265C545.7 267 518.3 283 491 287C463.7 291 436.3 283 409 274C381.7 265 354.3 255 327 259C299.7 263 272.3 281 245.2 277C218 273 191 247 163.8 250C136.7 253 109.3 285 82 279C54.7 273 27.3 229 13.7 207L0 185Z" fill="#5947f7"></path><path d="M0 601L13.7 601C27.3 601 54.7 601 82 601C109.3 601 136.7 601 163.8 601C191 601 218 601 245.2 601C272.3 601 299.7 601 327 601C354.3 601 381.7 601 409 601C436.3 601 463.7 601 491 601C518.3 601 545.7 601 573 601C600.3 601 627.7 601 654.8 601C682 601 709 601 736.2 601C763.3 601 790.7 601 818 601C845.3 601 872.7 601 886.3 601L900 601L900 431L886.3 444C872.7 457 845.3 483 818 490C790.7 497 763.3 485 736.2 475C709 465 682 457 654.8 456C627.7 455 600.3 461 573 451C545.7 441 518.3 415 491 405C463.7 395 436.3 401 409 398C381.7 395 354.3 383 327 388C299.7 393 272.3 415 245.2 418C218 421 191 405 163.8 398C136.7 391 109.3 393 82 381C54.7 369 27.3 343 13.7 330L0 317Z" fill="#6600ff"></path></svg>