<svg id="visual" viewBox="0 0 960 540" width="960" height="540" xmlns="http://www.w3.org/2000/svg" xmlns:xlink="http://www.w3.org/1999/xlink" version="1.1"><rect x="0" y="0" width="960" height="540" fill="#6600FF"></rect><path d="M0 298L16 290.8C32 283.7 64 269.3 96 272C128 274.7 160 294.3 192 289.8C224 285.3 256 256.7 288 250.7C320 244.7 352 261.3 384 278.7C416 296 448 314 480 315.7C512 317.3 544 302.7 576 297.5C608 292.3 640 296.7 672 292.2C704 287.7 736 274.3 768 282.8C800 291.3 832 321.7 864 321.8C896 322 928 292 944 277L960 262L960 541L944 541C928 541 896 541 864 541C832 541 800 541 768 541C736 541 704 541 672 541C640 541 608 541 576 541C544 541 512 541 480 541C448 541 416 541 384 541C352 541 320 541 288 541C256 541 224 541 192 541C160 541 128 541 96 541C64 541 32 541 16 541L0 541Z" fill="#0066ff"></path><path d="M0 309L16 312.5C32 316 64 323 96 329C128 335 160 340 192 351.8C224 363.7 256 382.3 288 391.5C320 400.7 352 400.3 384 390.2C416 380 448 360 480 344.2C512 328.3 544 316.7 576 316.2C608 315.7 640 326.3 672 340.8C704 355.3 736 373.7 768 370.7C800 367.7 832 343.3 864 338.8C896 334.3 928 349.7 944 357.3L960 365L960 541L944 541C928 541 896 541 864 541C832 541 800 541 768 541C736 541 704 541 672 541C640 541 608 541 576 541C544 541 512 541 480 541C448 541 416 541 384 541C352 541 320 541 288 541C256 541 224 541 192 541C160 541 128 541 96 541C64 541 32 541 16 541L0 541Z" fill="#0080ff"></path><path d="M0 453L16 451C32 449 64 445 96 434.5C128 424 160 407 192 404.8C224 402.7 256 415.3 288 422.8C320 430.3 352 432.7 384 426C416 419.3 448 403.7 480 406C512 408.3 544 428.7 576 435.5C608 442.3 640 435.7 672 423.2C704 410.7 736 392.3 768 389.2C800 386 832 398 864 396.5C896 395 928 380 944 372.5L960 365L960 541L944 541C928 541 896 541 864 541C832 541 800 541 768 541C736 541 704 541 672 541C640 541 608 541 576 541C544 541 512 541 480 541C448 541 416 541 384 541C352 541 320 541 288 541C256 541 224 541 192 541C160 541 128 541 96 541C64 541 32 541 16 541L0 541Z" fill="#1e97fd"></path><path d="M0 489L16 485.8C32 482.7 64 476.3 96 466.7C128 457 160 444 192 447.3C224 450.7 256 470.3 288 478.3C320 486.3 352 482.7 384 472.5C416 462.3 448 445.7 480 442.2C512 438.7 544 448.3 576 455C608 461.7 640 465.3 672 460.7C704 456 736 443 768 447.8C800 452.7 832 475.3 864 483.8C896 492.3 928 486.7 944 483.8L960 481L960 541L944 541C928 541 896 541 864 541C832 541 800 541 768 541C736 541 704 541 672 541C640 541 608 541 576 541C544 541 512 541 480 541C448 541 416 541 384 541C352 541 320 541 288 541C256 541 224 541 192 541C160 541 128 541 96 541C64 541 32 541 16 541L0 541Z" fill="#4facf7"></path></svg>