<svg id="visual" viewBox="0 0 960 540" width="960" height="540" xmlns="http://www.w3.org/2000/svg" xmlns:xlink="http://www.w3.org/1999/xlink" version="1.1"><rect x="0" y="0" width="960" height="540" fill="#6600FF"></rect><path d="M0 311L22.8 296.5C45.7 282 91.3 253 137 232.8C182.7 212.7 228.3 201.3 274 212.8C319.7 224.3 365.3 258.7 411.2 277.7C457 296.7 503 300.3 548.8 283.8C594.7 267.3 640.3 230.7 686 216.8C731.7 203 777.3 212 823 210C868.7 208 914.3 195 937.2 188.5L960 182L960 0L937.2 0C914.3 0 868.7 0 823 0C777.3 0 731.7 0 686 0C640.3 0 594.7 0 548.8 0C503 0 457 0 411.2 0C365.3 0 319.7 0 274 0C228.3 0 182.7 0 137 0C91.3 0 45.7 0 22.8 0L0 0Z" fill="#0066ff"></path><path d="M0 231L22.8 229.7C45.7 228.3 91.3 225.7 137 222.5C182.7 219.3 228.3 215.7 274 209C319.7 202.3 365.3 192.7 411.2 193.5C457 194.3 503 205.7 548.8 215.7C594.7 225.7 640.3 234.3 686 235.3C731.7 236.3 777.3 229.7 823 221C868.7 212.3 914.3 201.7 937.2 196.3L960 191L960 0L937.2 0C914.3 0 868.7 0 823 0C777.3 0 731.7 0 686 0C640.3 0 594.7 0 548.8 0C503 0 457 0 411.2 0C365.3 0 319.7 0 274 0C228.3 0 182.7 0 137 0C91.3 0 45.7 0 22.8 0L0 0Z" fill="#0080ff"></path><path d="M0 159L22.8 158.8C45.7 158.7 91.3 158.3 137 161.2C182.7 164 228.3 170 274 173.2C319.7 176.3 365.3 176.7 411.2 172.2C457 167.7 503 158.3 548.8 149C594.7 139.7 640.3 130.3 686 133.5C731.7 136.7 777.3 152.3 823 161.5C868.7 170.7 914.3 173.3 937.2 174.7L960 176L960 0L937.2 0C914.3 0 868.7 0 823 0C777.3 0 731.7 0 686 0C640.3 0 594.7 0 548.8 0C503 0 457 0 411.2 0C365.3 0 319.7 0 274 0C228.3 0 182.7 0 137 0C91.3 0 45.7 0 22.8 0L0 0Z" fill="#1e97fd"></path><path d="M0 55L22.8 57.7C45.7 60.3 91.3 65.7 137 71.7C182.7 77.7 228.3 84.3 274 90.8C319.7 97.3 365.3 103.7 411.2 104.3C457 105 503 100 548.8 89.7C594.7 79.3 640.3 63.7 686 57.5C731.7 51.3 777.3 54.7 823 64C868.7 73.3 914.3 88.7 937.2 96.3L960 104L960 0L937.2 0C914.3 0 868.7 0 823 0C777.3 0 731.7 0 686 0C640.3 0 594.7 0 548.8 0C503 0 457 0 411.2 0C365.3 0 319.7 0 274 0C228.3 0 182.7 0 137 0C91.3 0 45.7 0 22.8 0L0 0Z" fill="#4facf7"></path></svg>