<svg id="visual" viewBox="0 0 675 900" width="675" height="900" xmlns="http://www.w3.org/2000/svg" xmlns:xlink="http://www.w3.org/1999/xlink" version="1.1"><rect x="0" y="0" width="675" height="900" fill="#001122"></rect><path d="M305 900L314.2 878.5C323.3 857 341.7 814 341.8 771.2C342 728.3 324 685.7 310.2 642.8C296.3 600 286.7 557 297.8 514.2C309 471.3 341 428.7 348.5 385.8C356 343 339 300 339.7 257.2C340.3 214.3 358.7 171.7 372.2 128.8C385.7 86 394.3 43 398.7 21.5L403 0L675 0L675 21.5C675 43 675 86 675 128.8C675 171.7 675 214.3 675 257.2C675 300 675 343 675 385.8C675 428.7 675 471.3 675 514.2C675 557 675 600 675 642.8C675 685.7 675 728.3 675 771.2C675 814 675 857 675 878.5L675 900Z" fill="#001122"></path><path d="M370 900L379.2 878.5C388.3 857 406.7 814 401.2 771.2C395.7 728.3 366.3 685.7 362.5 642.8C358.7 600 380.3 557 378 514.2C375.7 471.3 349.3 428.7 347.8 385.8C346.3 343 369.7 300 370.7 257.2C371.7 214.3 350.3 171.7 339 128.8C327.7 86 326.3 43 325.7 21.5L325 0L675 0L675 21.5C675 43 675 86 675 128.8C675 171.7 675 214.3 675 257.2C675 300 675 343 675 385.8C675 428.7 675 471.3 675 514.2C675 557 675 600 675 642.8C675 685.7 675 728.3 675 771.2C675 814 675 857 675 878.5L675 900Z" fill="#0c1c37"></path><path d="M450 900L443.2 878.5C436.3 857 422.7 814 411.5 771.2C400.3 728.3 391.7 685.7 386.5 642.8C381.3 600 379.7 557 396.3 514.2C413 471.3 448 428.7 464.8 385.8C481.7 343 480.3 300 465.3 257.2C450.3 214.3 421.7 171.7 408.7 128.8C395.7 86 398.3 43 399.7 21.5L401 0L675 0L675 21.5C675 43 675 86 675 128.8C675 171.7 675 214.3 675 257.2C675 300 675 343 675 385.8C675 428.7 675 471.3 675 514.2C675 557 675 600 675 642.8C675 685.7 675 728.3 675 771.2C675 814 675 857 675 878.5L675 900Z" fill="#22244c"></path><path d="M484 900L483.2 878.5C482.3 857 480.7 814 476.2 771.2C471.7 728.3 464.3 685.7 458.7 642.8C453 600 449 557 453.2 514.2C457.3 471.3 469.7 428.7 467.3 385.8C465 343 448 300 442.5 257.2C437 214.3 443 171.7 452.7 128.8C462.3 86 475.7 43 482.3 21.5L489 0L675 0L675 21.5C675 43 675 86 675 128.8C675 171.7 675 214.3 675 257.2C675 300 675 343 675 385.8C675 428.7 675 471.3 675 514.2C675 557 675 600 675 642.8C675 685.7 675 728.3 675 771.2C675 814 675 857 675 878.5L675 900Z" fill="#3f295d"></path><path d="M495 900L497.2 878.5C499.3 857 503.7 814 511.8 771.2C520 728.3 532 685.7 533.7 642.8C535.3 600 526.7 557 519 514.2C511.3 471.3 504.7 428.7 508.5 385.8C512.3 343 526.7 300 530.8 257.2C535 214.3 529 171.7 523.3 128.8C517.7 86 512.3 43 509.7 21.5L507 0L675 0L675 21.5C675 43 675 86 675 128.8C675 171.7 675 214.3 675 257.2C675 300 675 343 675 385.8C675 428.7 675 471.3 675 514.2C675 557 675 600 675 642.8C675 685.7 675 728.3 675 771.2C675 814 675 857 675 878.5L675 900Z" fill="#602c69"></path><path d="M558 900L556 878.5C554 857 550 814 541.7 771.2C533.3 728.3 520.7 685.7 525 642.8C529.3 600 550.7 557 556.3 514.2C562 471.3 552 428.7 549.5 385.8C547 343 552 300 558.5 257.2C565 214.3 573 171.7 565.3 128.8C557.7 86 534.3 43 522.7 21.5L511 0L675 0L675 21.5C675 43 675 86 675 128.8C675 171.7 675 214.3 675 257.2C675 300 675 343 675 385.8C675 428.7 675 471.3 675 514.2C675 557 675 600 675 642.8C675 685.7 675 728.3 675 771.2C675 814 675 857 675 878.5L675 900Z" fill="#832a70"></path><path d="M595 900L588.2 878.5C581.3 857 567.7 814 563.2 771.2C558.7 728.3 563.3 685.7 568.5 642.8C573.7 600 579.3 557 577 514.2C574.7 471.3 564.3 428.7 562.3 385.8C560.3 343 566.7 300 572.7 257.2C578.7 214.3 584.3 171.7 584 128.8C583.7 86 577.3 43 574.2 21.5L571 0L675 0L675 21.5C675 43 675 86 675 128.8C675 171.7 675 214.3 675 257.2C675 300 675 343 675 385.8C675 428.7 675 471.3 675 514.2C675 557 675 600 675 642.8C675 685.7 675 728.3 675 771.2C675 814 675 857 675 878.5L675 900Z" fill="#a5266f"></path><path d="M607 900L614 878.5C621 857 635 814 634.7 771.2C634.3 728.3 619.7 685.7 612 642.8C604.3 600 603.7 557 609 514.2C614.3 471.3 625.7 428.7 632.5 385.8C639.3 343 641.7 300 639.3 257.2C637 214.3 630 171.7 629.2 128.8C628.3 86 633.7 43 636.3 21.5L639 0L675 0L675 21.5C675 43 675 86 675 128.8C675 171.7 675 214.3 675 257.2C675 300 675 343 675 385.8C675 428.7 675 471.3 675 514.2C675 557 675 600 675 642.8C675 685.7 675 728.3 675 771.2C675 814 675 857 675 878.5L675 900Z" fill="#c62368"></path></svg>