<svg id="visual" viewBox="0 0 900 600" width="900" height="600" xmlns="http://www.w3.org/2000/svg" xmlns:xlink="http://www.w3.org/1999/xlink" version="1.1"><rect x="0" y="0" width="900" height="600" fill="#001122"></rect><path d="M0 336L21.5 329.5C43 323 86 310 128.8 297.2C171.7 284.3 214.3 271.7 257.2 273C300 274.3 343 289.7 385.8 307.5C428.7 325.3 471.3 345.7 514.2 355.3C557 365 600 364 642.8 359.5C685.7 355 728.3 347 771.2 344C814 341 857 343 878.5 344L900 345L900 0L878.5 0C857 0 814 0 771.2 0C728.3 0 685.7 0 642.8 0C600 0 557 0 514.2 0C471.3 0 428.7 0 385.8 0C343 0 300 0 257.2 0C214.3 0 171.7 0 128.8 0C86 0 43 0 21.5 0L0 0Z" fill="#001b35"></path><path d="M0 308L21.5 314.7C43 321.3 86 334.7 128.8 327.5C171.7 320.3 214.3 292.7 257.2 280.2C300 267.7 343 270.3 385.8 282.8C428.7 295.3 471.3 317.7 514.2 314.2C557 310.7 600 281.3 642.8 268C685.7 254.7 728.3 257.3 771.2 269.7C814 282 857 304 878.5 315L900 326L900 0L878.5 0C857 0 814 0 771.2 0C728.3 0 685.7 0 642.8 0C600 0 557 0 514.2 0C471.3 0 428.7 0 385.8 0C343 0 300 0 257.2 0C214.3 0 171.7 0 128.8 0C86 0 43 0 21.5 0L0 0Z" fill="#17244b"></path><path d="M0 256L21.5 245.2C43 234.3 86 212.7 128.8 209.3C171.7 206 214.3 221 257.2 238.2C300 255.3 343 274.7 385.8 278.7C428.7 282.7 471.3 271.3 514.2 256.7C557 242 600 224 642.8 218.7C685.7 213.3 728.3 220.7 771.2 220.2C814 219.7 857 211.3 878.5 207.2L900 203L900 0L878.5 0C857 0 814 0 771.2 0C728.3 0 685.7 0 642.8 0C600 0 557 0 514.2 0C471.3 0 428.7 0 385.8 0C343 0 300 0 257.2 0C214.3 0 171.7 0 128.8 0C86 0 43 0 21.5 0L0 0Z" fill="#362a5e"></path><path d="M0 208L21.5 205.5C43 203 86 198 128.8 199.8C171.7 201.7 214.3 210.3 257.2 207.8C300 205.3 343 191.7 385.8 183.5C428.7 175.3 471.3 172.7 514.2 178.7C557 184.7 600 199.3 642.8 211.3C685.7 223.3 728.3 232.7 771.2 228.5C814 224.3 857 206.7 878.5 197.8L900 189L900 0L878.5 0C857 0 814 0 771.2 0C728.3 0 685.7 0 642.8 0C600 0 557 0 514.2 0C471.3 0 428.7 0 385.8 0C343 0 300 0 257.2 0C214.3 0 171.7 0 128.8 0C86 0 43 0 21.5 0L0 0Z" fill="#592d6b"></path><path d="M0 141L21.5 148.3C43 155.7 86 170.3 128.8 168C171.7 165.7 214.3 146.3 257.2 141.5C300 136.7 343 146.3 385.8 144.7C428.7 143 471.3 130 514.2 123.2C557 116.3 600 115.7 642.8 122.8C685.7 130 728.3 145 771.2 156.3C814 167.7 857 175.3 878.5 179.2L900 183L900 0L878.5 0C857 0 814 0 771.2 0C728.3 0 685.7 0 642.8 0C600 0 557 0 514.2 0C471.3 0 428.7 0 385.8 0C343 0 300 0 257.2 0C214.3 0 171.7 0 128.8 0C86 0 43 0 21.5 0L0 0Z" fill="#7e2c72"></path><path d="M0 94L21.5 93.8C43 93.7 86 93.3 128.8 94.5C171.7 95.7 214.3 98.3 257.2 100.2C300 102 343 103 385.8 102.5C428.7 102 471.3 100 514.2 95.2C557 90.3 600 82.7 642.8 87C685.7 91.3 728.3 107.7 771.2 116C814 124.3 857 124.7 878.5 124.8L900 125L900 0L878.5 0C857 0 814 0 771.2 0C728.3 0 685.7 0 642.8 0C600 0 557 0 514.2 0C471.3 0 428.7 0 385.8 0C343 0 300 0 257.2 0C214.3 0 171.7 0 128.8 0C86 0 43 0 21.5 0L0 0Z" fill="#a42771"></path><path d="M0 65L21.5 67.7C43 70.3 86 75.7 128.8 76.7C171.7 77.7 214.3 74.3 257.2 73.3C300 72.3 343 73.7 385.8 66.7C428.7 59.7 471.3 44.3 514.2 41.3C557 38.3 600 47.7 642.8 51.2C685.7 54.7 728.3 52.3 771.2 49.2C814 46 857 42 878.5 40L900 38L900 0L878.5 0C857 0 814 0 771.2 0C728.3 0 685.7 0 642.8 0C600 0 557 0 514.2 0C471.3 0 428.7 0 385.8 0C343 0 300 0 257.2 0C214.3 0 171.7 0 128.8 0C86 0 43 0 21.5 0L0 0Z" fill="#c62368"></path></svg>