<svg id="visual" viewBox="0 0 900 600" width="900" height="600" xmlns="http://www.w3.org/2000/svg" xmlns:xlink="http://www.w3.org/1999/xlink" version="1.1"><rect x="0" y="0" width="900" height="600" fill="#001122"></rect><path d="M454 600L464.8 585.7C475.7 571.3 497.3 542.7 511.5 514.2C525.7 485.7 532.3 457.3 538.5 428.8C544.7 400.3 550.3 371.7 534.8 343C519.3 314.3 482.7 285.7 454.7 257C426.7 228.3 407.3 199.7 400.2 171.2C393 142.7 398 114.3 402.7 85.8C407.3 57.3 411.7 28.7 413.8 14.3L416 0L900 0L900 14.3C900 28.7 900 57.3 900 85.8C900 114.3 900 142.7 900 171.2C900 199.7 900 228.3 900 257C900 285.7 900 314.3 900 343C900 371.7 900 400.3 900 428.8C900 457.3 900 485.7 900 514.2C900 542.7 900 571.3 900 585.7L900 600Z" fill="#0066ff"></path><path d="M549 600L546.2 585.7C543.3 571.3 537.7 542.7 540.7 514.2C543.7 485.7 555.3 457.3 544 428.8C532.7 400.3 498.3 371.7 485.7 343C473 314.3 482 285.7 471.8 257C461.7 228.3 432.3 199.7 449 171.2C465.7 142.7 528.3 114.3 531.8 85.8C535.3 57.3 479.7 28.7 451.8 14.3L424 0L900 0L900 14.3C900 28.7 900 57.3 900 85.8C900 114.3 900 142.7 900 171.2C900 199.7 900 228.3 900 257C900 285.7 900 314.3 900 343C900 371.7 900 400.3 900 428.8C900 457.3 900 485.7 900 514.2C900 542.7 900 571.3 900 585.7L900 600Z" fill="#0070ff"></path><path d="M628 600L600.5 585.7C573 571.3 518 542.7 523 514.2C528 485.7 593 457.3 605.5 428.8C618 400.3 578 371.7 548.8 343C519.7 314.3 501.3 285.7 507.8 257C514.3 228.3 545.7 199.7 543.7 171.2C541.7 142.7 506.3 114.3 513.3 85.8C520.3 57.3 569.7 28.7 594.3 14.3L619 0L900 0L900 14.3C900 28.7 900 57.3 900 85.8C900 114.3 900 142.7 900 171.2C900 199.7 900 228.3 900 257C900 285.7 900 314.3 900 343C900 371.7 900 400.3 900 428.8C900 457.3 900 485.7 900 514.2C900 542.7 900 571.3 900 585.7L900 600Z" fill="#007aff"></path><path d="M601 600L597.8 585.7C594.7 571.3 588.3 542.7 572.2 514.2C556 485.7 530 457.3 530.7 428.8C531.3 400.3 558.7 371.7 579.8 343C601 314.3 616 285.7 602.2 257C588.3 228.3 545.7 199.7 549.3 171.2C553 142.7 603 114.3 630.2 85.8C657.3 57.3 661.7 28.7 663.8 14.3L666 0L900 0L900 14.3C900 28.7 900 57.3 900 85.8C900 114.3 900 142.7 900 171.2C900 199.7 900 228.3 900 257C900 285.7 900 314.3 900 343C900 371.7 900 400.3 900 428.8C900 457.3 900 485.7 900 514.2C900 542.7 900 571.3 900 585.7L900 600Z" fill="#0083ff"></path><path d="M628 600L630.3 585.7C632.7 571.3 637.3 542.7 635.8 514.2C634.3 485.7 626.7 457.3 640.8 428.8C655 400.3 691 371.7 706.3 343C721.7 314.3 716.3 285.7 690.8 257C665.3 228.3 619.7 199.7 611 171.2C602.3 142.7 630.7 114.3 633.2 85.8C635.7 57.3 612.3 28.7 600.7 14.3L589 0L900 0L900 14.3C900 28.7 900 57.3 900 85.8C900 114.3 900 142.7 900 171.2C900 199.7 900 228.3 900 257C900 285.7 900 314.3 900 343C900 371.7 900 400.3 900 428.8C900 457.3 900 485.7 900 514.2C900 542.7 900 571.3 900 585.7L900 600Z" fill="#008cff"></path><path d="M731 600L727.5 585.7C724 571.3 717 542.7 717.7 514.2C718.3 485.7 726.7 457.3 726.8 428.8C727 400.3 719 371.7 725 343C731 314.3 751 285.7 756.8 257C762.7 228.3 754.3 199.7 754.7 171.2C755 142.7 764 114.3 748.3 85.8C732.7 57.3 692.3 28.7 672.2 14.3L652 0L900 0L900 14.3C900 28.7 900 57.3 900 85.8C900 114.3 900 142.7 900 171.2C900 199.7 900 228.3 900 257C900 285.7 900 314.3 900 343C900 371.7 900 400.3 900 428.8C900 457.3 900 485.7 900 514.2C900 542.7 900 571.3 900 585.7L900 600Z" fill="#1795fe"></path><path d="M713 600L716 585.7C719 571.3 725 542.7 736.8 514.2C748.7 485.7 766.3 457.3 763.5 428.8C760.7 400.3 737.3 371.7 726.2 343C715 314.3 716 285.7 731.2 257C746.3 228.3 775.7 199.7 775.8 171.2C776 142.7 747 114.3 734.3 85.8C721.7 57.3 725.3 28.7 727.2 14.3L729 0L900 0L900 14.3C900 28.7 900 57.3 900 85.8C900 114.3 900 142.7 900 171.2C900 199.7 900 228.3 900 257C900 285.7 900 314.3 900 343C900 371.7 900 400.3 900 428.8C900 457.3 900 485.7 900 514.2C900 542.7 900 571.3 900 585.7L900 600Z" fill="#2b9dfc"></path><path d="M805 600L798 585.7C791 571.3 777 542.7 775 514.2C773 485.7 783 457.3 792 428.8C801 400.3 809 371.7 806 343C803 314.3 789 285.7 776.5 257C764 228.3 753 199.7 757.2 171.2C761.3 142.7 780.7 114.3 790.7 85.8C800.7 57.3 801.3 28.7 801.7 14.3L802 0L900 0L900 14.3C900 28.7 900 57.3 900 85.8C900 114.3 900 142.7 900 171.2C900 199.7 900 228.3 900 257C900 285.7 900 314.3 900 343C900 371.7 900 400.3 900 428.8C900 457.3 900 485.7 900 514.2C900 542.7 900 571.3 900 585.7L900 600Z" fill="#3da4fa"></path><path d="M813 600L810.2 585.7C807.3 571.3 801.7 542.7 804.3 514.2C807 485.7 818 457.3 819.7 428.8C821.3 400.3 813.7 371.7 808.5 343C803.3 314.3 800.7 285.7 811 257C821.3 228.3 844.7 199.7 846 171.2C847.3 142.7 826.7 114.3 817.3 85.8C808 57.3 810 28.7 811 14.3L812 0L900 0L900 14.3C900 28.7 900 57.3 900 85.8C900 114.3 900 142.7 900 171.2C900 199.7 900 228.3 900 257C900 285.7 900 314.3 900 343C900 371.7 900 400.3 900 428.8C900 457.3 900 485.7 900 514.2C900 542.7 900 571.3 900 585.7L900 600Z" fill="#4facf7"></path></svg>