<svg id="visual" viewBox="0 0 960 540" width="960" height="540" xmlns="http://www.w3.org/2000/svg" xmlns:xlink="http://www.w3.org/1999/xlink" version="1.1"><rect x="0" y="0" width="960" height="540" fill="#121212"></rect><path d="M469 540L482 527.2C495 514.3 521 488.7 507.5 463C494 437.3 441 411.7 397.3 386C353.7 360.3 319.3 334.7 324.2 308.8C329 283 373 257 401.2 231.2C429.3 205.3 441.7 179.7 438.7 154C435.7 128.3 417.3 102.7 399.3 77C381.3 51.3 363.7 25.7 354.8 12.8L346 0L960 0L960 12.8C960 25.7 960 51.3 960 77C960 102.7 960 128.3 960 154C960 179.7 960 205.3 960 231.2C960 257 960 283 960 308.8C960 334.7 960 360.3 960 386C960 411.7 960 437.3 960 463C960 488.7 960 514.3 960 527.2L960 540Z" fill="#a76bcf"></path><path d="M467 540L488.8 527.2C510.7 514.3 554.3 488.7 584.2 463C614 437.3 630 411.7 631.5 386C633 360.3 620 334.7 586.2 308.8C552.3 283 497.7 257 482.3 231.2C467 205.3 491 179.7 504.2 154C517.3 128.3 519.7 102.7 510.8 77C502 51.3 482 25.7 472 12.8L462 0L960 0L960 12.8C960 25.7 960 51.3 960 77C960 102.7 960 128.3 960 154C960 179.7 960 205.3 960 231.2C960 257 960 283 960 308.8C960 334.7 960 360.3 960 386C960 411.7 960 437.3 960 463C960 488.7 960 514.3 960 527.2L960 540Z" fill="#9e57da"></path><path d="M553 540L573.5 527.2C594 514.3 635 488.7 651.8 463C668.7 437.3 661.3 411.7 639.7 386C618 360.3 582 334.7 564 308.8C546 283 546 257 546.5 231.2C547 205.3 548 179.7 569.8 154C591.7 128.3 634.3 102.7 646.7 77C659 51.3 641 25.7 632 12.8L623 0L960 0L960 12.8C960 25.7 960 51.3 960 77C960 102.7 960 128.3 960 154C960 179.7 960 205.3 960 231.2C960 257 960 283 960 308.8C960 334.7 960 360.3 960 386C960 411.7 960 437.3 960 463C960 488.7 960 514.3 960 527.2L960 540Z" fill="#9242e6"></path><path d="M755 540L760.7 527.2C766.3 514.3 777.7 488.7 784.2 463C790.7 437.3 792.3 411.7 776.7 386C761 360.3 728 334.7 722.8 308.8C717.7 283 740.3 257 729.7 231.2C719 205.3 675 179.7 665.8 154C656.7 128.3 682.3 102.7 683 77C683.7 51.3 659.3 25.7 647.2 12.8L635 0L960 0L960 12.8C960 25.7 960 51.3 960 77C960 102.7 960 128.3 960 154C960 179.7 960 205.3 960 231.2C960 257 960 283 960 308.8C960 334.7 960 360.3 960 386C960 411.7 960 437.3 960 463C960 488.7 960 514.3 960 527.2L960 540Z" fill="#802af2"></path><path d="M884 540L878 527.2C872 514.3 860 488.7 842.5 463C825 437.3 802 411.7 808.7 386C815.3 360.3 851.7 334.7 863 308.8C874.3 283 860.7 257 853.5 231.2C846.3 205.3 845.7 179.7 830.8 154C816 128.3 787 102.7 791 77C795 51.3 832 25.7 850.5 12.8L869 0L960 0L960 12.8C960 25.7 960 51.3 960 77C960 102.7 960 128.3 960 154C960 179.7 960 205.3 960 231.2C960 257 960 283 960 308.8C960 334.7 960 360.3 960 386C960 411.7 960 437.3 960 463C960 488.7 960 514.3 960 527.2L960 540Z" fill="#6600ff"></path></svg>