<svg id="visual" viewBox="0 0 960 540" width="960" height="540" xmlns="http://www.w3.org/2000/svg" xmlns:xlink="http://www.w3.org/1999/xlink" version="1.1"><rect x="0" y="0" width="960" height="540" fill="#121212"></rect><path d="M0 279L22.8 264.5C45.7 250 91.3 221 137 191.8C182.7 162.7 228.3 133.3 274 136.8C319.7 140.3 365.3 176.7 411.2 207.3C457 238 503 263 548.8 258.7C594.7 254.3 640.3 220.7 686 213.3C731.7 206 777.3 225 823 216.8C868.7 208.7 914.3 173.3 937.2 155.7L960 138L960 541L937.2 541C914.3 541 868.7 541 823 541C777.3 541 731.7 541 686 541C640.3 541 594.7 541 548.8 541C503 541 457 541 411.2 541C365.3 541 319.7 541 274 541C228.3 541 182.7 541 137 541C91.3 541 45.7 541 22.8 541L0 541Z" fill="#101010"></path><path d="M0 276L22.8 265C45.7 254 91.3 232 137 237.2C182.7 242.3 228.3 274.7 274 287.7C319.7 300.7 365.3 294.3 411.2 288.2C457 282 503 276 548.8 283.2C594.7 290.3 640.3 310.7 686 312.5C731.7 314.3 777.3 297.7 823 297.8C868.7 298 914.3 315 937.2 323.5L960 332L960 541L937.2 541C914.3 541 868.7 541 823 541C777.3 541 731.7 541 686 541C640.3 541 594.7 541 548.8 541C503 541 457 541 411.2 541C365.3 541 319.7 541 274 541C228.3 541 182.7 541 137 541C91.3 541 45.7 541 22.8 541L0 541Z" fill="#141414"></path><path d="M0 279L22.8 260.2C45.7 241.3 91.3 203.7 137 184.8C182.7 166 228.3 166 274 171.7C319.7 177.3 365.3 188.7 411.2 209.8C457 231 503 262 548.8 282.3C594.7 302.7 640.3 312.3 686 294.5C731.7 276.7 777.3 231.3 823 221.2C868.7 211 914.3 236 937.2 248.5L960 261L960 541L937.2 541C914.3 541 868.7 541 823 541C777.3 541 731.7 541 686 541C640.3 541 594.7 541 548.8 541C503 541 457 541 411.2 541C365.3 541 319.7 541 274 541C228.3 541 182.7 541 137 541C91.3 541 45.7 541 22.8 541L0 541Z" fill="#181818"></path><path d="M0 327L22.8 332.7C45.7 338.3 91.3 349.7 137 336C182.7 322.3 228.3 283.7 274 272C319.7 260.3 365.3 275.7 411.2 275.8C457 276 503 261 548.8 267.5C594.7 274 640.3 302 686 311.8C731.7 321.7 777.3 313.3 823 305.2C868.7 297 914.3 289 937.2 285L960 281L960 541L937.2 541C914.3 541 868.7 541 823 541C777.3 541 731.7 541 686 541C640.3 541 594.7 541 548.8 541C503 541 457 541 411.2 541C365.3 541 319.7 541 274 541C228.3 541 182.7 541 137 541C91.3 541 45.7 541 22.8 541L0 541Z" fill="#1b1b1b"></path><path d="M0 380L22.8 358.7C45.7 337.3 91.3 294.7 137 283.5C182.7 272.3 228.3 292.7 274 318.5C319.7 344.3 365.3 375.7 411.2 370.8C457 366 503 325 548.8 317.5C594.7 310 640.3 336 686 331.8C731.7 327.7 777.3 293.3 823 299.2C868.7 305 914.3 351 937.2 374L960 397L960 541L937.2 541C914.3 541 868.7 541 823 541C777.3 541 731.7 541 686 541C640.3 541 594.7 541 548.8 541C503 541 457 541 411.2 541C365.3 541 319.7 541 274 541C228.3 541 182.7 541 137 541C91.3 541 45.7 541 22.8 541L0 541Z" fill="#1e1e1e"></path><path d="M0 395L22.8 379.2C45.7 363.3 91.3 331.7 137 317.8C182.7 304 228.3 308 274 328.7C319.7 349.3 365.3 386.7 411.2 406.7C457 426.7 503 429.3 548.8 412.2C594.7 395 640.3 358 686 335.8C731.7 313.7 777.3 306.3 823 321.5C868.7 336.7 914.3 374.3 937.2 393.2L960 412L960 541L937.2 541C914.3 541 868.7 541 823 541C777.3 541 731.7 541 686 541C640.3 541 594.7 541 548.8 541C503 541 457 541 411.2 541C365.3 541 319.7 541 274 541C228.3 541 182.7 541 137 541C91.3 541 45.7 541 22.8 541L0 541Z" fill="#222222"></path><path d="M0 403L22.8 393.2C45.7 383.3 91.3 363.7 137 361.8C182.7 360 228.3 376 274 381.2C319.7 386.3 365.3 380.7 411.2 387.3C457 394 503 413 548.8 407C594.7 401 640.3 370 686 364.7C731.7 359.3 777.3 379.7 823 389.2C868.7 398.7 914.3 397.3 937.2 396.7L960 396L960 541L937.2 541C914.3 541 868.7 541 823 541C777.3 541 731.7 541 686 541C640.3 541 594.7 541 548.8 541C503 541 457 541 411.2 541C365.3 541 319.7 541 274 541C228.3 541 182.7 541 137 541C91.3 541 45.7 541 22.8 541L0 541Z" fill="#252525"></path><path d="M0 413L22.8 416.3C45.7 419.7 91.3 426.3 137 420.5C182.7 414.7 228.3 396.3 274 402C319.7 407.7 365.3 437.3 411.2 446C457 454.7 503 442.3 548.8 429C594.7 415.7 640.3 401.3 686 407.8C731.7 414.3 777.3 441.7 823 450.2C868.7 458.7 914.3 448.3 937.2 443.2L960 438L960 541L937.2 541C914.3 541 868.7 541 823 541C777.3 541 731.7 541 686 541C640.3 541 594.7 541 548.8 541C503 541 457 541 411.2 541C365.3 541 319.7 541 274 541C228.3 541 182.7 541 137 541C91.3 541 45.7 541 22.8 541L0 541Z" fill="#292929"></path><path d="M0 452L22.8 453.8C45.7 455.7 91.3 459.3 137 455.5C182.7 451.7 228.3 440.3 274 446C319.7 451.7 365.3 474.3 411.2 479.2C457 484 503 471 548.8 466.2C594.7 461.3 640.3 464.7 686 467.8C731.7 471 777.3 474 823 474.8C868.7 475.7 914.3 474.3 937.2 473.7L960 473L960 541L937.2 541C914.3 541 868.7 541 823 541C777.3 541 731.7 541 686 541C640.3 541 594.7 541 548.8 541C503 541 457 541 411.2 541C365.3 541 319.7 541 274 541C228.3 541 182.7 541 137 541C91.3 541 45.7 541 22.8 541L0 541Z" fill="#2c2c2c"></path><path d="M0 497L22.8 491.3C45.7 485.7 91.3 474.3 137 475.7C182.7 477 228.3 491 274 496C319.7 501 365.3 497 411.2 494.5C457 492 503 491 548.8 485.7C594.7 480.3 640.3 470.7 686 473C731.7 475.3 777.3 489.7 823 494.2C868.7 498.7 914.3 493.3 937.2 490.7L960 488L960 541L937.2 541C914.3 541 868.7 541 823 541C777.3 541 731.7 541 686 541C640.3 541 594.7 541 548.8 541C503 541 457 541 411.2 541C365.3 541 319.7 541 274 541C228.3 541 182.7 541 137 541C91.3 541 45.7 541 22.8 541L0 541Z" fill="#303030"></path></svg>