<svg id="visual" viewBox="0 0 675 900" width="675" height="900" xmlns="http://www.w3.org/2000/svg" xmlns:xlink="http://www.w3.org/1999/xlink" version="1.1"><path d="M0 280L10.2 286C20.3 292 40.7 304 61.2 284.5C81.7 265 102.3 214 122.8 191.5C143.3 169 163.7 175 184 170.5C204.3 166 224.7 151 245.2 179.5C265.7 208 286.3 280 306.8 331C327.3 382 347.7 412 368.2 389.5C388.7 367 409.3 292 429.8 257.5C450.3 223 470.7 229 491 223C511.3 217 531.7 199 552.2 191.5C572.7 184 593.3 187 613.8 194.5C634.3 202 654.7 214 664.8 220L675 226L675 0L664.8 0C654.7 0 634.3 0 613.8 0C593.3 0 572.7 0 552.2 0C531.7 0 511.3 0 491 0C470.7 0 450.3 0 429.8 0C409.3 0 388.7 0 368.2 0C347.7 0 327.3 0 306.8 0C286.3 0 265.7 0 245.2 0C224.7 0 204.3 0 184 0C163.7 0 143.3 0 122.8 0C102.3 0 81.7 0 61.2 0C40.7 0 20.3 0 10.2 0L0 0Z" fill="#001122"></path><path d="M0 325L10.2 347.5C20.3 370 40.7 415 61.2 400C81.7 385 102.3 310 122.8 281.5C143.3 253 163.7 271 184 269.5C204.3 268 224.7 247 245.2 266.5C265.7 286 286.3 346 306.8 395.5C327.3 445 347.7 484 368.2 475C388.7 466 409.3 409 429.8 386.5C450.3 364 470.7 376 491 371.5C511.3 367 531.7 346 552.2 338.5C572.7 331 593.3 337 613.8 341.5C634.3 346 654.7 349 664.8 350.5L675 352L675 224L664.8 218C654.7 212 634.3 200 613.8 192.5C593.3 185 572.7 182 552.2 189.5C531.7 197 511.3 215 491 221C470.7 227 450.3 221 429.8 255.5C409.3 290 388.7 365 368.2 387.5C347.7 410 327.3 380 306.8 329C286.3 278 265.7 206 245.2 177.5C224.7 149 204.3 164 184 168.5C163.7 173 143.3 167 122.8 189.5C102.3 212 81.7 263 61.2 282.5C40.7 302 20.3 290 10.2 284L0 278Z" fill="#01172c"></path><path d="M0 406L10.2 445C20.3 484 40.7 562 61.2 545.5C81.7 529 102.3 418 122.8 389.5C143.3 361 163.7 415 184 424C204.3 433 224.7 397 245.2 407.5C265.7 418 286.3 475 306.8 526C327.3 577 347.7 622 368.2 608.5C388.7 595 409.3 523 429.8 487C450.3 451 470.7 451 491 455.5C511.3 460 531.7 469 552.2 479.5C572.7 490 593.3 502 613.8 512.5C634.3 523 654.7 532 664.8 536.5L675 541L675 350L664.8 348.5C654.7 347 634.3 344 613.8 339.5C593.3 335 572.7 329 552.2 336.5C531.7 344 511.3 365 491 369.5C470.7 374 450.3 362 429.8 384.5C409.3 407 388.7 464 368.2 473C347.7 482 327.3 443 306.8 393.5C286.3 344 265.7 284 245.2 264.5C224.7 245 204.3 266 184 267.5C163.7 269 143.3 251 122.8 279.5C102.3 308 81.7 383 61.2 398C40.7 413 20.3 368 10.2 345.5L0 323Z" fill="#001c36"></path><path d="M0 784L10.2 793C20.3 802 40.7 820 61.2 814C81.7 808 102.3 778 122.8 752.5C143.3 727 163.7 706 184 706C204.3 706 224.7 727 245.2 722.5C265.7 718 286.3 688 306.8 698.5C327.3 709 347.7 760 368.2 769C388.7 778 409.3 745 429.8 725.5C450.3 706 470.7 700 491 707.5C511.3 715 531.7 736 552.2 739C572.7 742 593.3 727 613.8 716.5C634.3 706 654.7 700 664.8 697L675 694L675 539L664.8 534.5C654.7 530 634.3 521 613.8 510.5C593.3 500 572.7 488 552.2 477.5C531.7 467 511.3 458 491 453.5C470.7 449 450.3 449 429.8 485C409.3 521 388.7 593 368.2 606.5C347.7 620 327.3 575 306.8 524C286.3 473 265.7 416 245.2 405.5C224.7 395 204.3 431 184 422C163.7 413 143.3 359 122.8 387.5C102.3 416 81.7 527 61.2 543.5C40.7 560 20.3 482 10.2 443L0 404Z" fill="#002141"></path><path d="M0 901L10.2 901C20.3 901 40.7 901 61.2 901C81.7 901 102.3 901 122.8 901C143.3 901 163.7 901 184 901C204.3 901 224.7 901 245.2 901C265.7 901 286.3 901 306.8 901C327.3 901 347.7 901 368.2 901C388.7 901 409.3 901 429.8 901C450.3 901 470.7 901 491 901C511.3 901 531.7 901 552.2 901C572.7 901 593.3 901 613.8 901C634.3 901 654.7 901 664.8 901L675 901L675 692L664.8 695C654.7 698 634.3 704 613.8 714.5C593.3 725 572.7 740 552.2 737C531.7 734 511.3 713 491 705.5C470.7 698 450.3 704 429.8 723.5C409.3 743 388.7 776 368.2 767C347.7 758 327.3 707 306.8 696.5C286.3 686 265.7 716 245.2 720.5C224.7 725 204.3 704 184 704C163.7 704 143.3 725 122.8 750.5C102.3 776 81.7 806 61.2 812C40.7 818 20.3 800 10.2 791L0 782Z" fill="#00264c"></path></svg>