<svg id="visual" viewBox="0 0 960 540" width="960" height="540" xmlns="http://www.w3.org/2000/svg" xmlns:xlink="http://www.w3.org/1999/xlink" version="1.1"><rect x="0" y="0" width="960" height="540" fill="#121212"></rect><path d="M0 209L16 195.5C32 182 64 155 96 144.2C128 133.3 160 138.7 192 141.7C224 144.7 256 145.3 288 155.8C320 166.3 352 186.7 384 193.7C416 200.7 448 194.3 480 193.3C512 192.3 544 196.7 576 204.2C608 211.7 640 222.3 672 225C704 227.7 736 222.3 768 212.5C800 202.7 832 188.3 864 179.2C896 170 928 166 944 164L960 162L960 541L944 541C928 541 896 541 864 541C832 541 800 541 768 541C736 541 704 541 672 541C640 541 608 541 576 541C544 541 512 541 480 541C448 541 416 541 384 541C352 541 320 541 288 541C256 541 224 541 192 541C160 541 128 541 96 541C64 541 32 541 16 541L0 541Z" fill="#151515"></path><path d="M0 136L16 150.5C32 165 64 194 96 209.8C128 225.7 160 228.3 192 220.7C224 213 256 195 288 183C320 171 352 165 384 163.5C416 162 448 165 480 173.3C512 181.7 544 195.3 576 191.8C608 188.3 640 167.7 672 171.8C704 176 736 205 768 226.2C800 247.3 832 260.7 864 259C896 257.3 928 240.7 944 232.3L960 224L960 541L944 541C928 541 896 541 864 541C832 541 800 541 768 541C736 541 704 541 672 541C640 541 608 541 576 541C544 541 512 541 480 541C448 541 416 541 384 541C352 541 320 541 288 541C256 541 224 541 192 541C160 541 128 541 96 541C64 541 32 541 16 541L0 541Z" fill="#171717"></path><path d="M0 269L16 260.7C32 252.3 64 235.7 96 225.3C128 215 160 211 192 220.2C224 229.3 256 251.7 288 252.2C320 252.7 352 231.3 384 229.5C416 227.7 448 245.3 480 255.7C512 266 544 269 576 265.5C608 262 640 252 672 243C704 234 736 226 768 221.3C800 216.7 832 215.3 864 223.3C896 231.3 928 248.7 944 257.3L960 266L960 541L944 541C928 541 896 541 864 541C832 541 800 541 768 541C736 541 704 541 672 541C640 541 608 541 576 541C544 541 512 541 480 541C448 541 416 541 384 541C352 541 320 541 288 541C256 541 224 541 192 541C160 541 128 541 96 541C64 541 32 541 16 541L0 541Z" fill="#1a1a1a"></path><path d="M0 286L16 287.2C32 288.3 64 290.7 96 296.5C128 302.3 160 311.7 192 303C224 294.3 256 267.7 288 259.3C320 251 352 261 384 273.8C416 286.7 448 302.3 480 308C512 313.7 544 309.3 576 312.8C608 316.3 640 327.7 672 324C704 320.3 736 301.7 768 291.8C800 282 832 281 864 283.8C896 286.7 928 293.3 944 296.7L960 300L960 541L944 541C928 541 896 541 864 541C832 541 800 541 768 541C736 541 704 541 672 541C640 541 608 541 576 541C544 541 512 541 480 541C448 541 416 541 384 541C352 541 320 541 288 541C256 541 224 541 192 541C160 541 128 541 96 541C64 541 32 541 16 541L0 541Z" fill="#1c1c1c"></path><path d="M0 305L16 303.2C32 301.3 64 297.7 96 301.3C128 305 160 316 192 317C224 318 256 309 288 314.3C320 319.7 352 339.3 384 349C416 358.7 448 358.3 480 352C512 345.7 544 333.3 576 332C608 330.7 640 340.3 672 347.7C704 355 736 360 768 361.2C800 362.3 832 359.7 864 358.8C896 358 928 359 944 359.5L960 360L960 541L944 541C928 541 896 541 864 541C832 541 800 541 768 541C736 541 704 541 672 541C640 541 608 541 576 541C544 541 512 541 480 541C448 541 416 541 384 541C352 541 320 541 288 541C256 541 224 541 192 541C160 541 128 541 96 541C64 541 32 541 16 541L0 541Z" fill="#1e1e1e"></path><path d="M0 389L16 386.7C32 384.3 64 379.7 96 384.8C128 390 160 405 192 400.3C224 395.7 256 371.3 288 364.3C320 357.3 352 367.7 384 376.7C416 385.7 448 393.3 480 394.7C512 396 544 391 576 382.2C608 373.3 640 360.7 672 357.8C704 355 736 362 768 362C800 362 832 355 864 364.2C896 373.3 928 398.7 944 411.3L960 424L960 541L944 541C928 541 896 541 864 541C832 541 800 541 768 541C736 541 704 541 672 541C640 541 608 541 576 541C544 541 512 541 480 541C448 541 416 541 384 541C352 541 320 541 288 541C256 541 224 541 192 541C160 541 128 541 96 541C64 541 32 541 16 541L0 541Z" fill="#202020"></path><path d="M0 467L16 461C32 455 64 443 96 434.7C128 426.3 160 421.7 192 418.3C224 415 256 413 288 414.2C320 415.3 352 419.7 384 429.2C416 438.7 448 453.3 480 459.5C512 465.7 544 463.3 576 456.3C608 449.3 640 437.7 672 438.2C704 438.7 736 451.3 768 451.8C800 452.3 832 440.7 864 435.5C896 430.3 928 431.7 944 432.3L960 433L960 541L944 541C928 541 896 541 864 541C832 541 800 541 768 541C736 541 704 541 672 541C640 541 608 541 576 541C544 541 512 541 480 541C448 541 416 541 384 541C352 541 320 541 288 541C256 541 224 541 192 541C160 541 128 541 96 541C64 541 32 541 16 541L0 541Z" fill="#232323"></path><path d="M0 466L16 467.3C32 468.7 64 471.3 96 474.8C128 478.3 160 482.7 192 487.5C224 492.3 256 497.7 288 491.3C320 485 352 467 384 461.7C416 456.3 448 463.7 480 465.8C512 468 544 465 576 466C608 467 640 472 672 476.8C704 481.7 736 486.3 768 485.5C800 484.7 832 478.3 864 479.5C896 480.7 928 489.3 944 493.7L960 498L960 541L944 541C928 541 896 541 864 541C832 541 800 541 768 541C736 541 704 541 672 541C640 541 608 541 576 541C544 541 512 541 480 541C448 541 416 541 384 541C352 541 320 541 288 541C256 541 224 541 192 541C160 541 128 541 96 541C64 541 32 541 16 541L0 541Z" fill="#252525"></path></svg>