<svg id="visual" viewBox="0 0 900 600" width="900" height="600" xmlns="http://www.w3.org/2000/svg" xmlns:xlink="http://www.w3.org/1999/xlink" version="1.1"><rect x="0" y="0" width="900" height="600" fill="#001122"></rect><path d="M0 303L21.5 307.7C43 312.3 86 321.7 128.8 325.5C171.7 329.3 214.3 327.7 257.2 329.3C300 331 343 336 385.8 323.7C428.7 311.3 471.3 281.7 514.2 275.3C557 269 600 286 642.8 299.2C685.7 312.3 728.3 321.7 771.2 311.3C814 301 857 271 878.5 256L900 241L900 601L878.5 601C857 601 814 601 771.2 601C728.3 601 685.7 601 642.8 601C600 601 557 601 514.2 601C471.3 601 428.7 601 385.8 601C343 601 300 601 257.2 601C214.3 601 171.7 601 128.8 601C86 601 43 601 21.5 601L0 601Z" fill="#001b35"></path><path d="M0 281L21.5 293.5C43 306 86 331 128.8 331.3C171.7 331.7 214.3 307.3 257.2 310.7C300 314 343 345 385.8 351C428.7 357 471.3 338 514.2 316.8C557 295.7 600 272.3 642.8 265.8C685.7 259.3 728.3 269.7 771.2 290.3C814 311 857 342 878.5 357.5L900 373L900 601L878.5 601C857 601 814 601 771.2 601C728.3 601 685.7 601 642.8 601C600 601 557 601 514.2 601C471.3 601 428.7 601 385.8 601C343 601 300 601 257.2 601C214.3 601 171.7 601 128.8 601C86 601 43 601 21.5 601L0 601Z" fill="#17244b"></path><path d="M0 378L21.5 365.2C43 352.3 86 326.7 128.8 318C171.7 309.3 214.3 317.7 257.2 332.2C300 346.7 343 367.3 385.8 380.2C428.7 393 471.3 398 514.2 395C557 392 600 381 642.8 373C685.7 365 728.3 360 771.2 357.7C814 355.3 857 355.7 878.5 355.8L900 356L900 601L878.5 601C857 601 814 601 771.2 601C728.3 601 685.7 601 642.8 601C600 601 557 601 514.2 601C471.3 601 428.7 601 385.8 601C343 601 300 601 257.2 601C214.3 601 171.7 601 128.8 601C86 601 43 601 21.5 601L0 601Z" fill="#362a5e"></path><path d="M0 454L21.5 438C43 422 86 390 128.8 382.8C171.7 375.7 214.3 393.3 257.2 395.2C300 397 343 383 385.8 374.2C428.7 365.3 471.3 361.7 514.2 372.7C557 383.7 600 409.3 642.8 416.8C685.7 424.3 728.3 413.7 771.2 410.3C814 407 857 411 878.5 413L900 415L900 601L878.5 601C857 601 814 601 771.2 601C728.3 601 685.7 601 642.8 601C600 601 557 601 514.2 601C471.3 601 428.7 601 385.8 601C343 601 300 601 257.2 601C214.3 601 171.7 601 128.8 601C86 601 43 601 21.5 601L0 601Z" fill="#592d6b"></path><path d="M0 415L21.5 426C43 437 86 459 128.8 469.3C171.7 479.7 214.3 478.3 257.2 470.7C300 463 343 449 385.8 444C428.7 439 471.3 443 514.2 444C557 445 600 443 642.8 445C685.7 447 728.3 453 771.2 461.2C814 469.3 857 479.7 878.5 484.8L900 490L900 601L878.5 601C857 601 814 601 771.2 601C728.3 601 685.7 601 642.8 601C600 601 557 601 514.2 601C471.3 601 428.7 601 385.8 601C343 601 300 601 257.2 601C214.3 601 171.7 601 128.8 601C86 601 43 601 21.5 601L0 601Z" fill="#7e2c72"></path><path d="M0 469L21.5 472.3C43 475.7 86 482.3 128.8 484C171.7 485.7 214.3 482.3 257.2 483.2C300 484 343 489 385.8 487.3C428.7 485.7 471.3 477.3 514.2 472.2C557 467 600 465 642.8 469C685.7 473 728.3 483 771.2 482C814 481 857 469 878.5 463L900 457L900 601L878.5 601C857 601 814 601 771.2 601C728.3 601 685.7 601 642.8 601C600 601 557 601 514.2 601C471.3 601 428.7 601 385.8 601C343 601 300 601 257.2 601C214.3 601 171.7 601 128.8 601C86 601 43 601 21.5 601L0 601Z" fill="#a42771"></path><path d="M0 547L21.5 550.7C43 554.3 86 561.7 128.8 561.8C171.7 562 214.3 555 257.2 554.2C300 553.3 343 558.7 385.8 556.8C428.7 555 471.3 546 514.2 541.2C557 536.3 600 535.7 642.8 536.5C685.7 537.3 728.3 539.7 771.2 542.3C814 545 857 548 878.5 549.5L900 551L900 601L878.5 601C857 601 814 601 771.2 601C728.3 601 685.7 601 642.8 601C600 601 557 601 514.2 601C471.3 601 428.7 601 385.8 601C343 601 300 601 257.2 601C214.3 601 171.7 601 128.8 601C86 601 43 601 21.5 601L0 601Z" fill="#c62368"></path></svg>