<svg id="visual" viewBox="0 0 960 540" width="960" height="540" xmlns="http://www.w3.org/2000/svg" xmlns:xlink="http://www.w3.org/1999/xlink" version="1.1"><path d="M0 23L8.8 22C17.7 21 35.3 19 53.2 23.5C71 28 89 39 106.8 36.2C124.7 33.3 142.3 16.7 160 13.8C177.7 11 195.3 22 213.2 22C231 22 249 11 266.8 13.8C284.7 16.7 302.3 33.3 320 34.3C337.7 35.3 355.3 20.7 373.2 21.5C391 22.3 409 38.7 426.8 41.5C444.7 44.3 462.3 33.7 480 30C497.7 26.3 515.3 29.7 533.2 25.8C551 22 569 11 586.8 9.3C604.7 7.7 622.3 15.3 640 19.2C657.7 23 675.3 23 693.2 25.7C711 28.3 729 33.7 746.8 34.5C764.7 35.3 782.3 31.7 800 31.7C817.7 31.7 835.3 35.3 853.2 36.2C871 37 889 35 906.8 30.5C924.7 26 942.3 19 951.2 15.5L960 12L960 0L951.2 0C942.3 0 924.7 0 906.8 0C889 0 871 0 853.2 0C835.3 0 817.7 0 800 0C782.3 0 764.7 0 746.8 0C729 0 711 0 693.2 0C675.3 0 657.7 0 640 0C622.3 0 604.7 0 586.8 0C569 0 551 0 533.2 0C515.3 0 497.7 0 480 0C462.3 0 444.7 0 426.8 0C409 0 391 0 373.2 0C355.3 0 337.7 0 320 0C302.3 0 284.7 0 266.8 0C249 0 231 0 213.2 0C195.3 0 177.7 0 160 0C142.3 0 124.7 0 106.8 0C89 0 71 0 53.2 0C35.3 0 17.7 0 8.8 0L0 0Z" fill="#121212"></path><path d="M0 28L8.8 37C17.7 46 35.3 64 53.2 72.2C71 80.3 89 78.7 106.8 75C124.7 71.3 142.3 65.7 160 60.2C177.7 54.7 195.3 49.3 213.2 49.3C231 49.3 249 54.7 266.8 56.5C284.7 58.3 302.3 56.7 320 47.7C337.7 38.7 355.3 22.3 373.2 25C391 27.7 409 49.3 426.8 60.2C444.7 71 462.3 71 480 68.3C497.7 65.7 515.3 60.3 533.2 52.3C551 44.3 569 33.7 586.8 28.3C604.7 23 622.3 23 640 23C657.7 23 675.3 23 693.2 27.5C711 32 729 41 746.8 51.7C764.7 62.3 782.3 74.7 800 86.3C817.7 98 835.3 109 853.2 115.3C871 121.7 889 123.3 906.8 121.5C924.7 119.7 942.3 114.3 951.2 111.7L960 109L960 10L951.2 13.5C942.3 17 924.7 24 906.8 28.5C889 33 871 35 853.2 34.2C835.3 33.3 817.7 29.7 800 29.7C782.3 29.7 764.7 33.3 746.8 32.5C729 31.7 711 26.3 693.2 23.7C675.3 21 657.7 21 640 17.5C622.3 14 604.7 7 586.8 8.7C569 10.3 551 20.7 533.2 24.2C515.3 27.7 497.7 24.3 480 28C462.3 31.7 444.7 42.3 426.8 39.5C409 36.7 391 20.3 373.2 19.5C355.3 18.7 337.7 33.3 320 32.7C302.3 32 284.7 16 266.8 13.2C249 10.3 231 20.7 213.2 20.7C195.3 20.7 177.7 10.3 160 13.2C142.3 16 124.7 32 106.8 34.5C89 37 71 26 53.2 21.5C35.3 17 17.7 19 8.8 20L0 21Z" fill="#141414"></path><path d="M0 152L8.8 147.5C17.7 143 35.3 134 53.2 125C71 116 89 107 106.8 96.2C124.7 85.3 142.3 72.7 160 85.3C177.7 98 195.3 136 213.2 154C231 172 249 170 266.8 172.7C284.7 175.3 302.3 182.7 320 169.2C337.7 155.7 355.3 121.3 373.2 124C391 126.7 409 166.3 426.8 164.7C444.7 163 462.3 120 480 104.7C497.7 89.3 515.3 101.7 533.2 112.3C551 123 569 132 586.8 136.5C604.7 141 622.3 141 640 159C657.7 177 675.3 213 693.2 200.5C711 188 729 127 746.8 101C764.7 75 782.3 84 800 123.5C817.7 163 835.3 233 853.2 251C871 269 889 235 906.8 230.5C924.7 226 942.3 251 951.2 263.5L960 276L960 107L951.2 109.7C942.3 112.3 924.7 117.7 906.8 119.5C889 121.3 871 119.7 853.2 113.3C835.3 107 817.7 96 800 84.3C782.3 72.7 764.7 60.3 746.8 49.7C729 39 711 30 693.2 25.5C675.3 21 657.7 21 640 21C622.3 21 604.7 21 586.8 26.3C569 31.7 551 42.3 533.2 50.3C515.3 58.3 497.7 63.7 480 66.3C462.3 69 444.7 69 426.8 58.2C409 47.3 391 25.7 373.2 23C355.3 20.3 337.7 36.7 320 45.7C302.3 54.7 284.7 56.3 266.8 54.5C249 52.7 231 47.3 213.2 47.3C195.3 47.3 177.7 52.7 160 58.2C142.3 63.7 124.7 69.3 106.8 73C89 76.7 71 78.3 53.2 70.2C35.3 62 17.7 44 8.8 35L0 26Z" fill="#161616"></path><path d="M0 217L8.8 201.7C17.7 186.3 35.3 155.7 53.2 153C71 150.3 89 175.7 106.8 185.7C124.7 195.7 142.3 190.3 160 193.8C177.7 197.3 195.3 209.7 213.2 211.3C231 213 249 204 266.8 202.3C284.7 200.7 302.3 206.3 320 199.2C337.7 192 355.3 172 373.2 175.5C391 179 409 206 426.8 207C444.7 208 462.3 183 480 172.2C497.7 161.3 515.3 164.7 533.2 180.8C551 197 569 226 586.8 242.3C604.7 258.7 622.3 262.3 640 264.2C657.7 266 675.3 266 693.2 245.2C711 224.3 729 182.7 746.8 159.2C764.7 135.7 782.3 130.3 800 165.5C817.7 200.7 835.3 276.3 853.2 294.3C871 312.3 889 272.7 906.8 267.3C924.7 262 942.3 291 951.2 305.5L960 320L960 274L951.2 261.5C942.3 249 924.7 224 906.8 228.5C889 233 871 267 853.2 249C835.3 231 817.7 161 800 121.5C782.3 82 764.7 73 746.8 99C729 125 711 186 693.2 198.5C675.3 211 657.7 175 640 157C622.3 139 604.7 139 586.8 134.5C569 130 551 121 533.2 110.3C515.3 99.7 497.7 87.3 480 102.7C462.3 118 444.7 161 426.8 162.7C409 164.3 391 124.7 373.2 122C355.3 119.3 337.7 153.7 320 167.2C302.3 180.7 284.7 173.3 266.8 170.7C249 168 231 170 213.2 152C195.3 134 177.7 96 160 83.3C142.3 70.7 124.7 83.3 106.8 94.2C89 105 71 114 53.2 123C35.3 132 17.7 141 8.8 145.5L0 150Z" fill="#181818"></path><path d="M0 244L8.8 229.7C17.7 215.3 35.3 186.7 53.2 183C71 179.3 89 200.7 106.8 210.5C124.7 220.3 142.3 218.7 160 223.2C177.7 227.7 195.3 238.3 213.2 242.8C231 247.3 249 245.7 266.8 240.3C284.7 235 302.3 226 320 210.7C337.7 195.3 355.3 173.7 373.2 180C391 186.3 409 220.7 426.8 230.7C444.7 240.7 462.3 226.3 480 222.7C497.7 219 515.3 226 533.2 243C551 260 569 287 586.8 295.2C604.7 303.3 622.3 292.7 640 295.3C657.7 298 675.3 314 693.2 290.5C711 267 729 204 746.8 181.5C764.7 159 782.3 177 800 216.7C817.7 256.3 835.3 317.7 853.2 324C871 330.3 889 281.7 906.8 280.8C924.7 280 942.3 327 951.2 350.5L960 374L960 318L951.2 303.5C942.3 289 924.7 260 906.8 265.3C889 270.7 871 310.3 853.2 292.3C835.3 274.3 817.7 198.7 800 163.5C782.3 128.3 764.7 133.7 746.8 157.2C729 180.7 711 222.3 693.2 243.2C675.3 264 657.7 264 640 262.2C622.3 260.3 604.7 256.7 586.8 240.3C569 224 551 195 533.2 178.8C515.3 162.7 497.7 159.3 480 170.2C462.3 181 444.7 206 426.8 205C409 204 391 177 373.2 173.5C355.3 170 337.7 190 320 197.2C302.3 204.3 284.7 198.7 266.8 200.3C249 202 231 211 213.2 209.3C195.3 207.7 177.7 195.3 160 191.8C142.3 188.3 124.7 193.7 106.8 183.7C89 173.7 71 148.3 53.2 151C35.3 153.7 17.7 184.3 8.8 199.7L0 215Z" fill="#191919"></path><path d="M0 282L8.8 261.3C17.7 240.7 35.3 199.3 53.2 196.7C71 194 89 230 106.8 240.7C124.7 251.3 142.3 236.7 160 235.7C177.7 234.7 195.3 247.3 213.2 256.3C231 265.3 249 270.7 266.8 268.8C284.7 267 302.3 258 320 244.5C337.7 231 355.3 213 373.2 214C391 215 409 235 426.8 245C444.7 255 462.3 255 480 257.7C497.7 260.3 515.3 265.7 533.2 276.5C551 287.3 569 303.7 586.8 306.3C604.7 309 622.3 298 640 299.7C657.7 301.3 675.3 315.7 693.2 292.3C711 269 729 208 746.8 188.3C764.7 168.7 782.3 190.3 800 233.5C817.7 276.7 835.3 341.3 853.2 346.7C871 352 889 298 906.8 292.7C924.7 287.3 942.3 330.7 951.2 352.3L960 374L960 372L951.2 348.5C942.3 325 924.7 278 906.8 278.8C889 279.7 871 328.3 853.2 322C835.3 315.7 817.7 254.3 800 214.7C782.3 175 764.7 157 746.8 179.5C729 202 711 265 693.2 288.5C675.3 312 657.7 296 640 293.3C622.3 290.7 604.7 301.3 586.8 293.2C569 285 551 258 533.2 241C515.3 224 497.7 217 480 220.7C462.3 224.3 444.7 238.7 426.8 228.7C409 218.7 391 184.3 373.2 178C355.3 171.7 337.7 193.3 320 208.7C302.3 224 284.7 233 266.8 238.3C249 243.7 231 245.3 213.2 240.8C195.3 236.3 177.7 225.7 160 221.2C142.3 216.7 124.7 218.3 106.8 208.5C89 198.7 71 177.3 53.2 181C35.3 184.7 17.7 213.3 8.8 227.7L0 242Z" fill="#1b1b1b"></path><path d="M0 341L8.8 342C17.7 343 35.3 345 53.2 348.7C71 352.3 89 357.7 106.8 363.8C124.7 370 142.3 377 160 375.2C177.7 373.3 195.3 362.7 213.2 358.2C231 353.7 249 355.3 266.8 360.7C284.7 366 302.3 375 320 381.3C337.7 387.7 355.3 391.3 373.2 388.7C391 386 409 377 426.8 373.5C444.7 370 462.3 372 480 382C497.7 392 515.3 410 533.2 408.2C551 406.3 569 384.7 586.8 370.2C604.7 355.7 622.3 348.3 640 350.2C657.7 352 675.3 363 693.2 362.2C711 361.3 729 348.7 746.8 356.7C764.7 364.7 782.3 393.3 800 408.7C817.7 424 835.3 426 853.2 422.5C871 419 889 410 906.8 408.2C924.7 406.3 942.3 411.7 951.2 414.3L960 417L960 372L951.2 350.3C942.3 328.7 924.7 285.3 906.8 290.7C889 296 871 350 853.2 344.7C835.3 339.3 817.7 274.7 800 231.5C782.3 188.3 764.7 166.7 746.8 186.3C729 206 711 267 693.2 290.3C675.3 313.7 657.7 299.3 640 297.7C622.3 296 604.7 307 586.8 304.3C569 301.7 551 285.3 533.2 274.5C515.3 263.7 497.7 258.3 480 255.7C462.3 253 444.7 253 426.8 243C409 233 391 213 373.2 212C355.3 211 337.7 229 320 242.5C302.3 256 284.7 265 266.8 266.8C249 268.7 231 263.3 213.2 254.3C195.3 245.3 177.7 232.7 160 233.7C142.3 234.7 124.7 249.3 106.8 238.7C89 228 71 192 53.2 194.7C35.3 197.3 17.7 238.7 8.8 259.3L0 280Z" fill="#1d1d1d"></path><path d="M0 384L8.8 390.3C17.7 396.7 35.3 409.3 53.2 415.7C71 422 89 422 106.8 415.7C124.7 409.3 142.3 396.7 160 388.7C177.7 380.7 195.3 377.3 213.2 374.7C231 372 249 370 266.8 381.7C284.7 393.3 302.3 418.7 320 430.3C337.7 442 355.3 440 373.2 439C391 438 409 438 426.8 434.5C444.7 431 462.3 424 480 433C497.7 442 515.3 467 533.2 470.5C551 474 569 456 586.8 443.5C604.7 431 622.3 424 640 417.8C657.7 411.7 675.3 406.3 693.2 403.7C711 401 729 401 746.8 410.8C764.7 420.7 782.3 440.3 800 444.8C817.7 449.3 835.3 438.7 853.2 437.8C871 437 889 446 906.8 444.2C924.7 442.3 942.3 429.7 951.2 423.3L960 417L960 415L951.2 412.3C942.3 409.7 924.7 404.3 906.8 406.2C889 408 871 417 853.2 420.5C835.3 424 817.7 422 800 406.7C782.3 391.3 764.7 362.7 746.8 354.7C729 346.7 711 359.3 693.2 360.2C675.3 361 657.7 350 640 348.2C622.3 346.3 604.7 353.7 586.8 368.2C569 382.7 551 404.3 533.2 406.2C515.3 408 497.7 390 480 380C462.3 370 444.7 368 426.8 371.5C409 375 391 384 373.2 386.7C355.3 389.3 337.7 385.7 320 379.3C302.3 373 284.7 364 266.8 358.7C249 353.3 231 351.7 213.2 356.2C195.3 360.7 177.7 371.3 160 373.2C142.3 375 124.7 368 106.8 361.8C89 355.7 71 350.3 53.2 346.7C35.3 343 17.7 341 8.8 340L0 339Z" fill="#1e1e1e"></path><path d="M0 411L8.8 420C17.7 429 35.3 447 53.2 451.5C71 456 89 447 106.8 444.3C124.7 441.7 142.3 445.3 160 441.8C177.7 438.3 195.3 427.7 213.2 423.2C231 418.7 249 420.3 266.8 426.7C284.7 433 302.3 444 320 451.2C337.7 458.3 355.3 461.7 373.2 467.8C391 474 409 483 426.8 484C444.7 485 462.3 478 480 478C497.7 478 515.3 485 533.2 484C551 483 569 474 586.8 466.8C604.7 459.7 622.3 454.3 640 447.2C657.7 440 675.3 431 693.2 430.2C711 429.3 729 436.7 746.8 445.7C764.7 454.7 782.3 465.3 800 464.3C817.7 463.3 835.3 450.7 853.2 455.2C871 459.7 889 481.3 906.8 485C924.7 488.7 942.3 474.3 951.2 467.2L960 460L960 415L951.2 421.3C942.3 427.7 924.7 440.3 906.8 442.2C889 444 871 435 853.2 435.8C835.3 436.7 817.7 447.3 800 442.8C782.3 438.3 764.7 418.7 746.8 408.8C729 399 711 399 693.2 401.7C675.3 404.3 657.7 409.7 640 415.8C622.3 422 604.7 429 586.8 441.5C569 454 551 472 533.2 468.5C515.3 465 497.7 440 480 431C462.3 422 444.7 429 426.8 432.5C409 436 391 436 373.2 437C355.3 438 337.7 440 320 428.3C302.3 416.7 284.7 391.3 266.8 379.7C249 368 231 370 213.2 372.7C195.3 375.3 177.7 378.7 160 386.7C142.3 394.7 124.7 407.3 106.8 413.7C89 420 71 420 53.2 413.7C35.3 407.3 17.7 394.7 8.8 388.3L0 382Z" fill="#202020"></path><path d="M0 438L8.8 448.8C17.7 459.7 35.3 481.3 53.2 485.8C71 490.3 89 477.7 106.8 471.3C124.7 465 142.3 465 160 462.3C177.7 459.7 195.3 454.3 213.2 451.7C231 449 249 449 266.8 454.5C284.7 460 302.3 471 320 476.5C337.7 482 355.3 482 373.2 488.2C391 494.3 409 506.7 426.8 505.7C444.7 504.7 462.3 490.3 480 488.7C497.7 487 515.3 498 533.2 499.8C551 501.7 569 494.3 586.8 486.2C604.7 478 622.3 469 640 461.8C657.7 454.7 675.3 449.3 693.2 446.7C711 444 729 444 746.8 453C764.7 462 782.3 480 800 480.8C817.7 481.7 835.3 465.3 853.2 466.2C871 467 889 485 906.8 493.2C924.7 501.3 942.3 499.7 951.2 498.8L960 498L960 458L951.2 465.2C942.3 472.3 924.7 486.7 906.8 483C889 479.3 871 457.7 853.2 453.2C835.3 448.7 817.7 461.3 800 462.3C782.3 463.3 764.7 452.7 746.8 443.7C729 434.7 711 427.3 693.2 428.2C675.3 429 657.7 438 640 445.2C622.3 452.3 604.7 457.7 586.8 464.8C569 472 551 481 533.2 482C515.3 483 497.7 476 480 476C462.3 476 444.7 483 426.8 482C409 481 391 472 373.2 465.8C355.3 459.7 337.7 456.3 320 449.2C302.3 442 284.7 431 266.8 424.7C249 418.3 231 416.7 213.2 421.2C195.3 425.7 177.7 436.3 160 439.8C142.3 443.3 124.7 439.7 106.8 442.3C89 445 71 454 53.2 449.5C35.3 445 17.7 427 8.8 418L0 409Z" fill="#222222"></path><path d="M0 498L8.8 498.8C17.7 499.7 35.3 501.3 53.2 504.8C71 508.3 89 513.7 106.8 518.2C124.7 522.7 142.3 526.3 160 525.5C177.7 524.7 195.3 519.3 213.2 516.7C231 514 249 514 266.8 515.8C284.7 517.7 302.3 521.3 320 518.7C337.7 516 355.3 507 373.2 507C391 507 409 516 426.8 516.8C444.7 517.7 462.3 510.3 480 507.7C497.7 505 515.3 507 533.2 512.5C551 518 569 527 586.8 526C604.7 525 622.3 514 640 506.7C657.7 499.3 675.3 495.7 693.2 496.7C711 497.7 729 503.3 746.8 511.5C764.7 519.7 782.3 530.3 800 527.5C817.7 524.7 835.3 508.3 853.2 507.5C871 506.7 889 521.3 906.8 526.8C924.7 532.3 942.3 528.7 951.2 526.8L960 525L960 496L951.2 496.8C942.3 497.7 924.7 499.3 906.8 491.2C889 483 871 465 853.2 464.2C835.3 463.3 817.7 479.7 800 478.8C782.3 478 764.7 460 746.8 451C729 442 711 442 693.2 444.7C675.3 447.3 657.7 452.7 640 459.8C622.3 467 604.7 476 586.8 484.2C569 492.3 551 499.7 533.2 497.8C515.3 496 497.7 485 480 486.7C462.3 488.3 444.7 502.7 426.8 503.7C409 504.7 391 492.3 373.2 486.2C355.3 480 337.7 480 320 474.5C302.3 469 284.7 458 266.8 452.5C249 447 231 447 213.2 449.7C195.3 452.3 177.7 457.7 160 460.3C142.3 463 124.7 463 106.8 469.3C89 475.7 71 488.3 53.2 483.8C35.3 479.3 17.7 457.7 8.8 446.8L0 436Z" fill="#232323"></path><path d="M0 541L8.8 541C17.7 541 35.3 541 53.2 541C71 541 89 541 106.8 541C124.7 541 142.3 541 160 541C177.7 541 195.3 541 213.2 541C231 541 249 541 266.8 541C284.7 541 302.3 541 320 541C337.7 541 355.3 541 373.2 541C391 541 409 541 426.8 541C444.7 541 462.3 541 480 541C497.7 541 515.3 541 533.2 541C551 541 569 541 586.8 541C604.7 541 622.3 541 640 541C657.7 541 675.3 541 693.2 541C711 541 729 541 746.8 541C764.7 541 782.3 541 800 541C817.7 541 835.3 541 853.2 541C871 541 889 541 906.8 541C924.7 541 942.3 541 951.2 541L960 541L960 523L951.2 524.8C942.3 526.7 924.7 530.3 906.8 524.8C889 519.3 871 504.7 853.2 505.5C835.3 506.3 817.7 522.7 800 525.5C782.3 528.3 764.7 517.7 746.8 509.5C729 501.3 711 495.7 693.2 494.7C675.3 493.7 657.7 497.3 640 504.7C622.3 512 604.7 523 586.8 524C569 525 551 516 533.2 510.5C515.3 505 497.7 503 480 505.7C462.3 508.3 444.7 515.7 426.8 514.8C409 514 391 505 373.2 505C355.3 505 337.7 514 320 516.7C302.3 519.3 284.7 515.7 266.8 513.8C249 512 231 512 213.2 514.7C195.3 517.3 177.7 522.7 160 523.5C142.3 524.3 124.7 520.7 106.8 516.2C89 511.7 71 506.3 53.2 502.8C35.3 499.3 17.7 497.7 8.8 496.8L0 496Z" fill="#252525"></path></svg>