<svg id="visual" viewBox="0 0 900 600" width="900" height="600" xmlns="http://www.w3.org/2000/svg" xmlns:xlink="http://www.w3.org/1999/xlink" version="1.1"><rect x="0" y="0" width="900" height="600" fill="#121212"></rect><path d="M440 600L452.2 585.7C464.3 571.3 488.7 542.7 476 514.2C463.3 485.7 413.7 457.3 372.7 428.8C331.7 400.3 299.3 371.7 303.8 343C308.3 314.3 349.7 285.7 376.2 257C402.7 228.3 414.3 199.7 411.5 171.2C408.7 142.7 391.3 114.3 374.3 85.8C357.3 57.3 340.7 28.7 332.3 14.3L324 0L900 0L900 14.3C900 28.7 900 57.3 900 85.8C900 114.3 900 142.7 900 171.2C900 199.7 900 228.3 900 257C900 285.7 900 314.3 900 343C900 371.7 900 400.3 900 428.8C900 457.3 900 485.7 900 514.2C900 542.7 900 571.3 900 585.7L900 600Z" fill="#a76bcf"></path><path d="M438 600L458.3 585.7C478.7 571.3 519.3 542.7 547.3 514.2C575.3 485.7 590.7 457.3 592.2 428.8C593.7 400.3 581.3 371.7 549.7 343C518 314.3 467 285.7 452.7 257C438.3 228.3 460.7 199.7 473 171.2C485.3 142.7 487.7 114.3 479.3 85.8C471 57.3 452 28.7 442.5 14.3L433 0L900 0L900 14.3C900 28.7 900 57.3 900 85.8C900 114.3 900 142.7 900 171.2C900 199.7 900 228.3 900 257C900 285.7 900 314.3 900 343C900 371.7 900 400.3 900 428.8C900 457.3 900 485.7 900 514.2C900 542.7 900 571.3 900 585.7L900 600Z" fill="#9e57da"></path><path d="M519 600L538.2 585.7C557.3 571.3 595.7 542.7 611.3 514.2C627 485.7 620 457.3 599.7 428.8C579.3 400.3 545.7 371.7 528.8 343C512 314.3 512 285.7 512.5 257C513 228.3 514 199.7 534.5 171.2C555 142.7 595 114.3 606.5 85.8C618 57.3 601 28.7 592.5 14.3L584 0L900 0L900 14.3C900 28.7 900 57.3 900 85.8C900 114.3 900 142.7 900 171.2C900 199.7 900 228.3 900 257C900 285.7 900 314.3 900 343C900 371.7 900 400.3 900 428.8C900 457.3 900 485.7 900 514.2C900 542.7 900 571.3 900 585.7L900 600Z" fill="#9242e6"></path><path d="M708 600L713.3 585.7C718.7 571.3 729.3 542.7 735.3 514.2C741.3 485.7 742.7 457.3 727.8 428.8C713 400.3 682 371.7 677.2 343C672.3 314.3 693.7 285.7 683.8 257C674 228.3 633 199.7 624.5 171.2C616 142.7 640 114.3 640.5 85.8C641 57.3 618 28.7 606.5 14.3L595 0L900 0L900 14.3C900 28.7 900 57.3 900 85.8C900 114.3 900 142.7 900 171.2C900 199.7 900 228.3 900 257C900 285.7 900 314.3 900 343C900 371.7 900 400.3 900 428.8C900 457.3 900 485.7 900 514.2C900 542.7 900 571.3 900 585.7L900 600Z" fill="#802af2"></path><path d="M829 600L823.3 585.7C817.7 571.3 806.3 542.7 790 514.2C773.7 485.7 752.3 457.3 758.7 428.8C765 400.3 799 371.7 809.5 343C820 314.3 807 285.7 800.2 257C793.3 228.3 792.7 199.7 778.7 171.2C764.7 142.7 737.3 114.3 741 85.8C744.7 57.3 779.3 28.7 796.7 14.3L814 0L900 0L900 14.3C900 28.7 900 57.3 900 85.8C900 114.3 900 142.7 900 171.2C900 199.7 900 228.3 900 257C900 285.7 900 314.3 900 343C900 371.7 900 400.3 900 428.8C900 457.3 900 485.7 900 514.2C900 542.7 900 571.3 900 585.7L900 600Z" fill="#6600ff"></path></svg>