<svg id="visual" viewBox="0 0 960 540" width="960" height="540" xmlns="http://www.w3.org/2000/svg" xmlns:xlink="http://www.w3.org/1999/xlink" version="1.1"><rect x="0" y="0" width="960" height="540" fill="#121212"></rect><path d="M0 402L22.8 400.5C45.7 399 91.3 396 137 382.2C182.7 368.3 228.3 343.7 274 314.3C319.7 285 365.3 251 411.2 239.8C457 228.7 503 240.3 548.8 242.7C594.7 245 640.3 238 686 269.2C731.7 300.3 777.3 369.7 823 404.8C868.7 440 914.3 441 937.2 441.5L960 442L960 0L937.2 0C914.3 0 868.7 0 823 0C777.3 0 731.7 0 686 0C640.3 0 594.7 0 548.8 0C503 0 457 0 411.2 0C365.3 0 319.7 0 274 0C228.3 0 182.7 0 137 0C91.3 0 45.7 0 22.8 0L0 0Z" fill="#101010"></path><path d="M0 193L22.8 202.8C45.7 212.7 91.3 232.3 137 239.8C182.7 247.3 228.3 242.7 274 269.5C319.7 296.3 365.3 354.7 411.2 351.2C457 347.7 503 282.3 548.8 279.8C594.7 277.3 640.3 337.7 686 356C731.7 374.3 777.3 350.7 823 331.7C868.7 312.7 914.3 298.3 937.2 291.2L960 284L960 0L937.2 0C914.3 0 868.7 0 823 0C777.3 0 731.7 0 686 0C640.3 0 594.7 0 548.8 0C503 0 457 0 411.2 0C365.3 0 319.7 0 274 0C228.3 0 182.7 0 137 0C91.3 0 45.7 0 22.8 0L0 0Z" fill="#141414"></path><path d="M0 176L22.8 199.5C45.7 223 91.3 270 137 289.3C182.7 308.7 228.3 300.3 274 284.2C319.7 268 365.3 244 411.2 245.3C457 246.7 503 273.3 548.8 284.5C594.7 295.7 640.3 291.3 686 272.3C731.7 253.3 777.3 219.7 823 205.8C868.7 192 914.3 198 937.2 201L960 204L960 0L937.2 0C914.3 0 868.7 0 823 0C777.3 0 731.7 0 686 0C640.3 0 594.7 0 548.8 0C503 0 457 0 411.2 0C365.3 0 319.7 0 274 0C228.3 0 182.7 0 137 0C91.3 0 45.7 0 22.8 0L0 0Z" fill="#181818"></path><path d="M0 170L22.8 166.5C45.7 163 91.3 156 137 159C182.7 162 228.3 175 274 177.2C319.7 179.3 365.3 170.7 411.2 192.5C457 214.3 503 266.7 548.8 267.2C594.7 267.7 640.3 216.3 686 196.3C731.7 176.3 777.3 187.7 823 194.3C868.7 201 914.3 203 937.2 204L960 205L960 0L937.2 0C914.3 0 868.7 0 823 0C777.3 0 731.7 0 686 0C640.3 0 594.7 0 548.8 0C503 0 457 0 411.2 0C365.3 0 319.7 0 274 0C228.3 0 182.7 0 137 0C91.3 0 45.7 0 22.8 0L0 0Z" fill="#1b1b1b"></path><path d="M0 197L22.8 186C45.7 175 91.3 153 137 142.8C182.7 132.7 228.3 134.3 274 144C319.7 153.7 365.3 171.3 411.2 170.3C457 169.3 503 149.7 548.8 165.8C594.7 182 640.3 234 686 240.3C731.7 246.7 777.3 207.3 823 198.7C868.7 190 914.3 212 937.2 223L960 234L960 0L937.2 0C914.3 0 868.7 0 823 0C777.3 0 731.7 0 686 0C640.3 0 594.7 0 548.8 0C503 0 457 0 411.2 0C365.3 0 319.7 0 274 0C228.3 0 182.7 0 137 0C91.3 0 45.7 0 22.8 0L0 0Z" fill="#1e1e1e"></path><path d="M0 205L22.8 195.5C45.7 186 91.3 167 137 154.5C182.7 142 228.3 136 274 146.3C319.7 156.7 365.3 183.3 411.2 186.5C457 189.7 503 169.3 548.8 166.2C594.7 163 640.3 177 686 188.2C731.7 199.3 777.3 207.7 823 213.2C868.7 218.7 914.3 221.3 937.2 222.7L960 224L960 0L937.2 0C914.3 0 868.7 0 823 0C777.3 0 731.7 0 686 0C640.3 0 594.7 0 548.8 0C503 0 457 0 411.2 0C365.3 0 319.7 0 274 0C228.3 0 182.7 0 137 0C91.3 0 45.7 0 22.8 0L0 0Z" fill="#222222"></path><path d="M0 99L22.8 103.5C45.7 108 91.3 117 137 125C182.7 133 228.3 140 274 150.3C319.7 160.7 365.3 174.3 411.2 177.5C457 180.7 503 173.3 548.8 169.8C594.7 166.3 640.3 166.7 686 169C731.7 171.3 777.3 175.7 823 162C868.7 148.3 914.3 116.7 937.2 100.8L960 85L960 0L937.2 0C914.3 0 868.7 0 823 0C777.3 0 731.7 0 686 0C640.3 0 594.7 0 548.8 0C503 0 457 0 411.2 0C365.3 0 319.7 0 274 0C228.3 0 182.7 0 137 0C91.3 0 45.7 0 22.8 0L0 0Z" fill="#252525"></path><path d="M0 161L22.8 147.5C45.7 134 91.3 107 137 99C182.7 91 228.3 102 274 99.7C319.7 97.3 365.3 81.7 411.2 82.5C457 83.3 503 100.7 548.8 101.8C594.7 103 640.3 88 686 79.5C731.7 71 777.3 69 823 82.3C868.7 95.7 914.3 124.3 937.2 138.7L960 153L960 0L937.2 0C914.3 0 868.7 0 823 0C777.3 0 731.7 0 686 0C640.3 0 594.7 0 548.8 0C503 0 457 0 411.2 0C365.3 0 319.7 0 274 0C228.3 0 182.7 0 137 0C91.3 0 45.7 0 22.8 0L0 0Z" fill="#292929"></path><path d="M0 107L22.8 100.2C45.7 93.3 91.3 79.7 137 77.7C182.7 75.7 228.3 85.3 274 86.2C319.7 87 365.3 79 411.2 71.3C457 63.7 503 56.3 548.8 59.5C594.7 62.7 640.3 76.3 686 81.2C731.7 86 777.3 82 823 82.5C868.7 83 914.3 88 937.2 90.5L960 93L960 0L937.2 0C914.3 0 868.7 0 823 0C777.3 0 731.7 0 686 0C640.3 0 594.7 0 548.8 0C503 0 457 0 411.2 0C365.3 0 319.7 0 274 0C228.3 0 182.7 0 137 0C91.3 0 45.7 0 22.8 0L0 0Z" fill="#2c2c2c"></path><path d="M0 67L22.8 64.2C45.7 61.3 91.3 55.7 137 48.2C182.7 40.7 228.3 31.3 274 31.3C319.7 31.3 365.3 40.7 411.2 44.8C457 49 503 48 548.8 44.2C594.7 40.3 640.3 33.7 686 37C731.7 40.3 777.3 53.7 823 54.5C868.7 55.3 914.3 43.7 937.2 37.8L960 32L960 0L937.2 0C914.3 0 868.7 0 823 0C777.3 0 731.7 0 686 0C640.3 0 594.7 0 548.8 0C503 0 457 0 411.2 0C365.3 0 319.7 0 274 0C228.3 0 182.7 0 137 0C91.3 0 45.7 0 22.8 0L0 0Z" fill="#303030"></path></svg>