<svg id="visual" viewBox="0 0 960 540" width="960" height="540" xmlns="http://www.w3.org/2000/svg" xmlns:xlink="http://www.w3.org/1999/xlink" version="1.1"><rect x="0" y="0" width="960" height="540" fill="#001122"></rect><path d="M207 540L225.7 527.2C244.3 514.3 281.7 488.7 282.2 463C282.7 437.3 246.3 411.7 218.2 386C190 360.3 170 334.7 192.7 308.8C215.3 283 280.7 257 296.2 231.2C311.7 205.3 277.3 179.7 278.5 154C279.7 128.3 316.3 102.7 343.7 77C371 51.3 389 25.7 398 12.8L407 0L960 0L960 12.8C960 25.7 960 51.3 960 77C960 102.7 960 128.3 960 154C960 179.7 960 205.3 960 231.2C960 257 960 283 960 308.8C960 334.7 960 360.3 960 386C960 411.7 960 437.3 960 463C960 488.7 960 514.3 960 527.2L960 540Z" fill="#001122"></path><path d="M339 540L357.5 527.2C376 514.3 413 488.7 401.8 463C390.7 437.3 331.3 411.7 323.7 386C316 360.3 360 334.7 355.3 308.8C350.7 283 297.3 257 294.5 231.2C291.7 205.3 339.3 179.7 341.3 154C343.3 128.3 299.7 102.7 276.5 77C253.3 51.3 250.7 25.7 249.3 12.8L248 0L960 0L960 12.8C960 25.7 960 51.3 960 77C960 102.7 960 128.3 960 154C960 179.7 960 205.3 960 231.2C960 257 960 283 960 308.8C960 334.7 960 360.3 960 386C960 411.7 960 437.3 960 463C960 488.7 960 514.3 960 527.2L960 540Z" fill="#0c1c37"></path><path d="M502 540L488 527.2C474 514.3 446 488.7 423.3 463C400.7 437.3 383.3 411.7 373 386C362.7 360.3 359.3 334.7 393.3 308.8C427.3 283 498.7 257 532.8 231.2C567 205.3 564 179.7 533.3 154C502.7 128.3 444.3 102.7 417.8 77C391.3 51.3 396.7 25.7 399.3 12.8L402 0L960 0L960 12.8C960 25.7 960 51.3 960 77C960 102.7 960 128.3 960 154C960 179.7 960 205.3 960 231.2C960 257 960 283 960 308.8C960 334.7 960 360.3 960 386C960 411.7 960 437.3 960 463C960 488.7 960 514.3 960 527.2L960 540Z" fill="#22244c"></path><path d="M570 540L568.3 527.2C566.7 514.3 563.3 488.7 554.3 463C545.3 437.3 530.7 411.7 519.3 386C508 360.3 500 334.7 508.5 308.8C517 283 542 257 537.2 231.2C532.3 205.3 497.7 179.7 486.5 154C475.3 128.3 487.7 102.7 507.3 77C527 51.3 554 25.7 567.5 12.8L581 0L960 0L960 12.8C960 25.7 960 51.3 960 77C960 102.7 960 128.3 960 154C960 179.7 960 205.3 960 231.2C960 257 960 283 960 308.8C960 334.7 960 360.3 960 386C960 411.7 960 437.3 960 463C960 488.7 960 514.3 960 527.2L960 540Z" fill="#3f295d"></path><path d="M593 540L597.3 527.2C601.7 514.3 610.3 488.7 627.2 463C644 437.3 669 411.7 672.5 386C676 360.3 658 334.7 642.2 308.8C626.3 283 612.7 257 620.3 231.2C628 205.3 657 179.7 665.7 154C674.3 128.3 662.7 102.7 651.2 77C639.7 51.3 628.3 25.7 622.7 12.8L617 0L960 0L960 12.8C960 25.7 960 51.3 960 77C960 102.7 960 128.3 960 154C960 179.7 960 205.3 960 231.2C960 257 960 283 960 308.8C960 334.7 960 360.3 960 386C960 411.7 960 437.3 960 463C960 488.7 960 514.3 960 527.2L960 540Z" fill="#602c69"></path><path d="M720 540L716.2 527.2C712.3 514.3 704.7 488.7 688 463C671.3 437.3 645.7 411.7 654.3 386C663 360.3 706 334.7 717.3 308.8C728.7 283 708.3 257 703.3 231.2C698.3 205.3 708.7 179.7 722 154C735.3 128.3 751.7 102.7 736.3 77C721 51.3 674 25.7 650.5 12.8L627 0L960 0L960 12.8C960 25.7 960 51.3 960 77C960 102.7 960 128.3 960 154C960 179.7 960 205.3 960 231.2C960 257 960 283 960 308.8C960 334.7 960 360.3 960 386C960 411.7 960 437.3 960 463C960 488.7 960 514.3 960 527.2L960 540Z" fill="#832a70"></path><path d="M796 540L782.2 527.2C768.3 514.3 740.7 488.7 731.7 463C722.7 437.3 732.3 411.7 743 386C753.7 360.3 765.3 334.7 760.5 308.8C755.7 283 734.3 257 730 231.2C725.7 205.3 738.3 179.7 750.5 154C762.7 128.3 774.3 102.7 773.8 77C773.3 51.3 760.7 25.7 754.3 12.8L748 0L960 0L960 12.8C960 25.7 960 51.3 960 77C960 102.7 960 128.3 960 154C960 179.7 960 205.3 960 231.2C960 257 960 283 960 308.8C960 334.7 960 360.3 960 386C960 411.7 960 437.3 960 463C960 488.7 960 514.3 960 527.2L960 540Z" fill="#a5266f"></path><path d="M820 540L834.5 527.2C849 514.3 878 488.7 877.5 463C877 437.3 847 411.7 831.2 386C815.3 360.3 813.7 334.7 824.5 308.8C835.3 283 858.7 257 872.7 231.2C886.7 205.3 891.3 179.7 886.7 154C882 128.3 868 102.7 866.2 77C864.3 51.3 874.7 25.7 879.8 12.8L885 0L960 0L960 12.8C960 25.7 960 51.3 960 77C960 102.7 960 128.3 960 154C960 179.7 960 205.3 960 231.2C960 257 960 283 960 308.8C960 334.7 960 360.3 960 386C960 411.7 960 437.3 960 463C960 488.7 960 514.3 960 527.2L960 540Z" fill="#c62368"></path></svg>