<svg id="visual" viewBox="0 0 900 600" width="900" height="600" xmlns="http://www.w3.org/2000/svg" xmlns:xlink="http://www.w3.org/1999/xlink" version="1.1"><path d="M0 49L7.5 49C15 49 30 49 45 45C60 41 75 33 90 30C105 27 120 29 135 33C150 37 165 43 180 45C195 47 210 45 225 43C240 41 255 39 270 41C285 43 300 49 315 53C330 57 345 59 360 59C375 59 390 57 405 54C420 51 435 47 450 46C465 45 480 47 495 47C510 47 525 45 540 44C555 43 570 43 585 44C600 45 615 47 630 51C645 55 660 61 675 63C690 65 705 63 720 58C735 53 750 45 765 40C780 35 795 33 810 33C825 33 840 35 855 39C870 43 885 49 892.5 52L900 55L900 0L892.5 0C885 0 870 0 855 0C840 0 825 0 810 0C795 0 780 0 765 0C750 0 735 0 720 0C705 0 690 0 675 0C660 0 645 0 630 0C615 0 600 0 585 0C570 0 555 0 540 0C525 0 510 0 495 0C480 0 465 0 450 0C435 0 420 0 405 0C390 0 375 0 360 0C345 0 330 0 315 0C300 0 285 0 270 0C255 0 240 0 225 0C210 0 195 0 180 0C165 0 150 0 135 0C120 0 105 0 90 0C75 0 60 0 45 0C30 0 15 0 7.5 0L0 0Z" fill="#eb0062"></path><path d="M0 157L7.5 163C15 169 30 181 45 170C60 159 75 125 90 111C105 97 120 103 135 111C150 119 165 129 180 137C195 145 210 151 225 159C240 167 255 177 270 183C285 189 300 191 315 188C330 185 345 177 360 173C375 169 390 169 405 166C420 163 435 157 450 153C465 149 480 147 495 156C510 165 525 185 540 200C555 215 570 225 585 214C600 203 615 171 630 156C645 141 660 143 675 149C690 155 705 165 720 165C735 165 750 155 765 151C780 147 795 149 810 147C825 145 840 139 855 140C870 141 885 149 892.5 153L900 157L900 53L892.5 50C885 47 870 41 855 37C840 33 825 31 810 31C795 31 780 33 765 38C750 43 735 51 720 56C705 61 690 63 675 61C660 59 645 53 630 49C615 45 600 43 585 42C570 41 555 41 540 42C525 43 510 45 495 45C480 45 465 43 450 44C435 45 420 49 405 52C390 55 375 57 360 57C345 57 330 55 315 51C300 47 285 41 270 39C255 37 240 39 225 41C210 43 195 45 180 43C165 41 150 35 135 31C120 27 105 25 90 28C75 31 60 39 45 43C30 47 15 47 7.5 47L0 47Z" fill="#d5046c"></path><path d="M0 181L7.5 188C15 195 30 209 45 198C60 187 75 151 90 135C105 119 120 123 135 131C150 139 165 151 180 161C195 171 210 179 225 186C240 193 255 199 270 205C285 211 300 217 315 214C330 211 345 199 360 195C375 191 390 195 405 192C420 189 435 179 450 176C465 173 480 177 495 188C510 199 525 217 540 230C555 243 570 251 585 238C600 225 615 191 630 175C645 159 660 161 675 167C690 173 705 183 720 183C735 183 750 173 765 169C780 165 795 167 810 166C825 165 840 161 855 162C870 163 885 169 892.5 172L900 175L900 155L892.5 151C885 147 870 139 855 138C840 137 825 143 810 145C795 147 780 145 765 149C750 153 735 163 720 163C705 163 690 153 675 147C660 141 645 139 630 154C615 169 600 201 585 212C570 223 555 213 540 198C525 183 510 163 495 154C480 145 465 147 450 151C435 155 420 161 405 164C390 167 375 167 360 171C345 175 330 183 315 186C300 189 285 187 270 181C255 175 240 165 225 157C210 149 195 143 180 135C165 127 150 117 135 109C120 101 105 95 90 109C75 123 60 157 45 168C30 179 15 167 7.5 161L0 155Z" fill="#bc1373"></path><path d="M0 229L7.5 232C15 235 30 241 45 231C60 221 75 195 90 182C105 169 120 169 135 174C150 179 165 189 180 197C195 205 210 211 225 220C240 229 255 241 270 249C285 257 300 261 315 257C330 253 345 241 360 234C375 227 390 225 405 219C420 213 435 203 450 201C465 199 480 205 495 216C510 227 525 243 540 257C555 271 570 283 585 274C600 265 615 235 630 219C645 203 660 201 675 208C690 215 705 231 720 229C735 227 750 207 765 202C780 197 795 207 810 208C825 209 840 201 855 198C870 195 885 197 892.5 198L900 199L900 173L892.5 170C885 167 870 161 855 160C840 159 825 163 810 164C795 165 780 163 765 167C750 171 735 181 720 181C705 181 690 171 675 165C660 159 645 157 630 173C615 189 600 223 585 236C570 249 555 241 540 228C525 215 510 197 495 186C480 175 465 171 450 174C435 177 420 187 405 190C390 193 375 189 360 193C345 197 330 209 315 212C300 215 285 209 270 203C255 197 240 191 225 184C210 177 195 169 180 159C165 149 150 137 135 129C120 121 105 117 90 133C75 149 60 185 45 196C30 207 15 193 7.5 186L0 179Z" fill="#a21e77"></path><path d="M0 271L7.5 273C15 275 30 279 45 265C60 251 75 219 90 207C105 195 120 203 135 211C150 219 165 227 180 233C195 239 210 243 225 249C240 255 255 263 270 273C285 283 300 295 315 295C330 295 345 283 360 276C375 269 390 267 405 258C420 249 435 233 450 231C465 229 480 241 495 253C510 265 525 277 540 291C555 305 570 321 585 314C600 307 615 277 630 260C645 243 660 239 675 246C690 253 705 271 720 268C735 265 750 241 765 237C780 233 795 249 810 252C825 255 840 245 855 238C870 231 885 227 892.5 225L900 223L900 197L892.5 196C885 195 870 193 855 196C840 199 825 207 810 206C795 205 780 195 765 200C750 205 735 225 720 227C705 229 690 213 675 206C660 199 645 201 630 217C615 233 600 263 585 272C570 281 555 269 540 255C525 241 510 225 495 214C480 203 465 197 450 199C435 201 420 211 405 217C390 223 375 225 360 232C345 239 330 251 315 255C300 259 285 255 270 247C255 239 240 227 225 218C210 209 195 203 180 195C165 187 150 177 135 172C120 167 105 167 90 180C75 193 60 219 45 229C30 239 15 233 7.5 230L0 227Z" fill="#872576"></path><path d="M0 301L7.5 303C15 305 30 309 45 294C60 279 75 245 90 231C105 217 120 223 135 230C150 237 165 245 180 252C195 259 210 265 225 274C240 283 255 295 270 307C285 319 300 331 315 331C330 331 345 319 360 310C375 301 390 295 405 283C420 271 435 253 450 252C465 251 480 267 495 279C510 291 525 299 540 311C555 323 570 339 585 334C600 329 615 303 630 288C645 273 660 269 675 277C690 285 705 305 720 301C735 297 750 269 765 264C780 259 795 277 810 279C825 281 840 267 855 261C870 255 885 257 892.5 258L900 259L900 221L892.5 223C885 225 870 229 855 236C840 243 825 253 810 250C795 247 780 231 765 235C750 239 735 263 720 266C705 269 690 251 675 244C660 237 645 241 630 258C615 275 600 305 585 312C570 319 555 303 540 289C525 275 510 263 495 251C480 239 465 227 450 229C435 231 420 247 405 256C390 265 375 267 360 274C345 281 330 293 315 293C300 293 285 281 270 271C255 261 240 253 225 247C210 241 195 237 180 231C165 225 150 217 135 209C120 201 105 193 90 205C75 217 60 249 45 263C30 277 15 273 7.5 271L0 269Z" fill="#6c2972"></path><path d="M0 331L7.5 330C15 329 30 327 45 312C60 297 75 269 90 256C105 243 120 245 135 250C150 255 165 263 180 271C195 279 210 287 225 296C240 305 255 315 270 328C285 341 300 357 315 359C330 361 345 349 360 340C375 331 390 325 405 311C420 297 435 275 450 271C465 267 480 281 495 293C510 305 525 315 540 328C555 341 570 357 585 354C600 351 615 329 630 314C645 299 660 291 675 296C690 301 705 319 720 314C735 309 750 281 765 278C780 275 795 297 810 302C825 307 840 295 855 288C870 281 885 279 892.5 278L900 277L900 257L892.5 256C885 255 870 253 855 259C840 265 825 279 810 277C795 275 780 257 765 262C750 267 735 295 720 299C705 303 690 283 675 275C660 267 645 271 630 286C615 301 600 327 585 332C570 337 555 321 540 309C525 297 510 289 495 277C480 265 465 249 450 250C435 251 420 269 405 281C390 293 375 299 360 308C345 317 330 329 315 329C300 329 285 317 270 305C255 293 240 281 225 272C210 263 195 257 180 250C165 243 150 235 135 228C120 221 105 215 90 229C75 243 60 277 45 292C30 307 15 303 7.5 301L0 299Z" fill="#522a6b"></path><path d="M0 463L7.5 455C15 447 30 431 45 417C60 403 75 391 90 391C105 391 120 403 135 409C150 415 165 415 180 417C195 419 210 423 225 421C240 419 255 411 270 417C285 423 300 443 315 448C330 453 345 443 360 438C375 433 390 433 405 432C420 431 435 429 450 422C465 415 480 403 495 402C510 401 525 411 540 424C555 437 570 453 585 452C600 451 615 433 630 428C645 423 660 431 675 435C690 439 705 439 720 433C735 427 750 415 765 415C780 415 795 427 810 430C825 433 840 427 855 426C870 425 885 429 892.5 431L900 433L900 275L892.5 276C885 277 870 279 855 286C840 293 825 305 810 300C795 295 780 273 765 276C750 279 735 307 720 312C705 317 690 299 675 294C660 289 645 297 630 312C615 327 600 349 585 352C570 355 555 339 540 326C525 313 510 303 495 291C480 279 465 265 450 269C435 273 420 295 405 309C390 323 375 329 360 338C345 347 330 359 315 357C300 355 285 339 270 326C255 313 240 303 225 294C210 285 195 277 180 269C165 261 150 253 135 248C120 243 105 241 90 254C75 267 60 295 45 310C30 325 15 327 7.5 328L0 329Z" fill="#3a2960"></path><path d="M0 475L7.5 468C15 461 30 447 45 435C60 423 75 413 90 414C105 415 120 427 135 431C150 435 165 431 180 433C195 435 210 443 225 442C240 441 255 431 270 435C285 439 300 457 315 462C330 467 345 459 360 457C375 455 390 459 405 457C420 455 435 447 450 439C465 431 480 423 495 425C510 427 525 439 540 452C555 465 570 479 585 475C600 471 615 449 630 445C645 441 660 455 675 460C690 465 705 461 720 454C735 447 750 437 765 436C780 435 795 443 810 447C825 451 840 451 855 453C870 455 885 459 892.5 461L900 463L900 431L892.5 429C885 427 870 423 855 424C840 425 825 431 810 428C795 425 780 413 765 413C750 413 735 425 720 431C705 437 690 437 675 433C660 429 645 421 630 426C615 431 600 449 585 450C570 451 555 435 540 422C525 409 510 399 495 400C480 401 465 413 450 420C435 427 420 429 405 430C390 431 375 431 360 436C345 441 330 451 315 446C300 441 285 421 270 415C255 409 240 417 225 419C210 421 195 417 180 415C165 413 150 413 135 407C120 401 105 389 90 389C75 389 60 401 45 415C30 429 15 445 7.5 453L0 461Z" fill="#242552"></path><path d="M0 511L7.5 510C15 509 30 507 45 502C60 497 75 489 90 488C105 487 120 493 135 494C150 495 165 491 180 493C195 495 210 503 225 501C240 499 255 487 270 492C285 497 300 519 315 525C330 531 345 521 360 519C375 517 390 523 405 520C420 517 435 505 450 498C465 491 480 489 495 489C510 489 525 491 540 499C555 507 570 521 585 522C600 523 615 511 630 505C645 499 660 499 675 497C690 495 705 491 720 486C735 481 750 475 765 480C780 485 795 501 810 504C825 507 840 497 855 497C870 497 885 507 892.5 512L900 517L900 461L892.5 459C885 457 870 453 855 451C840 449 825 449 810 445C795 441 780 433 765 434C750 435 735 445 720 452C705 459 690 463 675 458C660 453 645 439 630 443C615 447 600 469 585 473C570 477 555 463 540 450C525 437 510 425 495 423C480 421 465 429 450 437C435 445 420 453 405 455C390 457 375 453 360 455C345 457 330 465 315 460C300 455 285 437 270 433C255 429 240 439 225 440C210 441 195 433 180 431C165 429 150 433 135 429C120 425 105 413 90 412C75 411 60 421 45 433C30 445 15 459 7.5 466L0 473Z" fill="#122043"></path><path d="M0 553L7.5 549C15 545 30 537 45 532C60 527 75 525 90 523C105 521 120 519 135 519C150 519 165 521 180 523C195 525 210 527 225 526C240 525 255 521 270 527C285 533 300 549 315 554C330 559 345 553 360 552C375 551 390 555 405 549C420 543 435 527 450 521C465 515 480 519 495 522C510 525 525 527 540 532C555 537 570 545 585 545C600 545 615 537 630 531C645 525 660 521 675 519C690 517 705 517 720 516C735 515 750 513 765 516C780 519 795 527 810 528C825 529 840 523 855 527C870 531 885 545 892.5 552L900 559L900 515L892.5 510C885 505 870 495 855 495C840 495 825 505 810 502C795 499 780 483 765 478C750 473 735 479 720 484C705 489 690 493 675 495C660 497 645 497 630 503C615 509 600 521 585 520C570 519 555 505 540 497C525 489 510 487 495 487C480 487 465 489 450 496C435 503 420 515 405 518C390 521 375 515 360 517C345 519 330 529 315 523C300 517 285 495 270 490C255 485 240 497 225 499C210 501 195 493 180 491C165 489 150 493 135 492C120 491 105 485 90 486C75 487 60 495 45 500C30 505 15 507 7.5 508L0 509Z" fill="#051933"></path><path d="M0 601L7.5 601C15 601 30 601 45 601C60 601 75 601 90 601C105 601 120 601 135 601C150 601 165 601 180 601C195 601 210 601 225 601C240 601 255 601 270 601C285 601 300 601 315 601C330 601 345 601 360 601C375 601 390 601 405 601C420 601 435 601 450 601C465 601 480 601 495 601C510 601 525 601 540 601C555 601 570 601 585 601C600 601 615 601 630 601C645 601 660 601 675 601C690 601 705 601 720 601C735 601 750 601 765 601C780 601 795 601 810 601C825 601 840 601 855 601C870 601 885 601 892.5 601L900 601L900 557L892.5 550C885 543 870 529 855 525C840 521 825 527 810 526C795 525 780 517 765 514C750 511 735 513 720 514C705 515 690 515 675 517C660 519 645 523 630 529C615 535 600 543 585 543C570 543 555 535 540 530C525 525 510 523 495 520C480 517 465 513 450 519C435 525 420 541 405 547C390 553 375 549 360 550C345 551 330 557 315 552C300 547 285 531 270 525C255 519 240 523 225 524C210 525 195 523 180 521C165 519 150 517 135 517C120 517 105 519 90 521C75 523 60 525 45 530C30 535 15 543 7.5 547L0 551Z" fill="#001122"></path></svg>