<svg id="visual" viewBox="0 0 960 540" width="960" height="540" xmlns="http://www.w3.org/2000/svg" xmlns:xlink="http://www.w3.org/1999/xlink" version="1.1"><path d="M0 28L12.3 26.2C24.7 24.3 49.3 20.7 74 20.7C98.7 20.7 123.3 24.3 148 27C172.7 29.7 197.3 31.3 221.8 33.2C246.3 35 270.7 37 295.2 34.3C319.7 31.7 344.3 24.3 369 23.3C393.7 22.3 418.3 27.7 443 28.7C467.7 29.7 492.3 26.3 517 26.3C541.7 26.3 566.3 29.7 591 33.2C615.7 36.7 640.3 40.3 664.8 39.5C689.3 38.7 713.7 33.3 738.2 33.3C762.7 33.3 787.3 38.7 812 38.7C836.7 38.7 861.3 33.3 886 30.7C910.7 28 935.3 28 947.7 28L960 28L960 0L947.7 0C935.3 0 910.7 0 886 0C861.3 0 836.7 0 812 0C787.3 0 762.7 0 738.2 0C713.7 0 689.3 0 664.8 0C640.3 0 615.7 0 591 0C566.3 0 541.7 0 517 0C492.3 0 467.7 0 443 0C418.3 0 393.7 0 369 0C344.3 0 319.7 0 295.2 0C270.7 0 246.3 0 221.8 0C197.3 0 172.7 0 148 0C123.3 0 98.7 0 74 0C49.3 0 24.7 0 12.3 0L0 0Z" fill="#252525"></path><path d="M0 98L12.3 103.5C24.7 109 49.3 120 74 121C98.7 122 123.3 113 148 109.3C172.7 105.7 197.3 107.3 221.8 110.8C246.3 114.3 270.7 119.7 295.2 116C319.7 112.3 344.3 99.7 369 98.8C393.7 98 418.3 109 443 108.2C467.7 107.3 492.3 94.7 517 93.7C541.7 92.7 566.3 103.3 591 104.2C615.7 105 640.3 96 664.8 90.7C689.3 85.3 713.7 83.7 738.2 84.7C762.7 85.7 787.3 89.3 812 89.3C836.7 89.3 861.3 85.7 886 85.7C910.7 85.7 935.3 89.3 947.7 91.2L960 93L960 26L947.7 26C935.3 26 910.7 26 886 28.7C861.3 31.3 836.7 36.7 812 36.7C787.3 36.7 762.7 31.3 738.2 31.3C713.7 31.3 689.3 36.7 664.8 37.5C640.3 38.3 615.7 34.7 591 31.2C566.3 27.7 541.7 24.3 517 24.3C492.3 24.3 467.7 27.7 443 26.7C418.3 25.7 393.7 20.3 369 21.3C344.3 22.3 319.7 29.7 295.2 32.3C270.7 35 246.3 33 221.8 31.2C197.3 29.3 172.7 27.7 148 25C123.3 22.3 98.7 18.7 74 18.7C49.3 18.7 24.7 22.3 12.3 24.2L0 26Z" fill="#232323"></path><path d="M0 131L12.3 133.7C24.7 136.3 49.3 141.7 74 145.2C98.7 148.7 123.3 150.3 148 148.5C172.7 146.7 197.3 141.3 221.8 143.2C246.3 145 270.7 154 295.2 150.3C319.7 146.7 344.3 130.3 369 128.5C393.7 126.7 418.3 139.3 443 137.7C467.7 136 492.3 120 517 118.2C541.7 116.3 566.3 128.7 591 132.2C615.7 135.7 640.3 130.3 664.8 126.8C689.3 123.3 713.7 121.7 738.2 119C762.7 116.3 787.3 112.7 812 110.8C836.7 109 861.3 109 886 110.8C910.7 112.7 935.3 116.3 947.7 118.2L960 120L960 91L947.7 89.2C935.3 87.3 910.7 83.7 886 83.7C861.3 83.7 836.7 87.3 812 87.3C787.3 87.3 762.7 83.7 738.2 82.7C713.7 81.7 689.3 83.3 664.8 88.7C640.3 94 615.7 103 591 102.2C566.3 101.3 541.7 90.7 517 91.7C492.3 92.7 467.7 105.3 443 106.2C418.3 107 393.7 96 369 96.8C344.3 97.7 319.7 110.3 295.2 114C270.7 117.7 246.3 112.3 221.8 108.8C197.3 105.3 172.7 103.7 148 107.3C123.3 111 98.7 120 74 119C49.3 118 24.7 107 12.3 101.5L0 96Z" fill="#202020"></path><path d="M0 174L12.3 174.8C24.7 175.7 49.3 177.3 74 178.2C98.7 179 123.3 179 148 174.5C172.7 170 197.3 161 221.8 162C246.3 163 270.7 174 295.2 173.2C319.7 172.3 344.3 159.7 369 161.3C393.7 163 418.3 179 443 175.3C467.7 171.7 492.3 148.3 517 145.7C541.7 143 566.3 161 591 168.2C615.7 175.3 640.3 171.7 664.8 164.5C689.3 157.3 713.7 146.7 738.2 139.5C762.7 132.3 787.3 128.7 812 130.5C836.7 132.3 861.3 139.7 886 142.3C910.7 145 935.3 143 947.7 142L960 141L960 118L947.7 116.2C935.3 114.3 910.7 110.7 886 108.8C861.3 107 836.7 107 812 108.8C787.3 110.7 762.7 114.3 738.2 117C713.7 119.7 689.3 121.3 664.8 124.8C640.3 128.3 615.7 133.7 591 130.2C566.3 126.7 541.7 114.3 517 116.2C492.3 118 467.7 134 443 135.7C418.3 137.3 393.7 124.7 369 126.5C344.3 128.3 319.7 144.7 295.2 148.3C270.7 152 246.3 143 221.8 141.2C197.3 139.3 172.7 144.7 148 146.5C123.3 148.3 98.7 146.7 74 143.2C49.3 139.7 24.7 134.3 12.3 131.7L0 129Z" fill="#1e1e1e"></path><path d="M0 309L12.3 296.3C24.7 283.7 49.3 258.3 74 249.3C98.7 240.3 123.3 247.7 148 245.8C172.7 244 197.3 233 221.8 236.5C246.3 240 270.7 258 295.2 266.2C319.7 274.3 344.3 272.7 369 280C393.7 287.3 418.3 303.7 443 306.3C467.7 309 492.3 298 517 288C541.7 278 566.3 269 591 261C615.7 253 640.3 246 664.8 255C689.3 264 713.7 289 738.2 297C762.7 305 787.3 296 812 287C836.7 278 861.3 269 886 260C910.7 251 935.3 242 947.7 237.5L960 233L960 139L947.7 140C935.3 141 910.7 143 886 140.3C861.3 137.7 836.7 130.3 812 128.5C787.3 126.7 762.7 130.3 738.2 137.5C713.7 144.7 689.3 155.3 664.8 162.5C640.3 169.7 615.7 173.3 591 166.2C566.3 159 541.7 141 517 143.7C492.3 146.3 467.7 169.7 443 173.3C418.3 177 393.7 161 369 159.3C344.3 157.7 319.7 170.3 295.2 171.2C270.7 172 246.3 161 221.8 160C197.3 159 172.7 168 148 172.5C123.3 177 98.7 177 74 176.2C49.3 175.3 24.7 173.7 12.3 172.8L0 172Z" fill="#1c1c1c"></path><path d="M0 384L12.3 366C24.7 348 49.3 312 74 298.5C98.7 285 123.3 294 148 293.2C172.7 292.3 197.3 281.7 221.8 284.5C246.3 287.3 270.7 303.7 295.2 318C319.7 332.3 344.3 344.7 369 358.2C393.7 371.7 418.3 386.3 443 380.2C467.7 374 492.3 347 517 334.3C541.7 321.7 566.3 323.3 591 315.2C615.7 307 640.3 289 664.8 296.2C689.3 303.3 713.7 335.7 738.2 348.3C762.7 361 787.3 354 812 341.5C836.7 329 861.3 311 886 305.5C910.7 300 935.3 307 947.7 310.5L960 314L960 231L947.7 235.5C935.3 240 910.7 249 886 258C861.3 267 836.7 276 812 285C787.3 294 762.7 303 738.2 295C713.7 287 689.3 262 664.8 253C640.3 244 615.7 251 591 259C566.3 267 541.7 276 517 286C492.3 296 467.7 307 443 304.3C418.3 301.7 393.7 285.3 369 278C344.3 270.7 319.7 272.3 295.2 264.2C270.7 256 246.3 238 221.8 234.5C197.3 231 172.7 242 148 243.8C123.3 245.7 98.7 238.3 74 247.3C49.3 256.3 24.7 281.7 12.3 294.3L0 307Z" fill="#1a1a1a"></path><path d="M0 422L12.3 405C24.7 388 49.3 354 74 343.2C98.7 332.3 123.3 344.7 148 344.7C172.7 344.7 197.3 332.3 221.8 331.5C246.3 330.7 270.7 341.3 295.2 352C319.7 362.7 344.3 373.3 369 385C393.7 396.7 418.3 409.3 443 404.8C467.7 400.3 492.3 378.7 517 368.8C541.7 359 566.3 361 591 355.7C615.7 350.3 640.3 337.7 664.8 344C689.3 350.3 713.7 375.7 738.2 384.7C762.7 393.7 787.3 386.3 812 377.3C836.7 368.3 861.3 357.7 886 354C910.7 350.3 935.3 353.7 947.7 355.3L960 357L960 312L947.7 308.5C935.3 305 910.7 298 886 303.5C861.3 309 836.7 327 812 339.5C787.3 352 762.7 359 738.2 346.3C713.7 333.7 689.3 301.3 664.8 294.2C640.3 287 615.7 305 591 313.2C566.3 321.3 541.7 319.7 517 332.3C492.3 345 467.7 372 443 378.2C418.3 384.3 393.7 369.7 369 356.2C344.3 342.7 319.7 330.3 295.2 316C270.7 301.7 246.3 285.3 221.8 282.5C197.3 279.7 172.7 290.3 148 291.2C123.3 292 98.7 283 74 296.5C49.3 310 24.7 346 12.3 364L0 382Z" fill="#171717"></path><path d="M0 503L12.3 499.5C24.7 496 49.3 489 74 490.8C98.7 492.7 123.3 503.3 148 509.5C172.7 515.7 197.3 517.3 221.8 511C246.3 504.7 270.7 490.3 295.2 484.2C319.7 478 344.3 480 369 485.5C393.7 491 418.3 500 443 503.5C467.7 507 492.3 505 517 505C541.7 505 566.3 507 591 507C615.7 507 640.3 505 664.8 498.7C689.3 492.3 713.7 481.7 738.2 478.2C762.7 474.7 787.3 478.3 812 483.7C836.7 489 861.3 496 886 498.7C910.7 501.3 935.3 499.7 947.7 498.8L960 498L960 355L947.7 353.3C935.3 351.7 910.7 348.3 886 352C861.3 355.7 836.7 366.3 812 375.3C787.3 384.3 762.7 391.7 738.2 382.7C713.7 373.7 689.3 348.3 664.8 342C640.3 335.7 615.7 348.3 591 353.7C566.3 359 541.7 357 517 366.8C492.3 376.7 467.7 398.3 443 402.8C418.3 407.3 393.7 394.7 369 383C344.3 371.3 319.7 360.7 295.2 350C270.7 339.3 246.3 328.7 221.8 329.5C197.3 330.3 172.7 342.7 148 342.7C123.3 342.7 98.7 330.3 74 341.2C49.3 352 24.7 386 12.3 403L0 420Z" fill="#151515"></path><path d="M0 541L12.3 541C24.7 541 49.3 541 74 541C98.7 541 123.3 541 148 541C172.7 541 197.3 541 221.8 541C246.3 541 270.7 541 295.2 541C319.7 541 344.3 541 369 541C393.7 541 418.3 541 443 541C467.7 541 492.3 541 517 541C541.7 541 566.3 541 591 541C615.7 541 640.3 541 664.8 541C689.3 541 713.7 541 738.2 541C762.7 541 787.3 541 812 541C836.7 541 861.3 541 886 541C910.7 541 935.3 541 947.7 541L960 541L960 496L947.7 496.8C935.3 497.7 910.7 499.3 886 496.7C861.3 494 836.7 487 812 481.7C787.3 476.3 762.7 472.7 738.2 476.2C713.7 479.7 689.3 490.3 664.8 496.7C640.3 503 615.7 505 591 505C566.3 505 541.7 503 517 503C492.3 503 467.7 505 443 501.5C418.3 498 393.7 489 369 483.5C344.3 478 319.7 476 295.2 482.2C270.7 488.3 246.3 502.7 221.8 509C197.3 515.3 172.7 513.7 148 507.5C123.3 501.3 98.7 490.7 74 488.8C49.3 487 24.7 494 12.3 497.5L0 501Z" fill="#121212"></path></svg>