<svg id="visual" viewBox="0 0 675 900" width="675" height="900" xmlns="http://www.w3.org/2000/svg" xmlns:xlink="http://www.w3.org/1999/xlink" version="1.1"><path d="M0 91L5.7 89.5C11.3 88 22.7 85 34 85C45.3 85 56.7 88 67.8 89.5C79 91 90 91 101.2 92.5C112.3 94 123.7 97 135 95.5C146.3 94 157.7 88 169 83.5C180.3 79 191.7 76 202.8 77.5C214 79 225 85 236.2 85C247.3 85 258.7 79 270 76C281.3 73 292.7 73 304 74.5C315.3 76 326.7 79 337.8 82C349 85 360 88 371.2 86.5C382.3 85 393.7 79 405 77.5C416.3 76 427.7 79 438.8 79C450 79 461 76 472.2 74.5C483.3 73 494.7 73 506 73C517.3 73 528.7 73 540 71.5C551.3 70 562.7 67 574 68.5C585.3 70 596.7 76 607.8 79C619 82 630 82 641.2 83.5C652.3 85 663.7 88 669.3 89.5L675 91L675 0L669.3 0C663.7 0 652.3 0 641.2 0C630 0 619 0 607.8 0C596.7 0 585.3 0 574 0C562.7 0 551.3 0 540 0C528.7 0 517.3 0 506 0C494.7 0 483.3 0 472.2 0C461 0 450 0 438.8 0C427.7 0 416.3 0 405 0C393.7 0 382.3 0 371.2 0C360 0 349 0 337.8 0C326.7 0 315.3 0 304 0C292.7 0 281.3 0 270 0C258.7 0 247.3 0 236.2 0C225 0 214 0 202.8 0C191.7 0 180.3 0 169 0C157.7 0 146.3 0 135 0C123.7 0 112.3 0 101.2 0C90 0 79 0 67.8 0C56.7 0 45.3 0 34 0C22.7 0 11.3 0 5.7 0L0 0Z" fill="#121212"></path><path d="M0 145L5.7 143.5C11.3 142 22.7 139 34 137.5C45.3 136 56.7 136 67.8 139C79 142 90 148 101.2 152.5C112.3 157 123.7 160 135 155.5C146.3 151 157.7 139 169 134.5C180.3 130 191.7 133 202.8 137.5C214 142 225 148 236.2 148C247.3 148 258.7 142 270 137.5C281.3 133 292.7 130 304 130C315.3 130 326.7 133 337.8 134.5C349 136 360 136 371.2 133C382.3 130 393.7 124 405 122.5C416.3 121 427.7 124 438.8 125.5C450 127 461 127 472.2 128.5C483.3 130 494.7 133 506 134.5C517.3 136 528.7 136 540 134.5C551.3 133 562.7 130 574 128.5C585.3 127 596.7 127 607.8 128.5C619 130 630 133 641.2 134.5C652.3 136 663.7 136 669.3 136L675 136L675 89L669.3 87.5C663.7 86 652.3 83 641.2 81.5C630 80 619 80 607.8 77C596.7 74 585.3 68 574 66.5C562.7 65 551.3 68 540 69.5C528.7 71 517.3 71 506 71C494.7 71 483.3 71 472.2 72.5C461 74 450 77 438.8 77C427.7 77 416.3 74 405 75.5C393.7 77 382.3 83 371.2 84.5C360 86 349 83 337.8 80C326.7 77 315.3 74 304 72.5C292.7 71 281.3 71 270 74C258.7 77 247.3 83 236.2 83C225 83 214 77 202.8 75.5C191.7 74 180.3 77 169 81.5C157.7 86 146.3 92 135 93.5C123.7 95 112.3 92 101.2 90.5C90 89 79 89 67.8 87.5C56.7 86 45.3 83 34 83C22.7 83 11.3 86 5.7 87.5L0 89Z" fill="#141414"></path><path d="M0 226L5.7 224.5C11.3 223 22.7 220 34 214C45.3 208 56.7 199 67.8 200.5C79 202 90 214 101.2 218.5C112.3 223 123.7 220 135 214C146.3 208 157.7 199 169 197.5C180.3 196 191.7 202 202.8 208C214 214 225 220 236.2 217C247.3 214 258.7 202 270 197.5C281.3 193 292.7 196 304 197.5C315.3 199 326.7 199 337.8 202C349 205 360 211 371.2 211C382.3 211 393.7 205 405 203.5C416.3 202 427.7 205 438.8 202C450 199 461 190 472.2 187C483.3 184 494.7 187 506 190C517.3 193 528.7 196 540 197.5C551.3 199 562.7 199 574 196C585.3 193 596.7 187 607.8 185.5C619 184 630 187 641.2 193C652.3 199 663.7 208 669.3 212.5L675 217L675 134L669.3 134C663.7 134 652.3 134 641.2 132.5C630 131 619 128 607.8 126.5C596.7 125 585.3 125 574 126.5C562.7 128 551.3 131 540 132.5C528.7 134 517.3 134 506 132.5C494.7 131 483.3 128 472.2 126.5C461 125 450 125 438.8 123.5C427.7 122 416.3 119 405 120.5C393.7 122 382.3 128 371.2 131C360 134 349 134 337.8 132.5C326.7 131 315.3 128 304 128C292.7 128 281.3 131 270 135.5C258.7 140 247.3 146 236.2 146C225 146 214 140 202.8 135.5C191.7 131 180.3 128 169 132.5C157.7 137 146.3 149 135 153.5C123.7 158 112.3 155 101.2 150.5C90 146 79 140 67.8 137C56.7 134 45.3 134 34 135.5C22.7 137 11.3 140 5.7 141.5L0 143Z" fill="#161616"></path><path d="M0 271L5.7 269.5C11.3 268 22.7 265 34 260.5C45.3 256 56.7 250 67.8 250C79 250 90 256 101.2 257.5C112.3 259 123.7 256 135 250C146.3 244 157.7 235 169 236.5C180.3 238 191.7 250 202.8 256C214 262 225 262 236.2 257.5C247.3 253 258.7 244 270 242.5C281.3 241 292.7 247 304 250C315.3 253 326.7 253 337.8 253C349 253 360 253 371.2 250C382.3 247 393.7 241 405 239.5C416.3 238 427.7 241 438.8 239.5C450 238 461 232 472.2 230.5C483.3 229 494.7 232 506 235C517.3 238 528.7 241 540 241C551.3 241 562.7 238 574 236.5C585.3 235 596.7 235 607.8 235C619 235 630 235 641.2 238C652.3 241 663.7 247 669.3 250L675 253L675 215L669.3 210.5C663.7 206 652.3 197 641.2 191C630 185 619 182 607.8 183.5C596.7 185 585.3 191 574 194C562.7 197 551.3 197 540 195.5C528.7 194 517.3 191 506 188C494.7 185 483.3 182 472.2 185C461 188 450 197 438.8 200C427.7 203 416.3 200 405 201.5C393.7 203 382.3 209 371.2 209C360 209 349 203 337.8 200C326.7 197 315.3 197 304 195.5C292.7 194 281.3 191 270 195.5C258.7 200 247.3 212 236.2 215C225 218 214 212 202.8 206C191.7 200 180.3 194 169 195.5C157.7 197 146.3 206 135 212C123.7 218 112.3 221 101.2 216.5C90 212 79 200 67.8 198.5C56.7 197 45.3 206 34 212C22.7 218 11.3 221 5.7 222.5L0 224Z" fill="#181818"></path><path d="M0 316L5.7 313C11.3 310 22.7 304 34 298C45.3 292 56.7 286 67.8 287.5C79 289 90 298 101.2 301C112.3 304 123.7 301 135 293.5C146.3 286 157.7 274 169 275.5C180.3 277 191.7 292 202.8 299.5C214 307 225 307 236.2 302.5C247.3 298 258.7 289 270 287.5C281.3 286 292.7 292 304 293.5C315.3 295 326.7 292 337.8 292C349 292 360 295 371.2 293.5C382.3 292 393.7 286 405 283C416.3 280 427.7 280 438.8 278.5C450 277 461 274 472.2 272.5C483.3 271 494.7 271 506 272.5C517.3 274 528.7 277 540 277C551.3 277 562.7 274 574 274C585.3 274 596.7 277 607.8 278.5C619 280 630 280 641.2 281.5C652.3 283 663.7 286 669.3 287.5L675 289L675 251L669.3 248C663.7 245 652.3 239 641.2 236C630 233 619 233 607.8 233C596.7 233 585.3 233 574 234.5C562.7 236 551.3 239 540 239C528.7 239 517.3 236 506 233C494.7 230 483.3 227 472.2 228.5C461 230 450 236 438.8 237.5C427.7 239 416.3 236 405 237.5C393.7 239 382.3 245 371.2 248C360 251 349 251 337.8 251C326.7 251 315.3 251 304 248C292.7 245 281.3 239 270 240.5C258.7 242 247.3 251 236.2 255.5C225 260 214 260 202.8 254C191.7 248 180.3 236 169 234.5C157.7 233 146.3 242 135 248C123.7 254 112.3 257 101.2 255.5C90 254 79 248 67.8 248C56.7 248 45.3 254 34 258.5C22.7 263 11.3 266 5.7 267.5L0 269Z" fill="#191919"></path><path d="M0 361L5.7 356.5C11.3 352 22.7 343 34 335.5C45.3 328 56.7 322 67.8 323.5C79 325 90 334 101.2 337C112.3 340 123.7 337 135 329.5C146.3 322 157.7 310 169 313C180.3 316 191.7 334 202.8 341.5C214 349 225 346 236.2 340C247.3 334 258.7 325 270 325C281.3 325 292.7 334 304 335.5C315.3 337 326.7 331 337.8 329.5C349 328 360 331 371.2 331C382.3 331 393.7 328 405 325C416.3 322 427.7 319 438.8 317.5C450 316 461 316 472.2 316C483.3 316 494.7 316 506 316C517.3 316 528.7 316 540 316C551.3 316 562.7 316 574 317.5C585.3 319 596.7 322 607.8 323.5C619 325 630 325 641.2 325C652.3 325 663.7 325 669.3 325L675 325L675 287L669.3 285.5C663.7 284 652.3 281 641.2 279.5C630 278 619 278 607.8 276.5C596.7 275 585.3 272 574 272C562.7 272 551.3 275 540 275C528.7 275 517.3 272 506 270.5C494.7 269 483.3 269 472.2 270.5C461 272 450 275 438.8 276.5C427.7 278 416.3 278 405 281C393.7 284 382.3 290 371.2 291.5C360 293 349 290 337.8 290C326.7 290 315.3 293 304 291.5C292.7 290 281.3 284 270 285.5C258.7 287 247.3 296 236.2 300.5C225 305 214 305 202.8 297.5C191.7 290 180.3 275 169 273.5C157.7 272 146.3 284 135 291.5C123.7 299 112.3 302 101.2 299C90 296 79 287 67.8 285.5C56.7 284 45.3 290 34 296C22.7 302 11.3 308 5.7 311L0 314Z" fill="#1b1b1b"></path><path d="M0 406L5.7 401.5C11.3 397 22.7 388 34 380.5C45.3 373 56.7 367 67.8 370C79 373 90 385 101.2 389.5C112.3 394 123.7 391 135 383.5C146.3 376 157.7 364 169 367C180.3 370 191.7 388 202.8 394C214 400 225 394 236.2 386.5C247.3 379 258.7 370 270 371.5C281.3 373 292.7 385 304 386.5C315.3 388 326.7 379 337.8 379C349 379 360 388 371.2 389.5C382.3 391 393.7 385 405 380.5C416.3 376 427.7 373 438.8 370C450 367 461 364 472.2 364C483.3 364 494.7 367 506 370C517.3 373 528.7 376 540 376C551.3 376 562.7 373 574 373C585.3 373 596.7 376 607.8 376C619 376 630 373 641.2 374.5C652.3 376 663.7 382 669.3 385L675 388L675 323L669.3 323C663.7 323 652.3 323 641.2 323C630 323 619 323 607.8 321.5C596.7 320 585.3 317 574 315.5C562.7 314 551.3 314 540 314C528.7 314 517.3 314 506 314C494.7 314 483.3 314 472.2 314C461 314 450 314 438.8 315.5C427.7 317 416.3 320 405 323C393.7 326 382.3 329 371.2 329C360 329 349 326 337.8 327.5C326.7 329 315.3 335 304 333.5C292.7 332 281.3 323 270 323C258.7 323 247.3 332 236.2 338C225 344 214 347 202.8 339.5C191.7 332 180.3 314 169 311C157.7 308 146.3 320 135 327.5C123.7 335 112.3 338 101.2 335C90 332 79 323 67.8 321.5C56.7 320 45.3 326 34 333.5C22.7 341 11.3 350 5.7 354.5L0 359Z" fill="#1d1d1d"></path><path d="M0 442L5.7 436C11.3 430 22.7 418 34 410.5C45.3 403 56.7 400 67.8 403C79 406 90 415 101.2 419.5C112.3 424 123.7 424 135 418C146.3 412 157.7 400 169 401.5C180.3 403 191.7 418 202.8 424C214 430 225 427 236.2 421C247.3 415 258.7 406 270 407.5C281.3 409 292.7 421 304 421C315.3 421 326.7 409 337.8 409C349 409 360 421 371.2 422.5C382.3 424 393.7 415 405 410.5C416.3 406 427.7 406 438.8 404.5C450 403 461 400 472.2 398.5C483.3 397 494.7 397 506 398.5C517.3 400 528.7 403 540 404.5C551.3 406 562.7 406 574 407.5C585.3 409 596.7 412 607.8 410.5C619 409 630 403 641.2 404.5C652.3 406 663.7 415 669.3 419.5L675 424L675 386L669.3 383C663.7 380 652.3 374 641.2 372.5C630 371 619 374 607.8 374C596.7 374 585.3 371 574 371C562.7 371 551.3 374 540 374C528.7 374 517.3 371 506 368C494.7 365 483.3 362 472.2 362C461 362 450 365 438.8 368C427.7 371 416.3 374 405 378.5C393.7 383 382.3 389 371.2 387.5C360 386 349 377 337.8 377C326.7 377 315.3 386 304 384.5C292.7 383 281.3 371 270 369.5C258.7 368 247.3 377 236.2 384.5C225 392 214 398 202.8 392C191.7 386 180.3 368 169 365C157.7 362 146.3 374 135 381.5C123.7 389 112.3 392 101.2 387.5C90 383 79 371 67.8 368C56.7 365 45.3 371 34 378.5C22.7 386 11.3 395 5.7 399.5L0 404Z" fill="#1e1e1e"></path><path d="M0 613L5.7 607C11.3 601 22.7 589 34 587.5C45.3 586 56.7 595 67.8 593.5C79 592 90 580 101.2 580C112.3 580 123.7 592 135 589C146.3 586 157.7 568 169 562C180.3 556 191.7 562 202.8 568C214 574 225 580 236.2 577C247.3 574 258.7 562 270 557.5C281.3 553 292.7 556 304 565C315.3 574 326.7 589 337.8 595C349 601 360 598 371.2 587.5C382.3 577 393.7 559 405 553C416.3 547 427.7 553 438.8 560.5C450 568 461 577 472.2 575.5C483.3 574 494.7 562 506 562C517.3 562 528.7 574 540 581.5C551.3 589 562.7 592 574 595C585.3 598 596.7 601 607.8 592C619 583 630 562 641.2 554.5C652.3 547 663.7 553 669.3 556L675 559L675 422L669.3 417.5C663.7 413 652.3 404 641.2 402.5C630 401 619 407 607.8 408.5C596.7 410 585.3 407 574 405.5C562.7 404 551.3 404 540 402.5C528.7 401 517.3 398 506 396.5C494.7 395 483.3 395 472.2 396.5C461 398 450 401 438.8 402.5C427.7 404 416.3 404 405 408.5C393.7 413 382.3 422 371.2 420.5C360 419 349 407 337.8 407C326.7 407 315.3 419 304 419C292.7 419 281.3 407 270 405.5C258.7 404 247.3 413 236.2 419C225 425 214 428 202.8 422C191.7 416 180.3 401 169 399.5C157.7 398 146.3 410 135 416C123.7 422 112.3 422 101.2 417.5C90 413 79 404 67.8 401C56.7 398 45.3 401 34 408.5C22.7 416 11.3 428 5.7 434L0 440Z" fill="#202020"></path><path d="M0 640L5.7 635.5C11.3 631 22.7 622 34 620.5C45.3 619 56.7 625 67.8 622C79 619 90 607 101.2 608.5C112.3 610 123.7 625 135 623.5C146.3 622 157.7 604 169 598C180.3 592 191.7 598 202.8 602.5C214 607 225 610 236.2 607C247.3 604 258.7 595 270 592C281.3 589 292.7 592 304 599.5C315.3 607 326.7 619 337.8 623.5C349 628 360 625 371.2 616C382.3 607 393.7 592 405 587.5C416.3 583 427.7 589 438.8 596.5C450 604 461 613 472.2 610C483.3 607 494.7 592 506 592C517.3 592 528.7 607 540 616C551.3 625 562.7 628 574 629.5C585.3 631 596.7 631 607.8 622C619 613 630 595 641.2 589C652.3 583 663.7 589 669.3 592L675 595L675 557L669.3 554C663.7 551 652.3 545 641.2 552.5C630 560 619 581 607.8 590C596.7 599 585.3 596 574 593C562.7 590 551.3 587 540 579.5C528.7 572 517.3 560 506 560C494.7 560 483.3 572 472.2 573.5C461 575 450 566 438.8 558.5C427.7 551 416.3 545 405 551C393.7 557 382.3 575 371.2 585.5C360 596 349 599 337.8 593C326.7 587 315.3 572 304 563C292.7 554 281.3 551 270 555.5C258.7 560 247.3 572 236.2 575C225 578 214 572 202.8 566C191.7 560 180.3 554 169 560C157.7 566 146.3 584 135 587C123.7 590 112.3 578 101.2 578C90 578 79 590 67.8 591.5C56.7 593 45.3 584 34 585.5C22.7 587 11.3 599 5.7 605L0 611Z" fill="#222222"></path><path d="M0 802L5.7 802C11.3 802 22.7 802 34 803.5C45.3 805 56.7 808 67.8 808C79 808 90 805 101.2 802C112.3 799 123.7 796 135 797.5C146.3 799 157.7 805 169 806.5C180.3 808 191.7 805 202.8 802C214 799 225 796 236.2 797.5C247.3 799 258.7 805 270 803.5C281.3 802 292.7 793 304 791.5C315.3 790 326.7 796 337.8 799C349 802 360 802 371.2 800.5C382.3 799 393.7 796 405 794.5C416.3 793 427.7 793 438.8 790C450 787 461 781 472.2 781C483.3 781 494.7 787 506 791.5C517.3 796 528.7 799 540 797.5C551.3 796 562.7 790 574 791.5C585.3 793 596.7 802 607.8 803.5C619 805 630 799 641.2 794.5C652.3 790 663.7 787 669.3 785.5L675 784L675 593L669.3 590C663.7 587 652.3 581 641.2 587C630 593 619 611 607.8 620C596.7 629 585.3 629 574 627.5C562.7 626 551.3 623 540 614C528.7 605 517.3 590 506 590C494.7 590 483.3 605 472.2 608C461 611 450 602 438.8 594.5C427.7 587 416.3 581 405 585.5C393.7 590 382.3 605 371.2 614C360 623 349 626 337.8 621.5C326.7 617 315.3 605 304 597.5C292.7 590 281.3 587 270 590C258.7 593 247.3 602 236.2 605C225 608 214 605 202.8 600.5C191.7 596 180.3 590 169 596C157.7 602 146.3 620 135 621.5C123.7 623 112.3 608 101.2 606.5C90 605 79 617 67.8 620C56.7 623 45.3 617 34 618.5C22.7 620 11.3 629 5.7 633.5L0 638Z" fill="#232323"></path><path d="M0 901L5.7 901C11.3 901 22.7 901 34 901C45.3 901 56.7 901 67.8 901C79 901 90 901 101.2 901C112.3 901 123.7 901 135 901C146.3 901 157.7 901 169 901C180.3 901 191.7 901 202.8 901C214 901 225 901 236.2 901C247.3 901 258.7 901 270 901C281.3 901 292.7 901 304 901C315.3 901 326.7 901 337.8 901C349 901 360 901 371.2 901C382.3 901 393.7 901 405 901C416.3 901 427.7 901 438.8 901C450 901 461 901 472.2 901C483.3 901 494.7 901 506 901C517.3 901 528.7 901 540 901C551.3 901 562.7 901 574 901C585.3 901 596.7 901 607.8 901C619 901 630 901 641.2 901C652.3 901 663.7 901 669.3 901L675 901L675 782L669.3 783.5C663.7 785 652.3 788 641.2 792.5C630 797 619 803 607.8 801.5C596.7 800 585.3 791 574 789.5C562.7 788 551.3 794 540 795.5C528.7 797 517.3 794 506 789.5C494.7 785 483.3 779 472.2 779C461 779 450 785 438.8 788C427.7 791 416.3 791 405 792.5C393.7 794 382.3 797 371.2 798.5C360 800 349 800 337.8 797C326.7 794 315.3 788 304 789.5C292.7 791 281.3 800 270 801.5C258.7 803 247.3 797 236.2 795.5C225 794 214 797 202.8 800C191.7 803 180.3 806 169 804.5C157.7 803 146.3 797 135 795.5C123.7 794 112.3 797 101.2 800C90 803 79 806 67.8 806C56.7 806 45.3 803 34 801.5C22.7 800 11.3 800 5.7 800L0 800Z" fill="#252525"></path></svg>