<svg id="visual" viewBox="0 0 960 540" width="960" height="540" xmlns="http://www.w3.org/2000/svg" xmlns:xlink="http://www.w3.org/1999/xlink" version="1.1"><rect x="0" y="0" width="960" height="540" fill="#121212"></rect><path d="M0 83L16 86.2C32 89.3 64 95.7 96 118.5C128 141.3 160 180.7 192 193.8C224 207 256 194 288 187C320 180 352 179 384 179.5C416 180 448 182 480 171.2C512 160.3 544 136.7 576 144.3C608 152 640 191 672 212.3C704 233.7 736 237.3 768 217.2C800 197 832 153 864 142C896 131 928 153 944 164L960 175L960 541L944 541C928 541 896 541 864 541C832 541 800 541 768 541C736 541 704 541 672 541C640 541 608 541 576 541C544 541 512 541 480 541C448 541 416 541 384 541C352 541 320 541 288 541C256 541 224 541 192 541C160 541 128 541 96 541C64 541 32 541 16 541L0 541Z" fill="#151515"></path><path d="M0 251L16 235.3C32 219.7 64 188.3 96 178C128 167.7 160 178.3 192 192C224 205.7 256 222.3 288 232C320 241.7 352 244.3 384 232C416 219.7 448 192.3 480 190.8C512 189.3 544 213.7 576 231C608 248.3 640 258.7 672 244.2C704 229.7 736 190.3 768 183.3C800 176.3 832 201.7 864 202.7C896 203.7 928 180.3 944 168.7L960 157L960 541L944 541C928 541 896 541 864 541C832 541 800 541 768 541C736 541 704 541 672 541C640 541 608 541 576 541C544 541 512 541 480 541C448 541 416 541 384 541C352 541 320 541 288 541C256 541 224 541 192 541C160 541 128 541 96 541C64 541 32 541 16 541L0 541Z" fill="#171717"></path><path d="M0 280L16 282.3C32 284.7 64 289.3 96 289.2C128 289 160 284 192 288C224 292 256 305 288 301.7C320 298.3 352 278.7 384 275C416 271.3 448 283.7 480 283.3C512 283 544 270 576 269.3C608 268.7 640 280.3 672 271.8C704 263.3 736 234.7 768 236.5C800 238.3 832 270.7 864 278.5C896 286.3 928 269.7 944 261.3L960 253L960 541L944 541C928 541 896 541 864 541C832 541 800 541 768 541C736 541 704 541 672 541C640 541 608 541 576 541C544 541 512 541 480 541C448 541 416 541 384 541C352 541 320 541 288 541C256 541 224 541 192 541C160 541 128 541 96 541C64 541 32 541 16 541L0 541Z" fill="#1a1a1a"></path><path d="M0 351L16 350C32 349 64 347 96 347.2C128 347.3 160 349.7 192 339.3C224 329 256 306 288 293.5C320 281 352 279 384 291.7C416 304.3 448 331.7 480 337.3C512 343 544 327 576 310.8C608 294.7 640 278.3 672 286.3C704 294.3 736 326.7 768 336C800 345.3 832 331.7 864 314C896 296.3 928 274.7 944 263.8L960 253L960 541L944 541C928 541 896 541 864 541C832 541 800 541 768 541C736 541 704 541 672 541C640 541 608 541 576 541C544 541 512 541 480 541C448 541 416 541 384 541C352 541 320 541 288 541C256 541 224 541 192 541C160 541 128 541 96 541C64 541 32 541 16 541L0 541Z" fill="#1c1c1c"></path><path d="M0 325L16 323.3C32 321.7 64 318.3 96 313.5C128 308.7 160 302.3 192 313.8C224 325.3 256 354.7 288 354C320 353.3 352 322.7 384 311.8C416 301 448 310 480 322.7C512 335.3 544 351.7 576 360C608 368.3 640 368.7 672 366.5C704 364.3 736 359.7 768 364C800 368.3 832 381.7 864 382.2C896 382.7 928 370.3 944 364.2L960 358L960 541L944 541C928 541 896 541 864 541C832 541 800 541 768 541C736 541 704 541 672 541C640 541 608 541 576 541C544 541 512 541 480 541C448 541 416 541 384 541C352 541 320 541 288 541C256 541 224 541 192 541C160 541 128 541 96 541C64 541 32 541 16 541L0 541Z" fill="#1e1e1e"></path><path d="M0 428L16 426.2C32 424.3 64 420.7 96 417C128 413.3 160 409.7 192 398.5C224 387.3 256 368.7 288 365.3C320 362 352 374 384 382.7C416 391.3 448 396.7 480 399.7C512 402.7 544 403.3 576 397.8C608 392.3 640 380.7 672 384C704 387.3 736 405.7 768 411.7C800 417.7 832 411.3 864 399.5C896 387.7 928 370.3 944 361.7L960 353L960 541L944 541C928 541 896 541 864 541C832 541 800 541 768 541C736 541 704 541 672 541C640 541 608 541 576 541C544 541 512 541 480 541C448 541 416 541 384 541C352 541 320 541 288 541C256 541 224 541 192 541C160 541 128 541 96 541C64 541 32 541 16 541L0 541Z" fill="#202020"></path><path d="M0 467L16 464C32 461 64 455 96 451C128 447 160 445 192 440.2C224 435.3 256 427.7 288 424.5C320 421.3 352 422.7 384 428.7C416 434.7 448 445.3 480 450.3C512 455.3 544 454.7 576 451.5C608 448.3 640 442.7 672 436.2C704 429.7 736 422.3 768 423.7C800 425 832 435 864 442.2C896 449.3 928 453.7 944 455.8L960 458L960 541L944 541C928 541 896 541 864 541C832 541 800 541 768 541C736 541 704 541 672 541C640 541 608 541 576 541C544 541 512 541 480 541C448 541 416 541 384 541C352 541 320 541 288 541C256 541 224 541 192 541C160 541 128 541 96 541C64 541 32 541 16 541L0 541Z" fill="#232323"></path><path d="M0 489L16 485C32 481 64 473 96 475.3C128 477.7 160 490.3 192 494.2C224 498 256 493 288 487.2C320 481.3 352 474.7 384 476C416 477.3 448 486.7 480 490.8C512 495 544 494 576 489.5C608 485 640 477 672 474C704 471 736 473 768 472.5C800 472 832 469 864 472.3C896 475.7 928 485.3 944 490.2L960 495L960 541L944 541C928 541 896 541 864 541C832 541 800 541 768 541C736 541 704 541 672 541C640 541 608 541 576 541C544 541 512 541 480 541C448 541 416 541 384 541C352 541 320 541 288 541C256 541 224 541 192 541C160 541 128 541 96 541C64 541 32 541 16 541L0 541Z" fill="#252525"></path></svg>