<svg id="visual" viewBox="0 0 675 900" width="675" height="900" xmlns="http://www.w3.org/2000/svg" xmlns:xlink="http://www.w3.org/1999/xlink" version="1.1"><rect x="0" y="0" width="675" height="900" fill="#001122"></rect><path d="M341 900L349 878.5C357 857 373 814 383.7 771.2C394.3 728.3 399.7 685.7 404.3 642.8C409 600 413 557 401.3 514.2C389.7 471.3 362.3 428.7 341.3 385.8C320.3 343 305.7 300 300.3 257.2C295 214.3 299 171.7 302.5 128.8C306 86 309 43 310.5 21.5L312 0L675 0L675 21.5C675 43 675 86 675 128.8C675 171.7 675 214.3 675 257.2C675 300 675 343 675 385.8C675 428.7 675 471.3 675 514.2C675 557 675 600 675 642.8C675 685.7 675 728.3 675 771.2C675 814 675 857 675 878.5L675 900Z" fill="#0066ff"></path><path d="M412 900L409.8 878.5C407.7 857 403.3 814 405.7 771.2C408 728.3 417 685.7 408.5 642.8C400 600 374 557 364.3 514.2C354.7 471.3 361.3 428.7 353.8 385.8C346.3 343 324.7 300 337.3 257.2C350 214.3 397 171.7 399.5 128.8C402 86 360 43 339 21.5L318 0L675 0L675 21.5C675 43 675 86 675 128.8C675 171.7 675 214.3 675 257.2C675 300 675 343 675 385.8C675 428.7 675 471.3 675 514.2C675 557 675 600 675 642.8C675 685.7 675 728.3 675 771.2C675 814 675 857 675 878.5L675 900Z" fill="#0070ff"></path><path d="M471 900L450.5 878.5C430 857 389 814 392.8 771.2C396.7 728.3 445.3 685.7 454.7 642.8C464 600 434 557 412.2 514.2C390.3 471.3 376.7 428.7 381.5 385.8C386.3 343 409.7 300 408 257.2C406.3 214.3 379.7 171.7 385 128.8C390.3 86 427.7 43 446.3 21.5L465 0L675 0L675 21.5C675 43 675 86 675 128.8C675 171.7 675 214.3 675 257.2C675 300 675 343 675 385.8C675 428.7 675 471.3 675 514.2C675 557 675 600 675 642.8C675 685.7 675 728.3 675 771.2C675 814 675 857 675 878.5L675 900Z" fill="#007aff"></path><path d="M451 900L448.7 878.5C446.3 857 441.7 814 429.7 771.2C417.7 728.3 398.3 685.7 398.8 642.8C399.3 600 419.7 557 435.5 514.2C451.3 471.3 462.7 428.7 452.2 385.8C441.7 343 409.3 300 412 257.2C414.7 214.3 452.3 171.7 472.8 128.8C493.3 86 496.7 43 498.3 21.5L500 0L675 0L675 21.5C675 43 675 86 675 128.8C675 171.7 675 214.3 675 257.2C675 300 675 343 675 385.8C675 428.7 675 471.3 675 514.2C675 557 675 600 675 642.8C675 685.7 675 728.3 675 771.2C675 814 675 857 675 878.5L675 900Z" fill="#0083ff"></path><path d="M472 900L473.5 878.5C475 857 478 814 476.8 771.2C475.7 728.3 470.3 685.7 481.2 642.8C492 600 519 557 530.5 514.2C542 471.3 538 428.7 518.8 385.8C499.7 343 465.3 300 458.7 257.2C452 214.3 473 171.7 474.8 128.8C476.7 86 459.3 43 450.7 21.5L442 0L675 0L675 21.5C675 43 675 86 675 128.8C675 171.7 675 214.3 675 257.2C675 300 675 343 675 385.8C675 428.7 675 471.3 675 514.2C675 557 675 600 675 642.8C675 685.7 675 728.3 675 771.2C675 814 675 857 675 878.5L675 900Z" fill="#008cff"></path><path d="M549 900L546.3 878.5C543.7 857 538.3 814 538.7 771.2C539 728.3 545 685.7 545 642.8C545 600 539 557 543.7 514.2C548.3 471.3 563.7 428.7 568 385.8C572.3 343 565.7 300 565.8 257.2C566 214.3 573 171.7 561.5 128.8C550 86 520 43 505 21.5L490 0L675 0L675 21.5C675 43 675 86 675 128.8C675 171.7 675 214.3 675 257.2C675 300 675 343 675 385.8C675 428.7 675 471.3 675 514.2C675 557 675 600 675 642.8C675 685.7 675 728.3 675 771.2C675 814 675 857 675 878.5L675 900Z" fill="#1795fe"></path><path d="M535 900L537.2 878.5C539.3 857 543.7 814 552.5 771.2C561.3 728.3 574.7 685.7 572.7 642.8C570.7 600 553.3 557 545 514.2C536.7 471.3 537.3 428.7 548.7 385.8C560 343 582 300 582.2 257.2C582.3 214.3 560.7 171.7 551.2 128.8C541.7 86 544.3 43 545.7 21.5L547 0L675 0L675 21.5C675 43 675 86 675 128.8C675 171.7 675 214.3 675 257.2C675 300 675 343 675 385.8C675 428.7 675 471.3 675 514.2C675 557 675 600 675 642.8C675 685.7 675 728.3 675 771.2C675 814 675 857 675 878.5L675 900Z" fill="#2b9dfc"></path><path d="M604 900L598.7 878.5C593.3 857 582.7 814 581.2 771.2C579.7 728.3 587.3 685.7 594.2 642.8C601 600 607 557 604.7 514.2C602.3 471.3 591.7 428.7 582.2 385.8C572.7 343 564.3 300 567.5 257.2C570.7 214.3 585.3 171.7 593 128.8C600.7 86 601.3 43 601.7 21.5L602 0L675 0L675 21.5C675 43 675 86 675 128.8C675 171.7 675 214.3 675 257.2C675 300 675 343 675 385.8C675 428.7 675 471.3 675 514.2C675 557 675 600 675 642.8C675 685.7 675 728.3 675 771.2C675 814 675 857 675 878.5L675 900Z" fill="#3da4fa"></path><path d="M610 900L607.8 878.5C605.7 857 601.3 814 603.3 771.2C605.3 728.3 613.7 685.7 615 642.8C616.3 600 610.7 557 606.8 514.2C603 471.3 601 428.7 608.7 385.8C616.3 343 633.7 300 634.7 257.2C635.7 214.3 620.3 171.7 613.3 128.8C606.3 86 607.7 43 608.3 21.5L609 0L675 0L675 21.5C675 43 675 86 675 128.8C675 171.7 675 214.3 675 257.2C675 300 675 343 675 385.8C675 428.7 675 471.3 675 514.2C675 557 675 600 675 642.8C675 685.7 675 728.3 675 771.2C675 814 675 857 675 878.5L675 900Z" fill="#4facf7"></path></svg>