<svg id="visual" viewBox="0 0 960 540" width="960" height="540" xmlns="http://www.w3.org/2000/svg" xmlns:xlink="http://www.w3.org/1999/xlink" version="1.1"><rect x="0" y="0" width="960" height="540" fill="#001122"></rect><path d="M393 540L380.5 527.2C368 514.3 343 488.7 339.8 463C336.7 437.3 355.3 411.7 360 386C364.7 360.3 355.3 334.7 354.5 308.8C353.7 283 361.3 257 375.7 231.2C390 205.3 411 179.7 430.8 154C450.7 128.3 469.3 102.7 453.5 77C437.7 51.3 387.3 25.7 362.2 12.8L337 0L960 0L960 12.8C960 25.7 960 51.3 960 77C960 102.7 960 128.3 960 154C960 179.7 960 205.3 960 231.2C960 257 960 283 960 308.8C960 334.7 960 360.3 960 386C960 411.7 960 437.3 960 463C960 488.7 960 514.3 960 527.2L960 540Z" fill="#001122"></path><path d="M511 540L513 527.2C515 514.3 519 488.7 531.8 463C544.7 437.3 566.3 411.7 562 386C557.7 360.3 527.3 334.7 521.5 308.8C515.7 283 534.3 257 518.2 231.2C502 205.3 451 179.7 456.7 154C462.3 128.3 524.7 102.7 550.7 77C576.7 51.3 566.3 25.7 561.2 12.8L556 0L960 0L960 12.8C960 25.7 960 51.3 960 77C960 102.7 960 128.3 960 154C960 179.7 960 205.3 960 231.2C960 257 960 283 960 308.8C960 334.7 960 360.3 960 386C960 411.7 960 437.3 960 463C960 488.7 960 514.3 960 527.2L960 540Z" fill="#032538"></path><path d="M485 540L502.5 527.2C520 514.3 555 488.7 579.3 463C603.7 437.3 617.3 411.7 601.3 386C585.3 360.3 539.7 334.7 522.2 308.8C504.7 283 515.3 257 525.7 231.2C536 205.3 546 179.7 558.8 154C571.7 128.3 587.3 102.7 602.2 77C617 51.3 631 25.7 638 12.8L645 0L960 0L960 12.8C960 25.7 960 51.3 960 77C960 102.7 960 128.3 960 154C960 179.7 960 205.3 960 231.2C960 257 960 283 960 308.8C960 334.7 960 360.3 960 386C960 411.7 960 437.3 960 463C960 488.7 960 514.3 960 527.2L960 540Z" fill="#013a4d"></path><path d="M565 540L567.2 527.2C569.3 514.3 573.7 488.7 595.3 463C617 437.3 656 411.7 674.5 386C693 360.3 691 334.7 692.7 308.8C694.3 283 699.7 257 704.8 231.2C710 205.3 715 179.7 692.5 154C670 128.3 620 102.7 606.3 77C592.7 51.3 615.3 25.7 626.7 12.8L638 0L960 0L960 12.8C960 25.7 960 51.3 960 77C960 102.7 960 128.3 960 154C960 179.7 960 205.3 960 231.2C960 257 960 283 960 308.8C960 334.7 960 360.3 960 386C960 411.7 960 437.3 960 463C960 488.7 960 514.3 960 527.2L960 540Z" fill="#005060"></path><path d="M653 540L663.2 527.2C673.3 514.3 693.7 488.7 702.3 463C711 437.3 708 411.7 709.3 386C710.7 360.3 716.3 334.7 718.8 308.8C721.3 283 720.7 257 719.7 231.2C718.7 205.3 717.3 179.7 710.2 154C703 128.3 690 102.7 682.7 77C675.3 51.3 673.7 25.7 672.8 12.8L672 0L960 0L960 12.8C960 25.7 960 51.3 960 77C960 102.7 960 128.3 960 154C960 179.7 960 205.3 960 231.2C960 257 960 283 960 308.8C960 334.7 960 360.3 960 386C960 411.7 960 437.3 960 463C960 488.7 960 514.3 960 527.2L960 540Z" fill="#00676f"></path><path d="M847 540L844 527.2C841 514.3 835 488.7 826.8 463C818.7 437.3 808.3 411.7 794.5 386C780.7 360.3 763.3 334.7 759.8 308.8C756.3 283 766.7 257 767.7 231.2C768.7 205.3 760.3 179.7 768.2 154C776 128.3 800 102.7 798.2 77C796.3 51.3 768.7 25.7 754.8 12.8L741 0L960 0L960 12.8C960 25.7 960 51.3 960 77C960 102.7 960 128.3 960 154C960 179.7 960 205.3 960 231.2C960 257 960 283 960 308.8C960 334.7 960 360.3 960 386C960 411.7 960 437.3 960 463C960 488.7 960 514.3 960 527.2L960 540Z" fill="#007e76"></path><path d="M880 540L875.2 527.2C870.3 514.3 860.7 488.7 854 463C847.3 437.3 843.7 411.7 847.3 386C851 360.3 862 334.7 860.7 308.8C859.3 283 845.7 257 840.3 231.2C835 205.3 838 179.7 838.8 154C839.7 128.3 838.3 102.7 842.2 77C846 51.3 855 25.7 859.5 12.8L864 0L960 0L960 12.8C960 25.7 960 51.3 960 77C960 102.7 960 128.3 960 154C960 179.7 960 205.3 960 231.2C960 257 960 283 960 308.8C960 334.7 960 360.3 960 386C960 411.7 960 437.3 960 463C960 488.7 960 514.3 960 527.2L960 540Z" fill="#019473"></path></svg>