<svg id="visual" viewBox="0 0 675 900" width="675" height="900" xmlns="http://www.w3.org/2000/svg" xmlns:xlink="http://www.w3.org/1999/xlink" version="1.1"><path d="M0 19L4.8 20.5C9.7 22 19.3 25 29.2 25C39 25 49 22 58.8 22C68.7 22 78.3 25 88 25C97.7 25 107.3 22 117.2 22C127 22 137 25 146.8 25C156.7 25 166.3 22 176 22C185.7 22 195.3 25 205.2 26.5C215 28 225 28 234.8 29.5C244.7 31 254.3 34 264 32.5C273.7 31 283.3 25 293.2 23.5C303 22 313 25 322.8 26.5C332.7 28 342.3 28 352.2 28C362 28 372 28 381.8 31C391.7 34 401.3 40 411 38.5C420.7 37 430.3 28 440.2 26.5C450 25 460 31 469.8 32.5C479.7 34 489.3 31 499 32.5C508.7 34 518.3 40 528.2 43C538 46 548 46 557.8 46C567.7 46 577.3 46 587 46C596.7 46 606.3 46 616.2 41.5C626 37 636 28 645.8 25C655.7 22 665.3 25 670.2 26.5L675 28L675 0L670.2 0C665.3 0 655.7 0 645.8 0C636 0 626 0 616.2 0C606.3 0 596.7 0 587 0C577.3 0 567.7 0 557.8 0C548 0 538 0 528.2 0C518.3 0 508.7 0 499 0C489.3 0 479.7 0 469.8 0C460 0 450 0 440.2 0C430.3 0 420.7 0 411 0C401.3 0 391.7 0 381.8 0C372 0 362 0 352.2 0C342.3 0 332.7 0 322.8 0C313 0 303 0 293.2 0C283.3 0 273.7 0 264 0C254.3 0 244.7 0 234.8 0C225 0 215 0 205.2 0C195.3 0 185.7 0 176 0C166.3 0 156.7 0 146.8 0C137 0 127 0 117.2 0C107.3 0 97.7 0 88 0C78.3 0 68.7 0 58.8 0C49 0 39 0 29.2 0C19.3 0 9.7 0 4.8 0L0 0Z" fill="#121212"></path><path d="M0 100L4.8 112C9.7 124 19.3 148 29.2 161.5C39 175 49 178 58.8 175C68.7 172 78.3 163 88 151C97.7 139 107.3 124 117.2 116.5C127 109 137 109 146.8 109C156.7 109 166.3 109 176 112C185.7 115 195.3 121 205.2 121C215 121 225 115 234.8 112C244.7 109 254.3 109 264 110.5C273.7 112 283.3 115 293.2 127C303 139 313 160 322.8 163C332.7 166 342.3 151 352.2 151C362 151 372 166 381.8 166C391.7 166 401.3 151 411 134.5C420.7 118 430.3 100 440.2 95.5C450 91 460 100 469.8 104.5C479.7 109 489.3 109 499 110.5C508.7 112 518.3 115 528.2 127C538 139 548 160 557.8 167.5C567.7 175 577.3 169 587 166C596.7 163 606.3 163 616.2 152.5C626 142 636 121 645.8 122.5C655.7 124 665.3 148 670.2 160L675 172L675 26L670.2 24.5C665.3 23 655.7 20 645.8 23C636 26 626 35 616.2 39.5C606.3 44 596.7 44 587 44C577.3 44 567.7 44 557.8 44C548 44 538 44 528.2 41C518.3 38 508.7 32 499 30.5C489.3 29 479.7 32 469.8 30.5C460 29 450 23 440.2 24.5C430.3 26 420.7 35 411 36.5C401.3 38 391.7 32 381.8 29C372 26 362 26 352.2 26C342.3 26 332.7 26 322.8 24.5C313 23 303 20 293.2 21.5C283.3 23 273.7 29 264 30.5C254.3 32 244.7 29 234.8 27.5C225 26 215 26 205.2 24.5C195.3 23 185.7 20 176 20C166.3 20 156.7 23 146.8 23C137 23 127 20 117.2 20C107.3 20 97.7 23 88 23C78.3 23 68.7 20 58.8 20C49 20 39 23 29.2 23C19.3 23 9.7 20 4.8 18.5L0 17Z" fill="#161d1a"></path><path d="M0 127L4.8 142C9.7 157 19.3 187 29.2 205C39 223 49 229 58.8 226C68.7 223 78.3 211 88 199C97.7 187 107.3 175 117.2 169C127 163 137 163 146.8 163C156.7 163 166.3 163 176 164.5C185.7 166 195.3 169 205.2 169C215 169 225 166 234.8 163C244.7 160 254.3 157 264 158.5C273.7 160 283.3 166 293.2 179.5C303 193 313 214 322.8 215.5C332.7 217 342.3 199 352.2 197.5C362 196 372 211 381.8 208C391.7 205 401.3 184 411 167.5C420.7 151 430.3 139 440.2 137.5C450 136 460 145 469.8 146.5C479.7 148 489.3 142 499 140.5C508.7 139 518.3 142 528.2 155.5C538 169 548 193 557.8 202C567.7 211 577.3 205 587 200.5C596.7 196 606.3 193 616.2 184C626 175 636 160 645.8 164.5C655.7 169 665.3 193 670.2 205L675 217L675 170L670.2 158C665.3 146 655.7 122 645.8 120.5C636 119 626 140 616.2 150.5C606.3 161 596.7 161 587 164C577.3 167 567.7 173 557.8 165.5C548 158 538 137 528.2 125C518.3 113 508.7 110 499 108.5C489.3 107 479.7 107 469.8 102.5C460 98 450 89 440.2 93.5C430.3 98 420.7 116 411 132.5C401.3 149 391.7 164 381.8 164C372 164 362 149 352.2 149C342.3 149 332.7 164 322.8 161C313 158 303 137 293.2 125C283.3 113 273.7 110 264 108.5C254.3 107 244.7 107 234.8 110C225 113 215 119 205.2 119C195.3 119 185.7 113 176 110C166.3 107 156.7 107 146.8 107C137 107 127 107 117.2 114.5C107.3 122 97.7 137 88 149C78.3 161 68.7 170 58.8 173C49 176 39 173 29.2 159.5C19.3 146 9.7 122 4.8 110L0 98Z" fill="#192722"></path><path d="M0 163L4.8 178C9.7 193 19.3 223 29.2 239.5C39 256 49 259 58.8 257.5C68.7 256 78.3 250 88 238C97.7 226 107.3 208 117.2 200.5C127 193 137 196 146.8 196C156.7 196 166.3 193 176 197.5C185.7 202 195.3 214 205.2 217C215 220 225 214 234.8 209.5C244.7 205 254.3 202 264 206.5C273.7 211 283.3 223 293.2 238C303 253 313 271 322.8 271C332.7 271 342.3 253 352.2 253C362 253 372 271 381.8 269.5C391.7 268 401.3 247 411 226C420.7 205 430.3 184 440.2 176.5C450 169 460 175 469.8 176.5C479.7 178 489.3 175 499 178C508.7 181 518.3 190 528.2 203.5C538 217 548 235 557.8 245.5C567.7 256 577.3 259 587 253C596.7 247 606.3 232 616.2 220C626 208 636 199 645.8 209.5C655.7 220 665.3 250 670.2 265L675 280L675 215L670.2 203C665.3 191 655.7 167 645.8 162.5C636 158 626 173 616.2 182C606.3 191 596.7 194 587 198.5C577.3 203 567.7 209 557.8 200C548 191 538 167 528.2 153.5C518.3 140 508.7 137 499 138.5C489.3 140 479.7 146 469.8 144.5C460 143 450 134 440.2 135.5C430.3 137 420.7 149 411 165.5C401.3 182 391.7 203 381.8 206C372 209 362 194 352.2 195.5C342.3 197 332.7 215 322.8 213.5C313 212 303 191 293.2 177.5C283.3 164 273.7 158 264 156.5C254.3 155 244.7 158 234.8 161C225 164 215 167 205.2 167C195.3 167 185.7 164 176 162.5C166.3 161 156.7 161 146.8 161C137 161 127 161 117.2 167C107.3 173 97.7 185 88 197C78.3 209 68.7 221 58.8 224C49 227 39 221 29.2 203C19.3 185 9.7 155 4.8 140L0 125Z" fill="#1b322a"></path><path d="M0 253L4.8 271C9.7 289 19.3 325 29.2 335.5C39 346 49 331 58.8 325C68.7 319 78.3 322 88 319C97.7 316 107.3 307 117.2 299.5C127 292 137 286 146.8 278.5C156.7 271 166.3 262 176 268C185.7 274 195.3 295 205.2 305.5C215 316 225 316 234.8 307C244.7 298 254.3 280 264 281.5C273.7 283 283.3 304 293.2 317.5C303 331 313 337 322.8 340C332.7 343 342.3 343 352.2 343C362 343 372 343 381.8 332.5C391.7 322 401.3 301 411 289C420.7 277 430.3 274 440.2 268C450 262 460 253 469.8 248.5C479.7 244 489.3 244 499 248.5C508.7 253 518.3 262 528.2 274C538 286 548 301 557.8 310C567.7 319 577.3 322 587 317.5C596.7 313 606.3 301 616.2 289C626 277 636 265 645.8 272.5C655.7 280 665.3 307 670.2 320.5L675 334L675 278L670.2 263C665.3 248 655.7 218 645.8 207.5C636 197 626 206 616.2 218C606.3 230 596.7 245 587 251C577.3 257 567.7 254 557.8 243.5C548 233 538 215 528.2 201.5C518.3 188 508.7 179 499 176C489.3 173 479.7 176 469.8 174.5C460 173 450 167 440.2 174.5C430.3 182 420.7 203 411 224C401.3 245 391.7 266 381.8 267.5C372 269 362 251 352.2 251C342.3 251 332.7 269 322.8 269C313 269 303 251 293.2 236C283.3 221 273.7 209 264 204.5C254.3 200 244.7 203 234.8 207.5C225 212 215 218 205.2 215C195.3 212 185.7 200 176 195.5C166.3 191 156.7 194 146.8 194C137 194 127 191 117.2 198.5C107.3 206 97.7 224 88 236C78.3 248 68.7 254 58.8 255.5C49 257 39 254 29.2 237.5C19.3 221 9.7 191 4.8 176L0 161Z" fill="#1d3e33"></path><path d="M0 298L4.8 319C9.7 340 19.3 382 29.2 400C39 418 49 412 58.8 406C68.7 400 78.3 394 88 383.5C97.7 373 107.3 358 117.2 353.5C127 349 137 355 146.8 355C156.7 355 166.3 349 176 356.5C185.7 364 195.3 385 205.2 388C215 391 225 376 234.8 359.5C244.7 343 254.3 325 264 331C273.7 337 283.3 367 293.2 383.5C303 400 313 403 322.8 407.5C332.7 412 342.3 418 352.2 415C362 412 372 400 381.8 385C391.7 370 401.3 352 411 346C420.7 340 430.3 346 440.2 338.5C450 331 460 310 469.8 305.5C479.7 301 489.3 313 499 320.5C508.7 328 518.3 331 528.2 346C538 361 548 388 557.8 392.5C567.7 397 577.3 379 587 370C596.7 361 606.3 361 616.2 356.5C626 352 636 343 645.8 350.5C655.7 358 665.3 382 670.2 394L675 406L675 332L670.2 318.5C665.3 305 655.7 278 645.8 270.5C636 263 626 275 616.2 287C606.3 299 596.7 311 587 315.5C577.3 320 567.7 317 557.8 308C548 299 538 284 528.2 272C518.3 260 508.7 251 499 246.5C489.3 242 479.7 242 469.8 246.5C460 251 450 260 440.2 266C430.3 272 420.7 275 411 287C401.3 299 391.7 320 381.8 330.5C372 341 362 341 352.2 341C342.3 341 332.7 341 322.8 338C313 335 303 329 293.2 315.5C283.3 302 273.7 281 264 279.5C254.3 278 244.7 296 234.8 305C225 314 215 314 205.2 303.5C195.3 293 185.7 272 176 266C166.3 260 156.7 269 146.8 276.5C137 284 127 290 117.2 297.5C107.3 305 97.7 314 88 317C78.3 320 68.7 317 58.8 323C49 329 39 344 29.2 333.5C19.3 323 9.7 287 4.8 269L0 251Z" fill="#1e493c"></path><path d="M0 316L4.8 337C9.7 358 19.3 400 29.2 422.5C39 445 49 448 58.8 445C68.7 442 78.3 433 88 418C97.7 403 107.3 382 117.2 377.5C127 373 137 385 146.8 389.5C156.7 394 166.3 391 176 395.5C185.7 400 195.3 412 205.2 415C215 418 225 412 234.8 400C244.7 388 254.3 370 264 374.5C273.7 379 283.3 406 293.2 419.5C303 433 313 433 322.8 436C332.7 439 342.3 445 352.2 445C362 445 372 439 381.8 427C391.7 415 401.3 397 411 391C420.7 385 430.3 391 440.2 382C450 373 460 349 469.8 340C479.7 331 489.3 337 499 343C508.7 349 518.3 355 528.2 371.5C538 388 548 415 557.8 419.5C567.7 424 577.3 406 587 398.5C596.7 391 606.3 394 616.2 392.5C626 391 636 385 645.8 391C655.7 397 665.3 415 670.2 424L675 433L675 404L670.2 392C665.3 380 655.7 356 645.8 348.5C636 341 626 350 616.2 354.5C606.3 359 596.7 359 587 368C577.3 377 567.7 395 557.8 390.5C548 386 538 359 528.2 344C518.3 329 508.7 326 499 318.5C489.3 311 479.7 299 469.8 303.5C460 308 450 329 440.2 336.5C430.3 344 420.7 338 411 344C401.3 350 391.7 368 381.8 383C372 398 362 410 352.2 413C342.3 416 332.7 410 322.8 405.5C313 401 303 398 293.2 381.5C283.3 365 273.7 335 264 329C254.3 323 244.7 341 234.8 357.5C225 374 215 389 205.2 386C195.3 383 185.7 362 176 354.5C166.3 347 156.7 353 146.8 353C137 353 127 347 117.2 351.5C107.3 356 97.7 371 88 381.5C78.3 392 68.7 398 58.8 404C49 410 39 416 29.2 398C19.3 380 9.7 338 4.8 317L0 296Z" fill="#1e5544"></path><path d="M0 577L4.8 584.5C9.7 592 19.3 607 29.2 622C39 637 49 652 58.8 644.5C68.7 637 78.3 607 88 589C97.7 571 107.3 565 117.2 568C127 571 137 583 146.8 575.5C156.7 568 166.3 541 176 539.5C185.7 538 195.3 562 205.2 565C215 568 225 550 234.8 539.5C244.7 529 254.3 526 264 526C273.7 526 283.3 529 293.2 533.5C303 538 313 544 322.8 550C332.7 556 342.3 562 352.2 572.5C362 583 372 598 381.8 602.5C391.7 607 401.3 601 411 598C420.7 595 430.3 595 440.2 584.5C450 574 460 553 469.8 529C479.7 505 489.3 478 499 482.5C508.7 487 518.3 523 528.2 544C538 565 548 571 557.8 568C567.7 565 577.3 553 587 557.5C596.7 562 606.3 583 616.2 574C626 565 636 526 645.8 517C655.7 508 665.3 529 670.2 539.5L675 550L675 431L670.2 422C665.3 413 655.7 395 645.8 389C636 383 626 389 616.2 390.5C606.3 392 596.7 389 587 396.5C577.3 404 567.7 422 557.8 417.5C548 413 538 386 528.2 369.5C518.3 353 508.7 347 499 341C489.3 335 479.7 329 469.8 338C460 347 450 371 440.2 380C430.3 389 420.7 383 411 389C401.3 395 391.7 413 381.8 425C372 437 362 443 352.2 443C342.3 443 332.7 437 322.8 434C313 431 303 431 293.2 417.5C283.3 404 273.7 377 264 372.5C254.3 368 244.7 386 234.8 398C225 410 215 416 205.2 413C195.3 410 185.7 398 176 393.5C166.3 389 156.7 392 146.8 387.5C137 383 127 371 117.2 375.5C107.3 380 97.7 401 88 416C78.3 431 68.7 440 58.8 443C49 446 39 443 29.2 420.5C19.3 398 9.7 356 4.8 335L0 314Z" fill="#1d614d"></path><path d="M0 730L4.8 736C9.7 742 19.3 754 29.2 766C39 778 49 790 58.8 785.5C68.7 781 78.3 760 88 745C97.7 730 107.3 721 117.2 722.5C127 724 137 736 146.8 746.5C156.7 757 166.3 766 176 772C185.7 778 195.3 781 205.2 778C215 775 225 766 234.8 757C244.7 748 254.3 739 264 737.5C273.7 736 283.3 742 293.2 752.5C303 763 313 778 322.8 778C332.7 778 342.3 763 352.2 755.5C362 748 372 748 381.8 751C391.7 754 401.3 760 411 760C420.7 760 430.3 754 440.2 748C450 742 460 736 469.8 727C479.7 718 489.3 706 499 712C508.7 718 518.3 742 528.2 755.5C538 769 548 772 557.8 772C567.7 772 577.3 769 587 767.5C596.7 766 606.3 766 616.2 758.5C626 751 636 736 645.8 731.5C655.7 727 665.3 733 670.2 736L675 739L675 548L670.2 537.5C665.3 527 655.7 506 645.8 515C636 524 626 563 616.2 572C606.3 581 596.7 560 587 555.5C577.3 551 567.7 563 557.8 566C548 569 538 563 528.2 542C518.3 521 508.7 485 499 480.5C489.3 476 479.7 503 469.8 527C460 551 450 572 440.2 582.5C430.3 593 420.7 593 411 596C401.3 599 391.7 605 381.8 600.5C372 596 362 581 352.2 570.5C342.3 560 332.7 554 322.8 548C313 542 303 536 293.2 531.5C283.3 527 273.7 524 264 524C254.3 524 244.7 527 234.8 537.5C225 548 215 566 205.2 563C195.3 560 185.7 536 176 537.5C166.3 539 156.7 566 146.8 573.5C137 581 127 569 117.2 566C107.3 563 97.7 569 88 587C78.3 605 68.7 635 58.8 642.5C49 650 39 635 29.2 620C19.3 605 9.7 590 4.8 582.5L0 575Z" fill="#1a6d57"></path><path d="M0 784L4.8 785.5C9.7 787 19.3 790 29.2 797.5C39 805 49 817 58.8 814C68.7 811 78.3 793 88 781C97.7 769 107.3 763 117.2 767.5C127 772 137 787 146.8 794.5C156.7 802 166.3 802 176 808C185.7 814 195.3 826 205.2 826C215 826 225 814 234.8 800.5C244.7 787 254.3 772 264 772C273.7 772 283.3 787 293.2 797.5C303 808 313 814 322.8 812.5C332.7 811 342.3 802 352.2 799C362 796 372 799 381.8 799C391.7 799 401.3 796 411 796C420.7 796 430.3 799 440.2 797.5C450 796 460 790 469.8 782.5C479.7 775 489.3 766 499 767.5C508.7 769 518.3 781 528.2 788.5C538 796 548 799 557.8 800.5C567.7 802 577.3 802 587 802C596.7 802 606.3 802 616.2 797.5C626 793 636 784 645.8 778C655.7 772 665.3 769 670.2 767.5L675 766L675 737L670.2 734C665.3 731 655.7 725 645.8 729.5C636 734 626 749 616.2 756.5C606.3 764 596.7 764 587 765.5C577.3 767 567.7 770 557.8 770C548 770 538 767 528.2 753.5C518.3 740 508.7 716 499 710C489.3 704 479.7 716 469.8 725C460 734 450 740 440.2 746C430.3 752 420.7 758 411 758C401.3 758 391.7 752 381.8 749C372 746 362 746 352.2 753.5C342.3 761 332.7 776 322.8 776C313 776 303 761 293.2 750.5C283.3 740 273.7 734 264 735.5C254.3 737 244.7 746 234.8 755C225 764 215 773 205.2 776C195.3 779 185.7 776 176 770C166.3 764 156.7 755 146.8 744.5C137 734 127 722 117.2 720.5C107.3 719 97.7 728 88 743C78.3 758 68.7 779 58.8 783.5C49 788 39 776 29.2 764C19.3 752 9.7 740 4.8 734L0 728Z" fill="#167a60"></path><path d="M0 820L4.8 826C9.7 832 19.3 844 29.2 851.5C39 859 49 862 58.8 860.5C68.7 859 78.3 853 88 847C97.7 841 107.3 835 117.2 838C127 841 137 853 146.8 856C156.7 859 166.3 853 176 853C185.7 853 195.3 859 205.2 857.5C215 856 225 847 234.8 841C244.7 835 254.3 832 264 835C273.7 838 283.3 847 293.2 853C303 859 313 862 322.8 863.5C332.7 865 342.3 865 352.2 862C362 859 372 853 381.8 848.5C391.7 844 401.3 841 411 842.5C420.7 844 430.3 850 440.2 850C450 850 460 844 469.8 839.5C479.7 835 489.3 832 499 830.5C508.7 829 518.3 829 528.2 830.5C538 832 548 835 557.8 841C567.7 847 577.3 856 587 860.5C596.7 865 606.3 865 616.2 857.5C626 850 636 835 645.8 829C655.7 823 665.3 826 670.2 827.5L675 829L675 764L670.2 765.5C665.3 767 655.7 770 645.8 776C636 782 626 791 616.2 795.5C606.3 800 596.7 800 587 800C577.3 800 567.7 800 557.8 798.5C548 797 538 794 528.2 786.5C518.3 779 508.7 767 499 765.5C489.3 764 479.7 773 469.8 780.5C460 788 450 794 440.2 795.5C430.3 797 420.7 794 411 794C401.3 794 391.7 797 381.8 797C372 797 362 794 352.2 797C342.3 800 332.7 809 322.8 810.5C313 812 303 806 293.2 795.5C283.3 785 273.7 770 264 770C254.3 770 244.7 785 234.8 798.5C225 812 215 824 205.2 824C195.3 824 185.7 812 176 806C166.3 800 156.7 800 146.8 792.5C137 785 127 770 117.2 765.5C107.3 761 97.7 767 88 779C78.3 791 68.7 809 58.8 812C49 815 39 803 29.2 795.5C19.3 788 9.7 785 4.8 783.5L0 782Z" fill="#0f8769"></path><path d="M0 901L4.8 901C9.7 901 19.3 901 29.2 901C39 901 49 901 58.8 901C68.7 901 78.3 901 88 901C97.7 901 107.3 901 117.2 901C127 901 137 901 146.8 901C156.7 901 166.3 901 176 901C185.7 901 195.3 901 205.2 901C215 901 225 901 234.8 901C244.7 901 254.3 901 264 901C273.7 901 283.3 901 293.2 901C303 901 313 901 322.8 901C332.7 901 342.3 901 352.2 901C362 901 372 901 381.8 901C391.7 901 401.3 901 411 901C420.7 901 430.3 901 440.2 901C450 901 460 901 469.8 901C479.7 901 489.3 901 499 901C508.7 901 518.3 901 528.2 901C538 901 548 901 557.8 901C567.7 901 577.3 901 587 901C596.7 901 606.3 901 616.2 901C626 901 636 901 645.8 901C655.7 901 665.3 901 670.2 901L675 901L675 827L670.2 825.5C665.3 824 655.7 821 645.8 827C636 833 626 848 616.2 855.5C606.3 863 596.7 863 587 858.5C577.3 854 567.7 845 557.8 839C548 833 538 830 528.2 828.5C518.3 827 508.7 827 499 828.5C489.3 830 479.7 833 469.8 837.5C460 842 450 848 440.2 848C430.3 848 420.7 842 411 840.5C401.3 839 391.7 842 381.8 846.5C372 851 362 857 352.2 860C342.3 863 332.7 863 322.8 861.5C313 860 303 857 293.2 851C283.3 845 273.7 836 264 833C254.3 830 244.7 833 234.8 839C225 845 215 854 205.2 855.5C195.3 857 185.7 851 176 851C166.3 851 156.7 857 146.8 854C137 851 127 839 117.2 836C107.3 833 97.7 839 88 845C78.3 851 68.7 857 58.8 858.5C49 860 39 857 29.2 849.5C19.3 842 9.7 830 4.8 824L0 818Z" fill="#009473"></path></svg>