<svg id="visual" viewBox="0 0 960 540" width="960" height="540" xmlns="http://www.w3.org/2000/svg" xmlns:xlink="http://www.w3.org/1999/xlink" version="1.1"><rect x="0" y="0" width="960" height="540" fill="#121212"></rect><path d="M518 540L502 527.2C486 514.3 454 488.7 435 463C416 437.3 410 411.7 414.3 386C418.7 360.3 433.3 334.7 421.3 308.8C409.3 283 370.7 257 375.8 231.2C381 205.3 430 179.7 464 154C498 128.3 517 102.7 504.8 77C492.7 51.3 449.3 25.7 427.7 12.8L406 0L960 0L960 12.8C960 25.7 960 51.3 960 77C960 102.7 960 128.3 960 154C960 179.7 960 205.3 960 231.2C960 257 960 283 960 308.8C960 334.7 960 360.3 960 386C960 411.7 960 437.3 960 463C960 488.7 960 514.3 960 527.2L960 540Z" fill="#009473"></path><path d="M494 540L500.5 527.2C507 514.3 520 488.7 528.2 463C536.3 437.3 539.7 411.7 538 386C536.3 360.3 529.7 334.7 534 308.8C538.3 283 553.7 257 565.5 231.2C577.3 205.3 585.7 179.7 577.5 154C569.3 128.3 544.7 102.7 535.5 77C526.3 51.3 532.7 25.7 535.8 12.8L539 0L960 0L960 12.8C960 25.7 960 51.3 960 77C960 102.7 960 128.3 960 154C960 179.7 960 205.3 960 231.2C960 257 960 283 960 308.8C960 334.7 960 360.3 960 386C960 411.7 960 437.3 960 463C960 488.7 960 514.3 960 527.2L960 540Z" fill="#449f62"></path><path d="M568 540L575 527.2C582 514.3 596 488.7 587.7 463C579.3 437.3 548.7 411.7 533.5 386C518.3 360.3 518.7 334.7 531.5 308.8C544.3 283 569.7 257 586.3 231.2C603 205.3 611 179.7 621.3 154C631.7 128.3 644.3 102.7 645.7 77C647 51.3 637 25.7 632 12.8L627 0L960 0L960 12.8C960 25.7 960 51.3 960 77C960 102.7 960 128.3 960 154C960 179.7 960 205.3 960 231.2C960 257 960 283 960 308.8C960 334.7 960 360.3 960 386C960 411.7 960 437.3 960 463C960 488.7 960 514.3 960 527.2L960 540Z" fill="#70a84f"></path><path d="M736 540L727.2 527.2C718.3 514.3 700.7 488.7 703.2 463C705.7 437.3 728.3 411.7 721.7 386C715 360.3 679 334.7 656.8 308.8C634.7 283 626.3 257 621.7 231.2C617 205.3 616 179.7 628.8 154C641.7 128.3 668.3 102.7 681.2 77C694 51.3 693 25.7 692.5 12.8L692 0L960 0L960 12.8C960 25.7 960 51.3 960 77C960 102.7 960 128.3 960 154C960 179.7 960 205.3 960 231.2C960 257 960 283 960 308.8C960 334.7 960 360.3 960 386C960 411.7 960 437.3 960 463C960 488.7 960 514.3 960 527.2L960 540Z" fill="#9caf3d"></path><path d="M772 540L762.3 527.2C752.7 514.3 733.3 488.7 740 463C746.7 437.3 779.3 411.7 799.5 386C819.7 360.3 827.3 334.7 813.7 308.8C800 283 765 257 764.2 231.2C763.3 205.3 796.7 179.7 797.7 154C798.7 128.3 767.3 102.7 756.2 77C745 51.3 754 25.7 758.5 12.8L763 0L960 0L960 12.8C960 25.7 960 51.3 960 77C960 102.7 960 128.3 960 154C960 179.7 960 205.3 960 231.2C960 257 960 283 960 308.8C960 334.7 960 360.3 960 386C960 411.7 960 437.3 960 463C960 488.7 960 514.3 960 527.2L960 540Z" fill="#cbb134"></path><path d="M864 540L867.3 527.2C870.7 514.3 877.3 488.7 869.2 463C861 437.3 838 411.7 831.2 386C824.3 360.3 833.7 334.7 847.3 308.8C861 283 879 257 872.2 231.2C865.3 205.3 833.7 179.7 822 154C810.3 128.3 818.7 102.7 833.8 77C849 51.3 871 25.7 882 12.8L893 0L960 0L960 12.8C960 25.7 960 51.3 960 77C960 102.7 960 128.3 960 154C960 179.7 960 205.3 960 231.2C960 257 960 283 960 308.8C960 334.7 960 360.3 960 386C960 411.7 960 437.3 960 463C960 488.7 960 514.3 960 527.2L960 540Z" fill="#fcaf3c"></path></svg>