<svg id="visual" viewBox="0 0 960 540" width="960" height="540" xmlns="http://www.w3.org/2000/svg" xmlns:xlink="http://www.w3.org/1999/xlink" version="1.1"><rect x="0" y="0" width="960" height="540" fill="#121212"></rect><path d="M0 444L16 430.3C32 416.7 64 389.3 96 386.8C128 384.3 160 406.7 192 405.7C224 404.7 256 380.3 288 367.3C320 354.3 352 352.7 384 364C416 375.3 448 399.7 480 396.8C512 394 544 364 576 347C608 330 640 326 672 337.2C704 348.3 736 374.7 768 392C800 409.3 832 417.7 864 419.7C896 421.7 928 417.3 944 415.2L960 413L960 0L944 0C928 0 896 0 864 0C832 0 800 0 768 0C736 0 704 0 672 0C640 0 608 0 576 0C544 0 512 0 480 0C448 0 416 0 384 0C352 0 320 0 288 0C256 0 224 0 192 0C160 0 128 0 96 0C64 0 32 0 16 0L0 0Z" fill="#151515"></path><path d="M0 312L16 305.7C32 299.3 64 286.7 96 277.3C128 268 160 262 192 269.2C224 276.3 256 296.7 288 303C320 309.3 352 301.7 384 310.5C416 319.3 448 344.7 480 351.2C512 357.7 544 345.3 576 332.3C608 319.3 640 305.7 672 294.3C704 283 736 274 768 285C800 296 832 327 864 339.2C896 351.3 928 344.7 944 341.3L960 338L960 0L944 0C928 0 896 0 864 0C832 0 800 0 768 0C736 0 704 0 672 0C640 0 608 0 576 0C544 0 512 0 480 0C448 0 416 0 384 0C352 0 320 0 288 0C256 0 224 0 192 0C160 0 128 0 96 0C64 0 32 0 16 0L0 0Z" fill="#171717"></path><path d="M0 257L16 272.5C32 288 64 319 96 325.5C128 332 160 314 192 299.2C224 284.3 256 272.7 288 269.7C320 266.7 352 272.3 384 285.3C416 298.3 448 318.7 480 315.5C512 312.3 544 285.7 576 273C608 260.3 640 261.7 672 255.5C704 249.3 736 235.7 768 237.8C800 240 832 258 864 278.3C896 298.7 928 321.3 944 332.7L960 344L960 0L944 0C928 0 896 0 864 0C832 0 800 0 768 0C736 0 704 0 672 0C640 0 608 0 576 0C544 0 512 0 480 0C448 0 416 0 384 0C352 0 320 0 288 0C256 0 224 0 192 0C160 0 128 0 96 0C64 0 32 0 16 0L0 0Z" fill="#1a1a1a"></path><path d="M0 265L16 265.3C32 265.7 64 266.3 96 268.2C128 270 160 273 192 259C224 245 256 214 288 202.8C320 191.7 352 200.3 384 213C416 225.7 448 242.3 480 250.5C512 258.7 544 258.3 576 250.7C608 243 640 228 672 228.5C704 229 736 245 768 246.3C800 247.7 832 234.3 864 238.3C896 242.3 928 263.7 944 274.3L960 285L960 0L944 0C928 0 896 0 864 0C832 0 800 0 768 0C736 0 704 0 672 0C640 0 608 0 576 0C544 0 512 0 480 0C448 0 416 0 384 0C352 0 320 0 288 0C256 0 224 0 192 0C160 0 128 0 96 0C64 0 32 0 16 0L0 0Z" fill="#1c1c1c"></path><path d="M0 185L16 182.3C32 179.7 64 174.3 96 175.7C128 177 160 185 192 188.8C224 192.7 256 192.3 288 201.2C320 210 352 228 384 235.5C416 243 448 240 480 236C512 232 544 227 576 228.5C608 230 640 238 672 240.8C704 243.7 736 241.3 768 225.5C800 209.7 832 180.3 864 172.3C896 164.3 928 177.7 944 184.3L960 191L960 0L944 0C928 0 896 0 864 0C832 0 800 0 768 0C736 0 704 0 672 0C640 0 608 0 576 0C544 0 512 0 480 0C448 0 416 0 384 0C352 0 320 0 288 0C256 0 224 0 192 0C160 0 128 0 96 0C64 0 32 0 16 0L0 0Z" fill="#1e1e1e"></path><path d="M0 177L16 178.7C32 180.3 64 183.7 96 176.8C128 170 160 153 192 146C224 139 256 142 288 137.7C320 133.3 352 121.7 384 123.2C416 124.7 448 139.3 480 152.7C512 166 544 178 576 171.8C608 165.7 640 141.3 672 136.3C704 131.3 736 145.7 768 149.7C800 153.7 832 147.3 864 139.7C896 132 928 123 944 118.5L960 114L960 0L944 0C928 0 896 0 864 0C832 0 800 0 768 0C736 0 704 0 672 0C640 0 608 0 576 0C544 0 512 0 480 0C448 0 416 0 384 0C352 0 320 0 288 0C256 0 224 0 192 0C160 0 128 0 96 0C64 0 32 0 16 0L0 0Z" fill="#202020"></path><path d="M0 124L16 119.8C32 115.7 64 107.3 96 104C128 100.7 160 102.3 192 104.7C224 107 256 110 288 114C320 118 352 123 384 120.7C416 118.3 448 108.7 480 107C512 105.3 544 111.7 576 114.3C608 117 640 116 672 112.8C704 109.7 736 104.3 768 99.3C800 94.3 832 89.7 864 91.2C896 92.7 928 100.3 944 104.2L960 108L960 0L944 0C928 0 896 0 864 0C832 0 800 0 768 0C736 0 704 0 672 0C640 0 608 0 576 0C544 0 512 0 480 0C448 0 416 0 384 0C352 0 320 0 288 0C256 0 224 0 192 0C160 0 128 0 96 0C64 0 32 0 16 0L0 0Z" fill="#232323"></path><path d="M0 44L16 48.8C32 53.7 64 63.3 96 68C128 72.7 160 72.3 192 68.7C224 65 256 58 288 52.7C320 47.3 352 43.7 384 44.5C416 45.3 448 50.7 480 55.3C512 60 544 64 576 65.5C608 67 640 66 672 60.7C704 55.3 736 45.7 768 41.7C800 37.7 832 39.3 864 46.7C896 54 928 67 944 73.5L960 80L960 0L944 0C928 0 896 0 864 0C832 0 800 0 768 0C736 0 704 0 672 0C640 0 608 0 576 0C544 0 512 0 480 0C448 0 416 0 384 0C352 0 320 0 288 0C256 0 224 0 192 0C160 0 128 0 96 0C64 0 32 0 16 0L0 0Z" fill="#252525"></path></svg>