<svg id="visual" viewBox="0 0 675 900" width="675" height="900" xmlns="http://www.w3.org/2000/svg" xmlns:xlink="http://www.w3.org/1999/xlink" version="1.1"><rect x="0" y="0" width="675" height="900" fill="#121212"></rect><path d="M376 900L353.8 878.5C331.7 857 287.3 814 267.7 771.2C248 728.3 253 685.7 271.7 642.8C290.3 600 322.7 557 338.7 514.2C354.7 471.3 354.3 428.7 334.8 385.8C315.3 343 276.7 300 275.8 257.2C275 214.3 312 171.7 321.7 128.8C331.3 86 313.7 43 304.8 21.5L296 0L675 0L675 21.5C675 43 675 86 675 128.8C675 171.7 675 214.3 675 257.2C675 300 675 343 675 385.8C675 428.7 675 471.3 675 514.2C675 557 675 600 675 642.8C675 685.7 675 728.3 675 771.2C675 814 675 857 675 878.5L675 900Z" fill="#009473"></path><path d="M385 900L380.3 878.5C375.7 857 366.3 814 376 771.2C385.7 728.3 414.3 685.7 408.3 642.8C402.3 600 361.7 557 361 514.2C360.3 471.3 399.7 428.7 419.7 385.8C439.7 343 440.3 300 424.3 257.2C408.3 214.3 375.7 171.7 361.7 128.8C347.7 86 352.3 43 354.7 21.5L357 0L675 0L675 21.5C675 43 675 86 675 128.8C675 171.7 675 214.3 675 257.2C675 300 675 343 675 385.8C675 428.7 675 471.3 675 514.2C675 557 675 600 675 642.8C675 685.7 675 728.3 675 771.2C675 814 675 857 675 878.5L675 900Z" fill="#449f62"></path><path d="M470 900L469.5 878.5C469 857 468 814 462.7 771.2C457.3 728.3 447.7 685.7 434.8 642.8C422 600 406 557 400.3 514.2C394.7 471.3 399.3 428.7 406.3 385.8C413.3 343 422.7 300 434 257.2C445.3 214.3 458.7 171.7 458.3 128.8C458 86 444 43 437 21.5L430 0L675 0L675 21.5C675 43 675 86 675 128.8C675 171.7 675 214.3 675 257.2C675 300 675 343 675 385.8C675 428.7 675 471.3 675 514.2C675 557 675 600 675 642.8C675 685.7 675 728.3 675 771.2C675 814 675 857 675 878.5L675 900Z" fill="#70a84f"></path><path d="M470 900L471.7 878.5C473.3 857 476.7 814 486.8 771.2C497 728.3 514 685.7 523.7 642.8C533.3 600 535.7 557 533.8 514.2C532 471.3 526 428.7 513.2 385.8C500.3 343 480.7 300 476.3 257.2C472 214.3 483 171.7 481.7 128.8C480.3 86 466.7 43 459.8 21.5L453 0L675 0L675 21.5C675 43 675 86 675 128.8C675 171.7 675 214.3 675 257.2C675 300 675 343 675 385.8C675 428.7 675 471.3 675 514.2C675 557 675 600 675 642.8C675 685.7 675 728.3 675 771.2C675 814 675 857 675 878.5L675 900Z" fill="#9caf3d"></path><path d="M566 900L566.3 878.5C566.7 857 567.3 814 566.7 771.2C566 728.3 564 685.7 553.7 642.8C543.3 600 524.7 557 514.3 514.2C504 471.3 502 428.7 511.8 385.8C521.7 343 543.3 300 550.5 257.2C557.7 214.3 550.3 171.7 553.8 128.8C557.3 86 571.7 43 578.8 21.5L586 0L675 0L675 21.5C675 43 675 86 675 128.8C675 171.7 675 214.3 675 257.2C675 300 675 343 675 385.8C675 428.7 675 471.3 675 514.2C675 557 675 600 675 642.8C675 685.7 675 728.3 675 771.2C675 814 675 857 675 878.5L675 900Z" fill="#cbb134"></path><path d="M574 900L575.7 878.5C577.3 857 580.7 814 584.2 771.2C587.7 728.3 591.3 685.7 592 642.8C592.7 600 590.3 557 591.7 514.2C593 471.3 598 428.7 604 385.8C610 343 617 300 613.5 257.2C610 214.3 596 171.7 592.2 128.8C588.3 86 594.7 43 597.8 21.5L601 0L675 0L675 21.5C675 43 675 86 675 128.8C675 171.7 675 214.3 675 257.2C675 300 675 343 675 385.8C675 428.7 675 471.3 675 514.2C675 557 675 600 675 642.8C675 685.7 675 728.3 675 771.2C675 814 675 857 675 878.5L675 900Z" fill="#fcaf3c"></path></svg>