<svg id="visual" viewBox="0 0 960 540" width="960" height="540" xmlns="http://www.w3.org/2000/svg" xmlns:xlink="http://www.w3.org/1999/xlink" version="1.1"><rect x="0" y="0" width="960" height="540" fill="#FFFDFA"></rect><path d="M0 323L22.8 317.8C45.7 312.7 91.3 302.3 137 303.5C182.7 304.7 228.3 317.3 274 320.8C319.7 324.3 365.3 318.7 411.2 315.8C457 313 503 313 548.8 319.5C594.7 326 640.3 339 686 340.2C731.7 341.3 777.3 330.7 823 324.2C868.7 317.7 914.3 315.3 937.2 314.2L960 313L960 541L937.2 541C914.3 541 868.7 541 823 541C777.3 541 731.7 541 686 541C640.3 541 594.7 541 548.8 541C503 541 457 541 411.2 541C365.3 541 319.7 541 274 541C228.3 541 182.7 541 137 541C91.3 541 45.7 541 22.8 541L0 541Z" fill="#fc7f58"></path><path d="M0 331L22.8 330.3C45.7 329.7 91.3 328.3 137 329.5C182.7 330.7 228.3 334.3 274 342.2C319.7 350 365.3 362 411.2 366.2C457 370.3 503 366.7 548.8 369C594.7 371.3 640.3 379.7 686 369.7C731.7 359.7 777.3 331.3 823 323.5C868.7 315.7 914.3 328.3 937.2 334.7L960 341L960 541L937.2 541C914.3 541 868.7 541 823 541C777.3 541 731.7 541 686 541C640.3 541 594.7 541 548.8 541C503 541 457 541 411.2 541C365.3 541 319.7 541 274 541C228.3 541 182.7 541 137 541C91.3 541 45.7 541 22.8 541L0 541Z" fill="#fc7d4f"></path><path d="M0 401L22.8 400.2C45.7 399.3 91.3 397.7 137 390C182.7 382.3 228.3 368.7 274 361.3C319.7 354 365.3 353 411.2 353.5C457 354 503 356 548.8 363C594.7 370 640.3 382 686 382.5C731.7 383 777.3 372 823 371.2C868.7 370.3 914.3 379.7 937.2 384.3L960 389L960 541L937.2 541C914.3 541 868.7 541 823 541C777.3 541 731.7 541 686 541C640.3 541 594.7 541 548.8 541C503 541 457 541 411.2 541C365.3 541 319.7 541 274 541C228.3 541 182.7 541 137 541C91.3 541 45.7 541 22.8 541L0 541Z" fill="#fc7b45"></path><path d="M0 395L22.8 401C45.7 407 91.3 419 137 425.2C182.7 431.3 228.3 431.7 274 425.7C319.7 419.7 365.3 407.3 411.2 406C457 404.7 503 414.3 548.8 420.2C594.7 426 640.3 428 686 423.3C731.7 418.7 777.3 407.3 823 400.2C868.7 393 914.3 390 937.2 388.5L960 387L960 541L937.2 541C914.3 541 868.7 541 823 541C777.3 541 731.7 541 686 541C640.3 541 594.7 541 548.8 541C503 541 457 541 411.2 541C365.3 541 319.7 541 274 541C228.3 541 182.7 541 137 541C91.3 541 45.7 541 22.8 541L0 541Z" fill="#fc7a3b"></path><path d="M0 411L22.8 411.2C45.7 411.3 91.3 411.7 137 412.3C182.7 413 228.3 414 274 417C319.7 420 365.3 425 411.2 424C457 423 503 416 548.8 417.3C594.7 418.7 640.3 428.3 686 433.7C731.7 439 777.3 440 823 435.7C868.7 431.3 914.3 421.7 937.2 416.8L960 412L960 541L937.2 541C914.3 541 868.7 541 823 541C777.3 541 731.7 541 686 541C640.3 541 594.7 541 548.8 541C503 541 457 541 411.2 541C365.3 541 319.7 541 274 541C228.3 541 182.7 541 137 541C91.3 541 45.7 541 22.8 541L0 541Z" fill="#fb7930"></path><path d="M0 491L22.8 491C45.7 491 91.3 491 137 484.5C182.7 478 228.3 465 274 458.5C319.7 452 365.3 452 411.2 450.5C457 449 503 446 548.8 450.5C594.7 455 640.3 467 686 474.8C731.7 482.7 777.3 486.3 823 487.2C868.7 488 914.3 486 937.2 485L960 484L960 541L937.2 541C914.3 541 868.7 541 823 541C777.3 541 731.7 541 686 541C640.3 541 594.7 541 548.8 541C503 541 457 541 411.2 541C365.3 541 319.7 541 274 541C228.3 541 182.7 541 137 541C91.3 541 45.7 541 22.8 541L0 541Z" fill="#f97822"></path><path d="M0 517L22.8 514.7C45.7 512.3 91.3 507.7 137 501.5C182.7 495.3 228.3 487.7 274 487.7C319.7 487.7 365.3 495.3 411.2 498.7C457 502 503 501 548.8 499.2C594.7 497.3 640.3 494.7 686 493.8C731.7 493 777.3 494 823 494.2C868.7 494.3 914.3 493.7 937.2 493.3L960 493L960 541L937.2 541C914.3 541 868.7 541 823 541C777.3 541 731.7 541 686 541C640.3 541 594.7 541 548.8 541C503 541 457 541 411.2 541C365.3 541 319.7 541 274 541C228.3 541 182.7 541 137 541C91.3 541 45.7 541 22.8 541L0 541Z" fill="#f7770f"></path></svg>