<svg id="visual" viewBox="0 0 960 540" width="960" height="540" xmlns="http://www.w3.org/2000/svg" xmlns:xlink="http://www.w3.org/1999/xlink" version="1.1"><rect x="0" y="0" width="960" height="540" fill="#FFFDFA"></rect><path d="M0 109L22.8 110C45.7 111 91.3 113 137 112.8C182.7 112.7 228.3 110.3 274 111.2C319.7 112 365.3 116 411.2 119.3C457 122.7 503 125.3 548.8 125.2C594.7 125 640.3 122 686 120.8C731.7 119.7 777.3 120.3 823 117C868.7 113.7 914.3 106.3 937.2 102.7L960 99L960 0L937.2 0C914.3 0 868.7 0 823 0C777.3 0 731.7 0 686 0C640.3 0 594.7 0 548.8 0C503 0 457 0 411.2 0C365.3 0 319.7 0 274 0C228.3 0 182.7 0 137 0C91.3 0 45.7 0 22.8 0L0 0Z" fill="#fc7f58"></path><path d="M0 90L22.8 93.2C45.7 96.3 91.3 102.7 137 105.2C182.7 107.7 228.3 106.3 274 108C319.7 109.7 365.3 114.3 411.2 111.2C457 108 503 97 548.8 95C594.7 93 640.3 100 686 100.5C731.7 101 777.3 95 823 91.7C868.7 88.3 914.3 87.7 937.2 87.3L960 87L960 0L937.2 0C914.3 0 868.7 0 823 0C777.3 0 731.7 0 686 0C640.3 0 594.7 0 548.8 0C503 0 457 0 411.2 0C365.3 0 319.7 0 274 0C228.3 0 182.7 0 137 0C91.3 0 45.7 0 22.8 0L0 0Z" fill="#fc7d50"></path><path d="M0 85L22.8 83.3C45.7 81.7 91.3 78.3 137 76.7C182.7 75 228.3 75 274 74.5C319.7 74 365.3 73 411.2 72.7C457 72.3 503 72.7 548.8 76C594.7 79.3 640.3 85.7 686 89.2C731.7 92.7 777.3 93.3 823 91.2C868.7 89 914.3 84 937.2 81.5L960 79L960 0L937.2 0C914.3 0 868.7 0 823 0C777.3 0 731.7 0 686 0C640.3 0 594.7 0 548.8 0C503 0 457 0 411.2 0C365.3 0 319.7 0 274 0C228.3 0 182.7 0 137 0C91.3 0 45.7 0 22.8 0L0 0Z" fill="#fd7c48"></path><path d="M0 83L22.8 84.2C45.7 85.3 91.3 87.7 137 86.5C182.7 85.3 228.3 80.7 274 75.8C319.7 71 365.3 66 411.2 65C457 64 503 67 548.8 67.5C594.7 68 640.3 66 686 67.7C731.7 69.3 777.3 74.7 823 79.2C868.7 83.7 914.3 87.3 937.2 89.2L960 91L960 0L937.2 0C914.3 0 868.7 0 823 0C777.3 0 731.7 0 686 0C640.3 0 594.7 0 548.8 0C503 0 457 0 411.2 0C365.3 0 319.7 0 274 0C228.3 0 182.7 0 137 0C91.3 0 45.7 0 22.8 0L0 0Z" fill="#fc7b40"></path><path d="M0 60L22.8 59C45.7 58 91.3 56 137 55.2C182.7 54.3 228.3 54.7 274 57.7C319.7 60.7 365.3 66.3 411.2 66.3C457 66.3 503 60.7 548.8 59.8C594.7 59 640.3 63 686 65.7C731.7 68.3 777.3 69.7 823 70C868.7 70.3 914.3 69.7 937.2 69.3L960 69L960 0L937.2 0C914.3 0 868.7 0 823 0C777.3 0 731.7 0 686 0C640.3 0 594.7 0 548.8 0C503 0 457 0 411.2 0C365.3 0 319.7 0 274 0C228.3 0 182.7 0 137 0C91.3 0 45.7 0 22.8 0L0 0Z" fill="#fc7936"></path><path d="M0 53L22.8 53C45.7 53 91.3 53 137 52.7C182.7 52.3 228.3 51.7 274 48.8C319.7 46 365.3 41 411.2 40C457 39 503 42 548.8 44C594.7 46 640.3 47 686 45.2C731.7 43.3 777.3 38.7 823 36.8C868.7 35 914.3 36 937.2 36.5L960 37L960 0L937.2 0C914.3 0 868.7 0 823 0C777.3 0 731.7 0 686 0C640.3 0 594.7 0 548.8 0C503 0 457 0 411.2 0C365.3 0 319.7 0 274 0C228.3 0 182.7 0 137 0C91.3 0 45.7 0 22.8 0L0 0Z" fill="#fa782c"></path><path d="M0 29L22.8 29.7C45.7 30.3 91.3 31.7 137 31.5C182.7 31.3 228.3 29.7 274 29C319.7 28.3 365.3 28.7 411.2 29.7C457 30.7 503 32.3 548.8 33.5C594.7 34.7 640.3 35.3 686 33.8C731.7 32.3 777.3 28.7 823 27.3C868.7 26 914.3 27 937.2 27.5L960 28L960 0L937.2 0C914.3 0 868.7 0 823 0C777.3 0 731.7 0 686 0C640.3 0 594.7 0 548.8 0C503 0 457 0 411.2 0C365.3 0 319.7 0 274 0C228.3 0 182.7 0 137 0C91.3 0 45.7 0 22.8 0L0 0Z" fill="#f97820"></path><path d="M0 21L22.8 19C45.7 17 91.3 13 137 12C182.7 11 228.3 13 274 13.8C319.7 14.7 365.3 14.3 411.2 15.5C457 16.7 503 19.3 548.8 18.3C594.7 17.3 640.3 12.7 686 13.3C731.7 14 777.3 20 823 21.8C868.7 23.7 914.3 21.3 937.2 20.2L960 19L960 0L937.2 0C914.3 0 868.7 0 823 0C777.3 0 731.7 0 686 0C640.3 0 594.7 0 548.8 0C503 0 457 0 411.2 0C365.3 0 319.7 0 274 0C228.3 0 182.7 0 137 0C91.3 0 45.7 0 22.8 0L0 0Z" fill="#f7770f"></path></svg>