<svg id="visual" viewBox="0 0 960 540" width="960" height="540" xmlns="http://www.w3.org/2000/svg" xmlns:xlink="http://www.w3.org/1999/xlink" version="1.1"><rect x="0" y="0" width="960" height="540" fill="#0066FF"></rect><path d="M0 238L16 221C32 204 64 170 96 150.2C128 130.3 160 124.7 192 134.7C224 144.7 256 170.3 288 179.8C320 189.3 352 182.7 384 180.7C416 178.7 448 181.3 480 179.7C512 178 544 172 576 176.2C608 180.3 640 194.7 672 191.7C704 188.7 736 168.3 768 160C800 151.7 832 155.3 864 153.5C896 151.7 928 144.3 944 140.7L960 137L960 541L944 541C928 541 896 541 864 541C832 541 800 541 768 541C736 541 704 541 672 541C640 541 608 541 576 541C544 541 512 541 480 541C448 541 416 541 384 541C352 541 320 541 288 541C256 541 224 541 192 541C160 541 128 541 96 541C64 541 32 541 16 541L0 541Z" fill="#f7770f"></path><path d="M0 264L16 253.2C32 242.3 64 220.7 96 221.5C128 222.3 160 245.7 192 245.2C224 244.7 256 220.3 288 206C320 191.7 352 187.3 384 199.7C416 212 448 241 480 257.8C512 274.7 544 279.3 576 265.2C608 251 640 218 672 203.7C704 189.3 736 193.7 768 198.3C800 203 832 208 864 215C896 222 928 231 944 235.5L960 240L960 541L944 541C928 541 896 541 864 541C832 541 800 541 768 541C736 541 704 541 672 541C640 541 608 541 576 541C544 541 512 541 480 541C448 541 416 541 384 541C352 541 320 541 288 541C256 541 224 541 192 541C160 541 128 541 96 541C64 541 32 541 16 541L0 541Z" fill="#ff6451"></path><path d="M0 309L16 293.2C32 277.3 64 245.7 96 227.5C128 209.3 160 204.7 192 200.3C224 196 256 192 288 208.7C320 225.3 352 262.7 384 266.7C416 270.7 448 241.3 480 227.3C512 213.3 544 214.7 576 231C608 247.3 640 278.7 672 279.7C704 280.7 736 251.3 768 252.3C800 253.3 832 284.7 864 282.5C896 280.3 928 244.7 944 226.8L960 209L960 541L944 541C928 541 896 541 864 541C832 541 800 541 768 541C736 541 704 541 672 541C640 541 608 541 576 541C544 541 512 541 480 541C448 541 416 541 384 541C352 541 320 541 288 541C256 541 224 541 192 541C160 541 128 541 96 541C64 541 32 541 16 541L0 541Z" fill="#ff5d84"></path><path d="M0 311L16 317.7C32 324.3 64 337.7 96 338.8C128 340 160 329 192 321.2C224 313.3 256 308.7 288 308.7C320 308.7 352 313.3 384 321.8C416 330.3 448 342.7 480 349C512 355.3 544 355.7 576 341.7C608 327.7 640 299.3 672 289.5C704 279.7 736 288.3 768 285.5C800 282.7 832 268.3 864 275C896 281.7 928 309.3 944 323.2L960 337L960 541L944 541C928 541 896 541 864 541C832 541 800 541 768 541C736 541 704 541 672 541C640 541 608 541 576 541C544 541 512 541 480 541C448 541 416 541 384 541C352 541 320 541 288 541C256 541 224 541 192 541C160 541 128 541 96 541C64 541 32 541 16 541L0 541Z" fill="#ff68b2"></path><path d="M0 316L16 322C32 328 64 340 96 346.7C128 353.3 160 354.7 192 360.7C224 366.7 256 377.3 288 382.5C320 387.7 352 387.3 384 373.3C416 359.3 448 331.7 480 316.5C512 301.3 544 298.7 576 302.5C608 306.3 640 316.7 672 333C704 349.3 736 371.7 768 369.2C800 366.7 832 339.3 864 330.8C896 322.3 928 332.7 944 337.8L960 343L960 541L944 541C928 541 896 541 864 541C832 541 800 541 768 541C736 541 704 541 672 541C640 541 608 541 576 541C544 541 512 541 480 541C448 541 416 541 384 541C352 541 320 541 288 541C256 541 224 541 192 541C160 541 128 541 96 541C64 541 32 541 16 541L0 541Z" fill="#e47bd9"></path><path d="M0 426L16 412.5C32 399 64 372 96 361.2C128 350.3 160 355.7 192 368C224 380.3 256 399.7 288 403C320 406.3 352 393.7 384 381.5C416 369.3 448 357.7 480 360C512 362.3 544 378.7 576 387.3C608 396 640 397 672 397C704 397 736 396 768 397C800 398 832 401 864 398.3C896 395.7 928 387.3 944 383.2L960 379L960 541L944 541C928 541 896 541 864 541C832 541 800 541 768 541C736 541 704 541 672 541C640 541 608 541 576 541C544 541 512 541 480 541C448 541 416 541 384 541C352 541 320 541 288 541C256 541 224 541 192 541C160 541 128 541 96 541C64 541 32 541 16 541L0 541Z" fill="#b890f2"></path><path d="M0 433L16 439.3C32 445.7 64 458.3 96 464.7C128 471 160 471 192 467.8C224 464.7 256 458.3 288 456.8C320 455.3 352 458.7 384 460.5C416 462.3 448 462.7 480 453.5C512 444.3 544 425.7 576 425C608 424.3 640 441.7 672 447.2C704 452.7 736 446.3 768 437.7C800 429 832 418 864 422.3C896 426.7 928 446.3 944 456.2L960 466L960 541L944 541C928 541 896 541 864 541C832 541 800 541 768 541C736 541 704 541 672 541C640 541 608 541 576 541C544 541 512 541 480 541C448 541 416 541 384 541C352 541 320 541 288 541C256 541 224 541 192 541C160 541 128 541 96 541C64 541 32 541 16 541L0 541Z" fill="#85a0fc"></path><path d="M0 487L16 481.3C32 475.7 64 464.3 96 466C128 467.7 160 482.3 192 488.7C224 495 256 493 288 492.5C320 492 352 493 384 490.3C416 487.7 448 481.3 480 480.2C512 479 544 483 576 482.2C608 481.3 640 475.7 672 472.3C704 469 736 468 768 465.5C800 463 832 459 864 461.5C896 464 928 473 944 477.5L960 482L960 541L944 541C928 541 896 541 864 541C832 541 800 541 768 541C736 541 704 541 672 541C640 541 608 541 576 541C544 541 512 541 480 541C448 541 416 541 384 541C352 541 320 541 288 541C256 541 224 541 192 541C160 541 128 541 96 541C64 541 32 541 16 541L0 541Z" fill="#4facf7"></path></svg>