<svg id="visual" viewBox="0 0 900 600" width="900" height="600" xmlns="http://www.w3.org/2000/svg" xmlns:xlink="http://www.w3.org/1999/xlink" version="1.1"><rect x="0" y="0" width="900" height="600" fill="#005fec"></rect><path d="M0 268L21.5 273C43 278 86 288 128.8 285.7C171.7 283.3 214.3 268.7 257.2 261C300 253.3 343 252.7 385.8 251.2C428.7 249.7 471.3 247.3 514.2 242C557 236.7 600 228.3 642.8 226.7C685.7 225 728.3 230 771.2 231C814 232 857 229 878.5 227.5L900 226L900 601L878.5 601C857 601 814 601 771.2 601C728.3 601 685.7 601 642.8 601C600 601 557 601 514.2 601C471.3 601 428.7 601 385.8 601C343 601 300 601 257.2 601C214.3 601 171.7 601 128.8 601C86 601 43 601 21.5 601L0 601Z" fill="#0066ff"></path><path d="M0 317L21.5 313.2C43 309.3 86 301.7 128.8 285.2C171.7 268.7 214.3 243.3 257.2 231.3C300 219.3 343 220.7 385.8 243.3C428.7 266 471.3 310 514.2 323.5C557 337 600 320 642.8 312.7C685.7 305.3 728.3 307.7 771.2 301.3C814 295 857 280 878.5 272.5L900 265L900 601L878.5 601C857 601 814 601 771.2 601C728.3 601 685.7 601 642.8 601C600 601 557 601 514.2 601C471.3 601 428.7 601 385.8 601C343 601 300 601 257.2 601C214.3 601 171.7 601 128.8 601C86 601 43 601 21.5 601L0 601Z" fill="#006fff"></path><path d="M0 273L21.5 295.7C43 318.3 86 363.7 128.8 366C171.7 368.3 214.3 327.7 257.2 317.7C300 307.7 343 328.3 385.8 325.3C428.7 322.3 471.3 295.7 514.2 292.3C557 289 600 309 642.8 318.8C685.7 328.7 728.3 328.3 771.2 334.5C814 340.7 857 353.3 878.5 359.7L900 366L900 601L878.5 601C857 601 814 601 771.2 601C728.3 601 685.7 601 642.8 601C600 601 557 601 514.2 601C471.3 601 428.7 601 385.8 601C343 601 300 601 257.2 601C214.3 601 171.7 601 128.8 601C86 601 43 601 21.5 601L0 601Z" fill="#0078ff"></path><path d="M0 410L21.5 390.7C43 371.3 86 332.7 128.8 336.8C171.7 341 214.3 388 257.2 390.8C300 393.7 343 352.3 385.8 340.5C428.7 328.7 471.3 346.3 514.2 364.8C557 383.3 600 402.7 642.8 401.2C685.7 399.7 728.3 377.3 771.2 354.3C814 331.3 857 307.7 878.5 295.8L900 284L900 601L878.5 601C857 601 814 601 771.2 601C728.3 601 685.7 601 642.8 601C600 601 557 601 514.2 601C471.3 601 428.7 601 385.8 601C343 601 300 601 257.2 601C214.3 601 171.7 601 128.8 601C86 601 43 601 21.5 601L0 601Z" fill="#0080ff"></path><path d="M0 367L21.5 377.5C43 388 86 409 128.8 409.2C171.7 409.3 214.3 388.7 257.2 392.3C300 396 343 424 385.8 430.5C428.7 437 471.3 422 514.2 402.2C557 382.3 600 357.7 642.8 354C685.7 350.3 728.3 367.7 771.2 384.7C814 401.7 857 418.3 878.5 426.7L900 435L900 601L878.5 601C857 601 814 601 771.2 601C728.3 601 685.7 601 642.8 601C600 601 557 601 514.2 601C471.3 601 428.7 601 385.8 601C343 601 300 601 257.2 601C214.3 601 171.7 601 128.8 601C86 601 43 601 21.5 601L0 601Z" fill="#0088ff"></path><path d="M0 456L21.5 455.2C43 454.3 86 452.7 128.8 452.7C171.7 452.7 214.3 454.3 257.2 454C300 453.7 343 451.3 385.8 437.7C428.7 424 471.3 399 514.2 395.3C557 391.7 600 409.3 642.8 416.7C685.7 424 728.3 421 771.2 430.3C814 439.7 857 461.3 878.5 472.2L900 483L900 601L878.5 601C857 601 814 601 771.2 601C728.3 601 685.7 601 642.8 601C600 601 557 601 514.2 601C471.3 601 428.7 601 385.8 601C343 601 300 601 257.2 601C214.3 601 171.7 601 128.8 601C86 601 43 601 21.5 601L0 601Z" fill="#0a90ff"></path><path d="M0 409L21.5 414.7C43 420.3 86 431.7 128.8 440.7C171.7 449.7 214.3 456.3 257.2 451C300 445.7 343 428.3 385.8 435.3C428.7 442.3 471.3 473.7 514.2 479.8C557 486 600 467 642.8 453.8C685.7 440.7 728.3 433.3 771.2 441.5C814 449.7 857 473.3 878.5 485.2L900 497L900 601L878.5 601C857 601 814 601 771.2 601C728.3 601 685.7 601 642.8 601C600 601 557 601 514.2 601C471.3 601 428.7 601 385.8 601C343 601 300 601 257.2 601C214.3 601 171.7 601 128.8 601C86 601 43 601 21.5 601L0 601Z" fill="#1e97fd"></path><path d="M0 460L21.5 472.3C43 484.7 86 509.3 128.8 521.3C171.7 533.3 214.3 532.7 257.2 519.3C300 506 343 480 385.8 478.5C428.7 477 471.3 500 514.2 512C557 524 600 525 642.8 520.3C685.7 515.7 728.3 505.3 771.2 501.8C814 498.3 857 501.7 878.5 503.3L900 505L900 601L878.5 601C857 601 814 601 771.2 601C728.3 601 685.7 601 642.8 601C600 601 557 601 514.2 601C471.3 601 428.7 601 385.8 601C343 601 300 601 257.2 601C214.3 601 171.7 601 128.8 601C86 601 43 601 21.5 601L0 601Z" fill="#2f9efc"></path><path d="M0 510L21.5 517.8C43 525.7 86 541.3 128.8 548C171.7 554.7 214.3 552.3 257.2 547.3C300 542.3 343 534.7 385.8 528.7C428.7 522.7 471.3 518.3 514.2 523.5C557 528.7 600 543.3 642.8 546C685.7 548.7 728.3 539.3 771.2 533.8C814 528.3 857 526.7 878.5 525.8L900 525L900 601L878.5 601C857 601 814 601 771.2 601C728.3 601 685.7 601 642.8 601C600 601 557 601 514.2 601C471.3 601 428.7 601 385.8 601C343 601 300 601 257.2 601C214.3 601 171.7 601 128.8 601C86 601 43 601 21.5 601L0 601Z" fill="#3fa5f9"></path><path d="M0 550L21.5 555.7C43 561.3 86 572.7 128.8 574.5C171.7 576.3 214.3 568.7 257.2 564.7C300 560.7 343 560.3 385.8 563.2C428.7 566 471.3 572 514.2 566.8C557 561.7 600 545.3 642.8 543.7C685.7 542 728.3 555 771.2 554.8C814 554.7 857 541.3 878.5 534.7L900 528L900 601L878.5 601C857 601 814 601 771.2 601C728.3 601 685.7 601 642.8 601C600 601 557 601 514.2 601C471.3 601 428.7 601 385.8 601C343 601 300 601 257.2 601C214.3 601 171.7 601 128.8 601C86 601 43 601 21.5 601L0 601Z" fill="#4facf7"></path></svg>