<svg id="visual" viewBox="0 0 675 900" width="675" height="900" xmlns="http://www.w3.org/2000/svg" xmlns:xlink="http://www.w3.org/1999/xlink" version="1.1"><rect x="0" y="0" width="675" height="900" fill="#FFFFFF"></rect><path d="M419 900L407.8 885C396.7 870 374.3 840 354.2 810C334 780 316 750 299.7 720C283.3 690 268.7 660 285.2 630C301.7 600 349.3 570 377.8 540C406.3 510 415.7 480 415.3 450C415 420 405 390 400 360C395 330 395 300 403.2 270C411.3 240 427.7 210 430.8 180C434 150 424 120 415.7 90C407.3 60 400.7 30 397.3 15L394 0L675 0L675 15C675 30 675 60 675 90C675 120 675 150 675 180C675 210 675 240 675 270C675 300 675 330 675 360C675 390 675 420 675 450C675 480 675 510 675 540C675 570 675 600 675 630C675 660 675 690 675 720C675 750 675 780 675 810C675 840 675 870 675 885L675 900Z" fill="#0066ff"></path><path d="M447 900L435.3 885C423.7 870 400.3 840 395.5 810C390.7 780 404.3 750 402.8 720C401.3 690 384.7 660 373.8 630C363 600 358 570 349.8 540C341.7 510 330.3 480 321 450C311.7 420 304.3 390 301 360C297.7 330 298.3 300 321.2 270C344 240 389 210 399.7 180C410.3 150 386.7 120 362.7 90C338.7 60 314.3 30 302.2 15L290 0L675 0L675 15C675 30 675 60 675 90C675 120 675 150 675 180C675 210 675 240 675 270C675 300 675 330 675 360C675 390 675 420 675 450C675 480 675 510 675 540C675 570 675 600 675 630C675 660 675 690 675 720C675 750 675 780 675 810C675 840 675 870 675 885L675 900Z" fill="#0070ff"></path><path d="M485 900L481.7 885C478.3 870 471.7 840 451.3 810C431 780 397 750 396.8 720C396.7 690 430.3 660 445.5 630C460.7 600 457.3 570 459.8 540C462.3 510 470.7 480 472.2 450C473.7 420 468.3 390 464.5 360C460.7 330 458.3 300 439.8 270C421.3 240 386.7 210 368.3 180C350 150 348 120 361.3 90C374.7 60 403.3 30 417.7 15L432 0L675 0L675 15C675 30 675 60 675 90C675 120 675 150 675 180C675 210 675 240 675 270C675 300 675 330 675 360C675 390 675 420 675 450C675 480 675 510 675 540C675 570 675 600 675 630C675 660 675 690 675 720C675 750 675 780 675 810C675 840 675 870 675 885L675 900Z" fill="#007aff"></path><path d="M524 900L519.3 885C514.7 870 505.3 840 484 810C462.7 780 429.3 750 430.7 720C432 690 468 660 477 630C486 600 468 570 450 540C432 510 414 480 408.7 450C403.3 420 410.7 390 412.5 360C414.3 330 410.7 300 409 270C407.3 240 407.7 210 422.7 180C437.7 150 467.3 120 483.5 90C499.7 60 502.3 30 503.7 15L505 0L675 0L675 15C675 30 675 60 675 90C675 120 675 150 675 180C675 210 675 240 675 270C675 300 675 330 675 360C675 390 675 420 675 450C675 480 675 510 675 540C675 570 675 600 675 630C675 660 675 690 675 720C675 750 675 780 675 810C675 840 675 870 675 885L675 900Z" fill="#0083ff"></path><path d="M423 900L440.7 885C458.3 870 493.7 840 495.2 810C496.7 780 464.3 750 467.7 720C471 690 510 660 521.3 630C532.7 600 516.3 570 502.3 540C488.3 510 476.7 480 484 450C491.3 420 517.7 390 523.3 360C529 330 514 300 506.3 270C498.7 240 498.3 210 499.2 180C500 150 502 120 508.3 90C514.7 60 525.3 30 530.7 15L536 0L675 0L675 15C675 30 675 60 675 90C675 120 675 150 675 180C675 210 675 240 675 270C675 300 675 330 675 360C675 390 675 420 675 450C675 480 675 510 675 540C675 570 675 600 675 630C675 660 675 690 675 720C675 750 675 780 675 810C675 840 675 870 675 885L675 900Z" fill="#008cff"></path><path d="M490 900L501.3 885C512.7 870 535.3 840 542.3 810C549.3 780 540.7 750 537.2 720C533.7 690 535.3 660 527.2 630C519 600 501 570 507.7 540C514.3 510 545.7 480 546.5 450C547.3 420 517.7 390 503.8 360C490 330 492 300 493.8 270C495.7 240 497.3 210 499.8 180C502.3 150 505.7 120 505.5 90C505.3 60 501.7 30 499.8 15L498 0L675 0L675 15C675 30 675 60 675 90C675 120 675 150 675 180C675 210 675 240 675 270C675 300 675 330 675 360C675 390 675 420 675 450C675 480 675 510 675 540C675 570 675 600 675 630C675 660 675 690 675 720C675 750 675 780 675 810C675 840 675 870 675 885L675 900Z" fill="#1795fe"></path><path d="M544 900L550.5 885C557 870 570 840 568.7 810C567.3 780 551.7 750 554.3 720C557 690 578 660 575.5 630C573 600 547 570 545.5 540C544 510 567 480 580.5 450C594 420 598 390 596.2 360C594.3 330 586.7 300 582.5 270C578.3 240 577.7 210 569.8 180C562 150 547 120 551.3 90C555.7 60 579.3 30 591.2 15L603 0L675 0L675 15C675 30 675 60 675 90C675 120 675 150 675 180C675 210 675 240 675 270C675 300 675 330 675 360C675 390 675 420 675 450C675 480 675 510 675 540C675 570 675 600 675 630C675 660 675 690 675 720C675 750 675 780 675 810C675 840 675 870 675 885L675 900Z" fill="#2b9dfc"></path><path d="M602 900L605.5 885C609 870 616 840 611.2 810C606.3 780 589.7 750 587 720C584.3 690 595.7 660 603.7 630C611.7 600 616.3 570 618.5 540C620.7 510 620.3 480 614.7 450C609 420 598 390 592.2 360C586.3 330 585.7 300 583.2 270C580.7 240 576.3 210 579.5 180C582.7 150 593.3 120 600.5 90C607.7 60 611.3 30 613.2 15L615 0L675 0L675 15C675 30 675 60 675 90C675 120 675 150 675 180C675 210 675 240 675 270C675 300 675 330 675 360C675 390 675 420 675 450C675 480 675 510 675 540C675 570 675 600 675 630C675 660 675 690 675 720C675 750 675 780 675 810C675 840 675 870 675 885L675 900Z" fill="#3da4fa"></path><path d="M596 900L599.5 885C603 870 610 840 620 810C630 780 643 750 639.7 720C636.3 690 616.7 660 611.3 630C606 600 615 570 625.5 540C636 510 648 480 648.8 450C649.7 420 639.3 390 638 360C636.7 330 644.3 300 644 270C643.7 240 635.3 210 629 180C622.7 150 618.3 120 620 90C621.7 60 629.3 30 633.2 15L637 0L675 0L675 15C675 30 675 60 675 90C675 120 675 150 675 180C675 210 675 240 675 270C675 300 675 330 675 360C675 390 675 420 675 450C675 480 675 510 675 540C675 570 675 600 675 630C675 660 675 690 675 720C675 750 675 780 675 810C675 840 675 870 675 885L675 900Z" fill="#4facf7"></path></svg>