<svg id="visual" viewBox="0 0 900 600" width="900" height="600" xmlns="http://www.w3.org/2000/svg" xmlns:xlink="http://www.w3.org/1999/xlink" version="1.1"><rect x="0" y="0" width="900" height="600" fill="#005fec"></rect><path d="M0 278L21.5 298.3C43 318.7 86 359.3 128.8 371.7C171.7 384 214.3 368 257.2 369.8C300 371.7 343 391.3 385.8 383C428.7 374.7 471.3 338.3 514.2 337.8C557 337.3 600 372.7 642.8 391.7C685.7 410.7 728.3 413.3 771.2 408.5C814 403.7 857 391.3 878.5 385.2L900 379L900 601L878.5 601C857 601 814 601 771.2 601C728.3 601 685.7 601 642.8 601C600 601 557 601 514.2 601C471.3 601 428.7 601 385.8 601C343 601 300 601 257.2 601C214.3 601 171.7 601 128.8 601C86 601 43 601 21.5 601L0 601Z" fill="#0066ff"></path><path d="M0 438L21.5 441C43 444 86 450 128.8 441.7C171.7 433.3 214.3 410.7 257.2 395.3C300 380 343 372 385.8 365C428.7 358 471.3 352 514.2 367.5C557 383 600 420 642.8 434.5C685.7 449 728.3 441 771.2 435.5C814 430 857 427 878.5 425.5L900 424L900 601L878.5 601C857 601 814 601 771.2 601C728.3 601 685.7 601 642.8 601C600 601 557 601 514.2 601C471.3 601 428.7 601 385.8 601C343 601 300 601 257.2 601C214.3 601 171.7 601 128.8 601C86 601 43 601 21.5 601L0 601Z" fill="#0076ff"></path><path d="M0 493L21.5 484.3C43 475.7 86 458.3 128.8 447.8C171.7 437.3 214.3 433.7 257.2 435C300 436.3 343 442.7 385.8 449.7C428.7 456.7 471.3 464.3 514.2 451C557 437.7 600 403.3 642.8 396C685.7 388.7 728.3 408.3 771.2 427C814 445.7 857 463.3 878.5 472.2L900 481L900 601L878.5 601C857 601 814 601 771.2 601C728.3 601 685.7 601 642.8 601C600 601 557 601 514.2 601C471.3 601 428.7 601 385.8 601C343 601 300 601 257.2 601C214.3 601 171.7 601 128.8 601C86 601 43 601 21.5 601L0 601Z" fill="#0085ff"></path><path d="M0 444L21.5 454.5C43 465 86 486 128.8 495C171.7 504 214.3 501 257.2 502.5C300 504 343 510 385.8 502.2C428.7 494.3 471.3 472.7 514.2 472.7C557 472.7 600 494.3 642.8 496.8C685.7 499.3 728.3 482.7 771.2 476C814 469.3 857 472.7 878.5 474.3L900 476L900 601L878.5 601C857 601 814 601 771.2 601C728.3 601 685.7 601 642.8 601C600 601 557 601 514.2 601C471.3 601 428.7 601 385.8 601C343 601 300 601 257.2 601C214.3 601 171.7 601 128.8 601C86 601 43 601 21.5 601L0 601Z" fill="#1393fe"></path><path d="M0 493L21.5 488.3C43 483.7 86 474.3 128.8 473.2C171.7 472 214.3 479 257.2 489.2C300 499.3 343 512.7 385.8 512.8C428.7 513 471.3 500 514.2 502C557 504 600 521 642.8 518.5C685.7 516 728.3 494 771.2 492.8C814 491.7 857 511.3 878.5 521.2L900 531L900 601L878.5 601C857 601 814 601 771.2 601C728.3 601 685.7 601 642.8 601C600 601 557 601 514.2 601C471.3 601 428.7 601 385.8 601C343 601 300 601 257.2 601C214.3 601 171.7 601 128.8 601C86 601 43 601 21.5 601L0 601Z" fill="#33a0fb"></path><path d="M0 561L21.5 553.3C43 545.7 86 530.3 128.8 522.3C171.7 514.3 214.3 513.7 257.2 519.8C300 526 343 539 385.8 546.3C428.7 553.7 471.3 555.3 514.2 560C557 564.7 600 572.3 642.8 569.8C685.7 567.3 728.3 554.7 771.2 549.5C814 544.3 857 546.7 878.5 547.8L900 549L900 601L878.5 601C857 601 814 601 771.2 601C728.3 601 685.7 601 642.8 601C600 601 557 601 514.2 601C471.3 601 428.7 601 385.8 601C343 601 300 601 257.2 601C214.3 601 171.7 601 128.8 601C86 601 43 601 21.5 601L0 601Z" fill="#4facf7"></path></svg>