<svg id="visual" viewBox="0 0 675 900" width="675" height="900" xmlns="http://www.w3.org/2000/svg" xmlns:xlink="http://www.w3.org/1999/xlink" version="1.1"><rect x="0" y="0" width="675" height="900" fill="#fff"></rect><path d="M239 900L250 888.5C261 877 283 854 306.3 831C329.7 808 354.3 785 342.5 761.8C330.7 738.7 282.3 715.3 259 692.2C235.7 669 237.3 646 247.2 623C257 600 275 577 299.8 554C324.7 531 356.3 508 361.5 484.8C366.7 461.7 345.3 438.3 332 415.2C318.7 392 313.3 369 317.7 346C322 323 336 300 325.3 277C314.7 254 279.3 231 269.3 207.8C259.3 184.7 274.7 161.3 273.3 138.2C272 115 254 92 270.8 69C287.7 46 339.3 23 365.2 11.5L391 0L675 0L675 11.5C675 23 675 46 675 69C675 92 675 115 675 138.2C675 161.3 675 184.7 675 207.8C675 231 675 254 675 277C675 300 675 323 675 346C675 369 675 392 675 415.2C675 438.3 675 461.7 675 484.8C675 508 675 531 675 554C675 577 675 600 675 623C675 646 675 669 675 692.2C675 715.3 675 738.7 675 761.8C675 785 675 808 675 831C675 854 675 877 675 888.5L675 900Z" fill="#0066ff"></path><path d="M402 900L385.2 888.5C368.3 877 334.7 854 316.3 831C298 808 295 785 307.7 761.8C320.3 738.7 348.7 715.3 370.7 692.2C392.7 669 408.3 646 401.3 623C394.3 600 364.7 577 342.3 554C320 531 305 508 315.7 484.8C326.3 461.7 362.7 438.3 376.2 415.2C389.7 392 380.3 369 387.3 346C394.3 323 417.7 300 427 277C436.3 254 431.7 231 413.2 207.8C394.7 184.7 362.3 161.3 350.2 138.2C338 115 346 92 356.5 69C367 46 380 23 386.5 11.5L393 0L675 0L675 11.5C675 23 675 46 675 69C675 92 675 115 675 138.2C675 161.3 675 184.7 675 207.8C675 231 675 254 675 277C675 300 675 323 675 346C675 369 675 392 675 415.2C675 438.3 675 461.7 675 484.8C675 508 675 531 675 554C675 577 675 600 675 623C675 646 675 669 675 692.2C675 715.3 675 738.7 675 761.8C675 785 675 808 675 831C675 854 675 877 675 888.5L675 900Z" fill="#a24ee6"></path><path d="M469 900L467.8 888.5C466.7 877 464.3 854 444 831C423.7 808 385.3 785 389 761.8C392.7 738.7 438.3 715.3 451.2 692.2C464 669 444 646 426 623C408 600 392 577 387.3 554C382.7 531 389.3 508 405.2 484.8C421 461.7 446 438.3 446.8 415.2C447.7 392 424.3 369 407.2 346C390 323 379 300 375.8 277C372.7 254 377.3 231 380.8 207.8C384.3 184.7 386.7 161.3 405.3 138.2C424 115 459 92 459.7 69C460.3 46 426.7 23 409.8 11.5L393 0L675 0L675 11.5C675 23 675 46 675 69C675 92 675 115 675 138.2C675 161.3 675 184.7 675 207.8C675 231 675 254 675 277C675 300 675 323 675 346C675 369 675 392 675 415.2C675 438.3 675 461.7 675 484.8C675 508 675 531 675 554C675 577 675 600 675 623C675 646 675 669 675 692.2C675 715.3 675 738.7 675 761.8C675 785 675 808 675 831C675 854 675 877 675 888.5L675 900Z" fill="#de2dc1"></path><path d="M460 900L469.3 888.5C478.7 877 497.3 854 491.5 831C485.7 808 455.3 785 454.3 761.8C453.3 738.7 481.7 715.3 480.8 692.2C480 669 450 646 442.2 623C434.3 600 448.7 577 455 554C461.3 531 459.7 508 454.8 484.8C450 461.7 442 438.3 454 415.2C466 392 498 369 493.7 346C489.3 323 448.7 300 432.5 277C416.3 254 424.7 231 428.5 207.8C432.3 184.7 431.7 161.3 426.8 138.2C422 115 413 92 408.5 69C404 46 404 23 404 11.5L404 0L675 0L675 11.5C675 23 675 46 675 69C675 92 675 115 675 138.2C675 161.3 675 184.7 675 207.8C675 231 675 254 675 277C675 300 675 323 675 346C675 369 675 392 675 415.2C675 438.3 675 461.7 675 484.8C675 508 675 531 675 554C675 577 675 600 675 623C675 646 675 669 675 692.2C675 715.3 675 738.7 675 761.8C675 785 675 808 675 831C675 854 675 877 675 888.5L675 900Z" fill="#ff0e95"></path><path d="M546 900L541.7 888.5C537.3 877 528.7 854 530.3 831C532 808 544 785 537.2 761.8C530.3 738.7 504.7 715.3 489.3 692.2C474 669 469 646 475.8 623C482.7 600 501.3 577 510.2 554C519 531 518 508 525 484.8C532 461.7 547 438.3 555.2 415.2C563.3 392 564.7 369 564.7 346C564.7 323 563.3 300 550 277C536.7 254 511.3 231 499 207.8C486.7 184.7 487.3 161.3 498.8 138.2C510.3 115 532.7 92 528.5 69C524.3 46 493.7 23 478.3 11.5L463 0L675 0L675 11.5C675 23 675 46 675 69C675 92 675 115 675 138.2C675 161.3 675 184.7 675 207.8C675 231 675 254 675 277C675 300 675 323 675 346C675 369 675 392 675 415.2C675 438.3 675 461.7 675 484.8C675 508 675 531 675 554C675 577 675 600 675 623C675 646 675 669 675 692.2C675 715.3 675 738.7 675 761.8C675 785 675 808 675 831C675 854 675 877 675 888.5L675 900Z" fill="#ff2b69"></path><path d="M598 900L597.7 888.5C597.3 877 596.7 854 587.2 831C577.7 808 559.3 785 555.7 761.8C552 738.7 563 715.3 569 692.2C575 669 576 646 578.7 623C581.3 600 585.7 577 589.2 554C592.7 531 595.3 508 592.7 484.8C590 461.7 582 438.3 577.3 415.2C572.7 392 571.3 369 568.7 346C566 323 562 300 564.7 277C567.3 254 576.7 231 574.7 207.8C572.7 184.7 559.3 161.3 552.7 138.2C546 115 546 92 551.8 69C557.7 46 569.3 23 575.2 11.5L581 0L675 0L675 11.5C675 23 675 46 675 69C675 92 675 115 675 138.2C675 161.3 675 184.7 675 207.8C675 231 675 254 675 277C675 300 675 323 675 346C675 369 675 392 675 415.2C675 438.3 675 461.7 675 484.8C675 508 675 531 675 554C675 577 675 600 675 623C675 646 675 669 675 692.2C675 715.3 675 738.7 675 761.8C675 785 675 808 675 831C675 854 675 877 675 888.5L675 900Z" fill="#ff5340"></path><path d="M608 900L609.3 888.5C610.7 877 613.3 854 612.2 831C611 808 606 785 607.8 761.8C609.7 738.7 618.3 715.3 619.5 692.2C620.7 669 614.3 646 607.8 623C601.3 600 594.7 577 596 554C597.3 531 606.7 508 607.7 484.8C608.7 461.7 601.3 438.3 602.8 415.2C604.3 392 614.7 369 617 346C619.3 323 613.7 300 605.7 277C597.7 254 587.3 231 587.3 207.8C587.3 184.7 597.7 161.3 605.5 138.2C613.3 115 618.7 92 621 69C623.3 46 622.7 23 622.3 11.5L622 0L675 0L675 11.5C675 23 675 46 675 69C675 92 675 115 675 138.2C675 161.3 675 184.7 675 207.8C675 231 675 254 675 277C675 300 675 323 675 346C675 369 675 392 675 415.2C675 438.3 675 461.7 675 484.8C675 508 675 531 675 554C675 577 675 600 675 623C675 646 675 669 675 692.2C675 715.3 675 738.7 675 761.8C675 785 675 808 675 831C675 854 675 877 675 888.5L675 900Z" fill="#f7770f"></path></svg>