<svg id="visual" viewBox="0 0 675 900" width="675" height="900" xmlns="http://www.w3.org/2000/svg" xmlns:xlink="http://www.w3.org/1999/xlink" version="1.1"><path d="M0 64L4.8 65.5C9.7 67 19.3 70 29.2 67C39 64 49 55 58.8 49C68.7 43 78.3 40 88 38.5C97.7 37 107.3 37 117.2 37C127 37 137 37 146.8 37C156.7 37 166.3 37 176 43C185.7 49 195.3 61 205.2 67C215 73 225 73 234.8 70C244.7 67 254.3 61 264 56.5C273.7 52 283.3 49 293.2 46C303 43 313 40 322.8 40C332.7 40 342.3 43 352.2 44.5C362 46 372 46 381.8 50.5C391.7 55 401.3 64 411 61C420.7 58 430.3 43 440.2 37C450 31 460 34 469.8 37C479.7 40 489.3 43 499 46C508.7 49 518.3 52 528.2 55C538 58 548 61 557.8 61C567.7 61 577.3 58 587 59.5C596.7 61 606.3 67 616.2 70C626 73 636 73 645.8 70C655.7 67 665.3 61 670.2 58L675 55L675 0L670.2 0C665.3 0 655.7 0 645.8 0C636 0 626 0 616.2 0C606.3 0 596.7 0 587 0C577.3 0 567.7 0 557.8 0C548 0 538 0 528.2 0C518.3 0 508.7 0 499 0C489.3 0 479.7 0 469.8 0C460 0 450 0 440.2 0C430.3 0 420.7 0 411 0C401.3 0 391.7 0 381.8 0C372 0 362 0 352.2 0C342.3 0 332.7 0 322.8 0C313 0 303 0 293.2 0C283.3 0 273.7 0 264 0C254.3 0 244.7 0 234.8 0C225 0 215 0 205.2 0C195.3 0 185.7 0 176 0C166.3 0 156.7 0 146.8 0C137 0 127 0 117.2 0C107.3 0 97.7 0 88 0C78.3 0 68.7 0 58.8 0C49 0 39 0 29.2 0C19.3 0 9.7 0 4.8 0L0 0Z" fill="#009473"></path><path d="M0 109L4.8 112C9.7 115 19.3 121 29.2 116.5C39 112 49 97 58.8 89.5C68.7 82 78.3 82 88 80.5C97.7 79 107.3 76 117.2 77.5C127 79 137 85 146.8 83.5C156.7 82 166.3 73 176 77.5C185.7 82 195.3 100 205.2 109C215 118 225 118 234.8 112C244.7 106 254.3 94 264 91C273.7 88 283.3 94 293.2 94C303 94 313 88 322.8 85C332.7 82 342.3 82 352.2 83.5C362 85 372 88 381.8 95.5C391.7 103 401.3 115 411 113.5C420.7 112 430.3 97 440.2 89.5C450 82 460 82 469.8 80.5C479.7 79 489.3 76 499 76C508.7 76 518.3 79 528.2 86.5C538 94 548 106 557.8 107.5C567.7 109 577.3 100 587 98.5C596.7 97 606.3 103 616.2 106C626 109 636 109 645.8 106C655.7 103 665.3 97 670.2 94L675 91L675 53L670.2 56C665.3 59 655.7 65 645.8 68C636 71 626 71 616.2 68C606.3 65 596.7 59 587 57.5C577.3 56 567.7 59 557.8 59C548 59 538 56 528.2 53C518.3 50 508.7 47 499 44C489.3 41 479.7 38 469.8 35C460 32 450 29 440.2 35C430.3 41 420.7 56 411 59C401.3 62 391.7 53 381.8 48.5C372 44 362 44 352.2 42.5C342.3 41 332.7 38 322.8 38C313 38 303 41 293.2 44C283.3 47 273.7 50 264 54.5C254.3 59 244.7 65 234.8 68C225 71 215 71 205.2 65C195.3 59 185.7 47 176 41C166.3 35 156.7 35 146.8 35C137 35 127 35 117.2 35C107.3 35 97.7 35 88 36.5C78.3 38 68.7 41 58.8 47C49 53 39 62 29.2 65C19.3 68 9.7 65 4.8 63.5L0 62Z" fill="#28996c"></path><path d="M0 172L4.8 170.5C9.7 169 19.3 166 29.2 163C39 160 49 157 58.8 157C68.7 157 78.3 160 88 155.5C97.7 151 107.3 139 117.2 136C127 133 137 139 146.8 137.5C156.7 136 166.3 127 176 130C185.7 133 195.3 148 205.2 157C215 166 225 169 234.8 161.5C244.7 154 254.3 136 264 131.5C273.7 127 283.3 136 293.2 139C303 142 313 139 322.8 142C332.7 145 342.3 154 352.2 158.5C362 163 372 163 381.8 169C391.7 175 401.3 187 411 185.5C420.7 184 430.3 169 440.2 155.5C450 142 460 130 469.8 127C479.7 124 489.3 130 499 134.5C508.7 139 518.3 142 528.2 146.5C538 151 548 157 557.8 155.5C567.7 154 577.3 145 587 145C596.7 145 606.3 154 616.2 160C626 166 636 169 645.8 166C655.7 163 665.3 154 670.2 149.5L675 145L675 89L670.2 92C665.3 95 655.7 101 645.8 104C636 107 626 107 616.2 104C606.3 101 596.7 95 587 96.5C577.3 98 567.7 107 557.8 105.5C548 104 538 92 528.2 84.5C518.3 77 508.7 74 499 74C489.3 74 479.7 77 469.8 78.5C460 80 450 80 440.2 87.5C430.3 95 420.7 110 411 111.5C401.3 113 391.7 101 381.8 93.5C372 86 362 83 352.2 81.5C342.3 80 332.7 80 322.8 83C313 86 303 92 293.2 92C283.3 92 273.7 86 264 89C254.3 92 244.7 104 234.8 110C225 116 215 116 205.2 107C195.3 98 185.7 80 176 75.5C166.3 71 156.7 80 146.8 81.5C137 83 127 77 117.2 75.5C107.3 74 97.7 77 88 78.5C78.3 80 68.7 80 58.8 87.5C49 95 39 110 29.2 114.5C19.3 119 9.7 113 4.8 110L0 107Z" fill="#3f9e64"></path><path d="M0 199L4.8 196C9.7 193 19.3 187 29.2 182.5C39 178 49 175 58.8 178C68.7 181 78.3 190 88 185.5C97.7 181 107.3 163 117.2 158.5C127 154 137 163 146.8 161.5C156.7 160 166.3 148 176 152.5C185.7 157 195.3 178 205.2 190C215 202 225 205 234.8 199C244.7 193 254.3 178 264 173.5C273.7 169 283.3 175 293.2 175C303 175 313 169 322.8 173.5C332.7 178 342.3 193 352.2 197.5C362 202 372 196 381.8 199C391.7 202 401.3 214 411 214C420.7 214 430.3 202 440.2 190C450 178 460 166 469.8 160C479.7 154 489.3 154 499 158.5C508.7 163 518.3 172 528.2 178C538 184 548 187 557.8 182.5C567.7 178 577.3 166 587 167.5C596.7 169 606.3 184 616.2 194.5C626 205 636 211 645.8 208C655.7 205 665.3 193 670.2 187L675 181L675 143L670.2 147.5C665.3 152 655.7 161 645.8 164C636 167 626 164 616.2 158C606.3 152 596.7 143 587 143C577.3 143 567.7 152 557.8 153.5C548 155 538 149 528.2 144.5C518.3 140 508.7 137 499 132.5C489.3 128 479.7 122 469.8 125C460 128 450 140 440.2 153.5C430.3 167 420.7 182 411 183.5C401.3 185 391.7 173 381.8 167C372 161 362 161 352.2 156.5C342.3 152 332.7 143 322.8 140C313 137 303 140 293.2 137C283.3 134 273.7 125 264 129.5C254.3 134 244.7 152 234.8 159.5C225 167 215 164 205.2 155C195.3 146 185.7 131 176 128C166.3 125 156.7 134 146.8 135.5C137 137 127 131 117.2 134C107.3 137 97.7 149 88 153.5C78.3 158 68.7 155 58.8 155C49 155 39 158 29.2 161C19.3 164 9.7 167 4.8 168.5L0 170Z" fill="#54a35c"></path><path d="M0 280L4.8 284.5C9.7 289 19.3 298 29.2 296.5C39 295 49 283 58.8 274C68.7 265 78.3 259 88 250C97.7 241 107.3 229 117.2 229C127 229 137 241 146.8 239.5C156.7 238 166.3 223 176 223C185.7 223 195.3 238 205.2 245.5C215 253 225 253 234.8 250C244.7 247 254.3 241 264 245.5C273.7 250 283.3 265 293.2 266.5C303 268 313 256 322.8 254.5C332.7 253 342.3 262 352.2 269.5C362 277 372 283 381.8 286C391.7 289 401.3 289 411 283C420.7 277 430.3 265 440.2 257.5C450 250 460 247 469.8 244C479.7 241 489.3 238 499 235C508.7 232 518.3 229 528.2 239.5C538 250 548 274 557.8 275.5C567.7 277 577.3 256 587 254.5C596.7 253 606.3 271 616.2 277C626 283 636 277 645.8 274C655.7 271 665.3 271 670.2 271L675 271L675 179L670.2 185C665.3 191 655.7 203 645.8 206C636 209 626 203 616.2 192.5C606.3 182 596.7 167 587 165.5C577.3 164 567.7 176 557.8 180.5C548 185 538 182 528.2 176C518.3 170 508.7 161 499 156.5C489.3 152 479.7 152 469.8 158C460 164 450 176 440.2 188C430.3 200 420.7 212 411 212C401.3 212 391.7 200 381.8 197C372 194 362 200 352.2 195.5C342.3 191 332.7 176 322.8 171.5C313 167 303 173 293.2 173C283.3 173 273.7 167 264 171.5C254.3 176 244.7 191 234.8 197C225 203 215 200 205.2 188C195.3 176 185.7 155 176 150.5C166.3 146 156.7 158 146.8 159.5C137 161 127 152 117.2 156.5C107.3 161 97.7 179 88 183.5C78.3 188 68.7 179 58.8 176C49 173 39 176 29.2 180.5C19.3 185 9.7 191 4.8 194L0 197Z" fill="#68a753"></path><path d="M0 379L4.8 377.5C9.7 376 19.3 373 29.2 365.5C39 358 49 346 58.8 344.5C68.7 343 78.3 352 88 352C97.7 352 107.3 343 117.2 335.5C127 328 137 322 146.8 320.5C156.7 319 166.3 322 176 335.5C185.7 349 195.3 373 205.2 383.5C215 394 225 391 234.8 386.5C244.7 382 254.3 376 264 379C273.7 382 283.3 394 293.2 391C303 388 313 370 322.8 368.5C332.7 367 342.3 382 352.2 391C362 400 372 403 381.8 403C391.7 403 401.3 400 411 386.5C420.7 373 430.3 349 440.2 346C450 343 460 361 469.8 365.5C479.7 370 489.3 361 499 361C508.7 361 518.3 370 528.2 371.5C538 373 548 367 557.8 365.5C567.7 364 577.3 367 587 367C596.7 367 606.3 364 616.2 368.5C626 373 636 385 645.8 388C655.7 391 665.3 385 670.2 382L675 379L675 269L670.2 269C665.3 269 655.7 269 645.8 272C636 275 626 281 616.2 275C606.3 269 596.7 251 587 252.5C577.3 254 567.7 275 557.8 273.5C548 272 538 248 528.2 237.5C518.3 227 508.7 230 499 233C489.3 236 479.7 239 469.8 242C460 245 450 248 440.2 255.5C430.3 263 420.7 275 411 281C401.3 287 391.7 287 381.8 284C372 281 362 275 352.2 267.5C342.3 260 332.7 251 322.8 252.5C313 254 303 266 293.2 264.5C283.3 263 273.7 248 264 243.5C254.3 239 244.7 245 234.8 248C225 251 215 251 205.2 243.5C195.3 236 185.7 221 176 221C166.3 221 156.7 236 146.8 237.5C137 239 127 227 117.2 227C107.3 227 97.7 239 88 248C78.3 257 68.7 263 58.8 272C49 281 39 293 29.2 294.5C19.3 296 9.7 287 4.8 282.5L0 278Z" fill="#7caa4a"></path><path d="M0 433L4.8 430C9.7 427 19.3 421 29.2 412C39 403 49 391 58.8 386.5C68.7 382 78.3 385 88 385C97.7 385 107.3 382 117.2 379C127 376 137 373 146.8 370C156.7 367 166.3 364 176 374.5C185.7 385 195.3 409 205.2 422.5C215 436 225 439 234.8 434.5C244.7 430 254.3 418 264 419.5C273.7 421 283.3 436 293.2 433C303 430 313 409 322.8 409C332.7 409 342.3 430 352.2 439C362 448 372 445 381.8 442C391.7 439 401.3 436 411 421C420.7 406 430.3 379 440.2 377.5C450 376 460 400 469.8 407.5C479.7 415 489.3 406 499 407.5C508.7 409 518.3 421 528.2 424C538 427 548 421 557.8 418C567.7 415 577.3 415 587 410.5C596.7 406 606.3 397 616.2 400C626 403 636 418 645.8 425.5C655.7 433 665.3 433 670.2 433L675 433L675 377L670.2 380C665.3 383 655.7 389 645.8 386C636 383 626 371 616.2 366.5C606.3 362 596.7 365 587 365C577.3 365 567.7 362 557.8 363.5C548 365 538 371 528.2 369.5C518.3 368 508.7 359 499 359C489.3 359 479.7 368 469.8 363.5C460 359 450 341 440.2 344C430.3 347 420.7 371 411 384.5C401.3 398 391.7 401 381.8 401C372 401 362 398 352.2 389C342.3 380 332.7 365 322.8 366.5C313 368 303 386 293.2 389C283.3 392 273.7 380 264 377C254.3 374 244.7 380 234.8 384.5C225 389 215 392 205.2 381.5C195.3 371 185.7 347 176 333.5C166.3 320 156.7 317 146.8 318.5C137 320 127 326 117.2 333.5C107.3 341 97.7 350 88 350C78.3 350 68.7 341 58.8 342.5C49 344 39 356 29.2 363.5C19.3 371 9.7 374 4.8 375.5L0 377Z" fill="#90ad42"></path><path d="M0 595L4.8 596.5C9.7 598 19.3 601 29.2 610C39 619 49 634 58.8 629.5C68.7 625 78.3 601 88 595C97.7 589 107.3 601 117.2 590.5C127 580 137 547 146.8 541C156.7 535 166.3 556 176 577C185.7 598 195.3 619 205.2 622C215 625 225 610 234.8 601C244.7 592 254.3 589 264 584.5C273.7 580 283.3 574 293.2 565C303 556 313 544 322.8 556C332.7 568 342.3 604 352.2 614.5C362 625 372 610 381.8 604C391.7 598 401.3 601 411 599.5C420.7 598 430.3 592 440.2 598C450 604 460 622 469.8 620.5C479.7 619 489.3 598 499 580C508.7 562 518.3 547 528.2 538C538 529 548 526 557.8 535C567.7 544 577.3 565 587 578.5C596.7 592 606.3 598 616.2 607C626 616 636 628 645.8 617.5C655.7 607 665.3 574 670.2 557.5L675 541L675 431L670.2 431C665.3 431 655.7 431 645.8 423.5C636 416 626 401 616.2 398C606.3 395 596.7 404 587 408.5C577.3 413 567.7 413 557.8 416C548 419 538 425 528.2 422C518.3 419 508.7 407 499 405.5C489.3 404 479.7 413 469.8 405.5C460 398 450 374 440.2 375.5C430.3 377 420.7 404 411 419C401.3 434 391.7 437 381.8 440C372 443 362 446 352.2 437C342.3 428 332.7 407 322.8 407C313 407 303 428 293.2 431C283.3 434 273.7 419 264 417.5C254.3 416 244.7 428 234.8 432.5C225 437 215 434 205.2 420.5C195.3 407 185.7 383 176 372.5C166.3 362 156.7 365 146.8 368C137 371 127 374 117.2 377C107.3 380 97.7 383 88 383C78.3 383 68.7 380 58.8 384.5C49 389 39 401 29.2 410C19.3 419 9.7 425 4.8 428L0 431Z" fill="#a5af3b"></path><path d="M0 658L4.8 653.5C9.7 649 19.3 640 29.2 644.5C39 649 49 667 58.8 665.5C68.7 664 78.3 643 88 635.5C97.7 628 107.3 634 117.2 626.5C127 619 137 598 146.8 598C156.7 598 166.3 619 176 640C185.7 661 195.3 682 205.2 682C215 682 225 661 234.8 649C244.7 637 254.3 634 264 628C273.7 622 283.3 613 293.2 604C303 595 313 586 322.8 601C332.7 616 342.3 655 352.2 667C362 679 372 664 381.8 658C391.7 652 401.3 655 411 655C420.7 655 430.3 652 440.2 653.5C450 655 460 661 469.8 659.5C479.7 658 489.3 649 499 637C508.7 625 518.3 610 528.2 599.5C538 589 548 583 557.8 586C567.7 589 577.3 601 587 613C596.7 625 606.3 637 616.2 649C626 661 636 673 645.8 665.5C655.7 658 665.3 631 670.2 617.5L675 604L675 539L670.2 555.5C665.3 572 655.7 605 645.8 615.5C636 626 626 614 616.2 605C606.3 596 596.7 590 587 576.5C577.3 563 567.7 542 557.8 533C548 524 538 527 528.2 536C518.3 545 508.7 560 499 578C489.3 596 479.7 617 469.8 618.5C460 620 450 602 440.2 596C430.3 590 420.7 596 411 597.5C401.3 599 391.7 596 381.8 602C372 608 362 623 352.2 612.5C342.3 602 332.7 566 322.8 554C313 542 303 554 293.2 563C283.3 572 273.7 578 264 582.5C254.3 587 244.7 590 234.8 599C225 608 215 623 205.2 620C195.3 617 185.7 596 176 575C166.3 554 156.7 533 146.8 539C137 545 127 578 117.2 588.5C107.3 599 97.7 587 88 593C78.3 599 68.7 623 58.8 627.5C49 632 39 617 29.2 608C19.3 599 9.7 596 4.8 594.5L0 593Z" fill="#bab136"></path><path d="M0 676L4.8 671.5C9.7 667 19.3 658 29.2 664C39 670 49 691 58.8 689.5C68.7 688 78.3 664 88 658C97.7 652 107.3 664 117.2 656.5C127 649 137 622 146.8 619C156.7 616 166.3 637 176 658C185.7 679 195.3 700 205.2 700C215 700 225 679 234.8 670C244.7 661 254.3 664 264 662.5C273.7 661 283.3 655 293.2 643C303 631 313 613 322.8 623.5C332.7 634 342.3 673 352.2 688C362 703 372 694 381.8 689.5C391.7 685 401.3 685 411 683.5C420.7 682 430.3 679 440.2 680.5C450 682 460 688 469.8 685C479.7 682 489.3 670 499 661C508.7 652 518.3 646 528.2 635.5C538 625 548 610 557.8 610C567.7 610 577.3 625 587 638.5C596.7 652 606.3 664 616.2 674.5C626 685 636 694 645.8 689.5C655.7 685 665.3 667 670.2 658L675 649L675 602L670.2 615.5C665.3 629 655.7 656 645.8 663.5C636 671 626 659 616.2 647C606.3 635 596.7 623 587 611C577.3 599 567.7 587 557.8 584C548 581 538 587 528.2 597.5C518.3 608 508.7 623 499 635C489.3 647 479.7 656 469.8 657.5C460 659 450 653 440.2 651.5C430.3 650 420.7 653 411 653C401.3 653 391.7 650 381.8 656C372 662 362 677 352.2 665C342.3 653 332.7 614 322.8 599C313 584 303 593 293.2 602C283.3 611 273.7 620 264 626C254.3 632 244.7 635 234.8 647C225 659 215 680 205.2 680C195.3 680 185.7 659 176 638C166.3 617 156.7 596 146.8 596C137 596 127 617 117.2 624.5C107.3 632 97.7 626 88 633.5C78.3 641 68.7 662 58.8 663.5C49 665 39 647 29.2 642.5C19.3 638 9.7 647 4.8 651.5L0 656Z" fill="#d0b134"></path><path d="M0 766L4.8 754C9.7 742 19.3 718 29.2 716.5C39 715 49 736 58.8 736C68.7 736 78.3 715 88 709C97.7 703 107.3 712 117.2 707.5C127 703 137 685 146.8 689.5C156.7 694 166.3 721 176 740.5C185.7 760 195.3 772 205.2 770.5C215 769 225 754 234.8 749.5C244.7 745 254.3 751 264 751C273.7 751 283.3 745 293.2 727C303 709 313 679 322.8 683.5C332.7 688 342.3 727 352.2 746.5C362 766 372 766 381.8 764.5C391.7 763 401.3 760 411 760C420.7 760 430.3 763 440.2 767.5C450 772 460 778 469.8 772C479.7 766 489.3 748 499 731.5C508.7 715 518.3 700 528.2 685C538 670 548 655 557.8 656.5C567.7 658 577.3 676 587 694C596.7 712 606.3 730 616.2 742C626 754 636 760 645.8 755.5C655.7 751 665.3 736 670.2 728.5L675 721L675 647L670.2 656C665.3 665 655.7 683 645.8 687.5C636 692 626 683 616.2 672.5C606.3 662 596.7 650 587 636.5C577.3 623 567.7 608 557.8 608C548 608 538 623 528.2 633.5C518.3 644 508.7 650 499 659C489.3 668 479.7 680 469.8 683C460 686 450 680 440.2 678.5C430.3 677 420.7 680 411 681.5C401.3 683 391.7 683 381.8 687.5C372 692 362 701 352.2 686C342.3 671 332.7 632 322.8 621.5C313 611 303 629 293.2 641C283.3 653 273.7 659 264 660.5C254.3 662 244.7 659 234.8 668C225 677 215 698 205.2 698C195.3 698 185.7 677 176 656C166.3 635 156.7 614 146.8 617C137 620 127 647 117.2 654.5C107.3 662 97.7 650 88 656C78.3 662 68.7 686 58.8 687.5C49 689 39 668 29.2 662C19.3 656 9.7 665 4.8 669.5L0 674Z" fill="#e6b136"></path><path d="M0 901L4.8 901C9.7 901 19.3 901 29.2 901C39 901 49 901 58.8 901C68.7 901 78.3 901 88 901C97.7 901 107.3 901 117.2 901C127 901 137 901 146.8 901C156.7 901 166.3 901 176 901C185.7 901 195.3 901 205.2 901C215 901 225 901 234.8 901C244.7 901 254.3 901 264 901C273.7 901 283.3 901 293.2 901C303 901 313 901 322.8 901C332.7 901 342.3 901 352.2 901C362 901 372 901 381.8 901C391.7 901 401.3 901 411 901C420.7 901 430.3 901 440.2 901C450 901 460 901 469.8 901C479.7 901 489.3 901 499 901C508.7 901 518.3 901 528.2 901C538 901 548 901 557.8 901C567.7 901 577.3 901 587 901C596.7 901 606.3 901 616.2 901C626 901 636 901 645.8 901C655.7 901 665.3 901 670.2 901L675 901L675 719L670.2 726.5C665.3 734 655.7 749 645.8 753.5C636 758 626 752 616.2 740C606.3 728 596.7 710 587 692C577.3 674 567.7 656 557.8 654.5C548 653 538 668 528.2 683C518.3 698 508.7 713 499 729.5C489.3 746 479.7 764 469.8 770C460 776 450 770 440.2 765.5C430.3 761 420.7 758 411 758C401.3 758 391.7 761 381.8 762.5C372 764 362 764 352.2 744.5C342.3 725 332.7 686 322.8 681.5C313 677 303 707 293.2 725C283.3 743 273.7 749 264 749C254.3 749 244.7 743 234.8 747.5C225 752 215 767 205.2 768.5C195.3 770 185.7 758 176 738.5C166.3 719 156.7 692 146.8 687.5C137 683 127 701 117.2 705.5C107.3 710 97.7 701 88 707C78.3 713 68.7 734 58.8 734C49 734 39 713 29.2 714.5C19.3 716 9.7 740 4.8 752L0 764Z" fill="#fcaf3c"></path></svg>