<svg id="visual" viewBox="0 0 960 540" width="960" height="540" xmlns="http://www.w3.org/2000/svg" xmlns:xlink="http://www.w3.org/1999/xlink" version="1.1"><rect x="0" y="0" width="960" height="540" fill="#6600FF"></rect><path d="M0 272L22.8 284.3C45.7 296.7 91.3 321.3 137 338.5C182.7 355.7 228.3 365.3 274 355.5C319.7 345.7 365.3 316.3 411.2 300.2C457 284 503 281 548.8 295.2C594.7 309.3 640.3 340.7 686 352.3C731.7 364 777.3 356 823 357.7C868.7 359.3 914.3 370.7 937.2 376.3L960 382L960 541L937.2 541C914.3 541 868.7 541 823 541C777.3 541 731.7 541 686 541C640.3 541 594.7 541 548.8 541C503 541 457 541 411.2 541C365.3 541 319.7 541 274 541C228.3 541 182.7 541 137 541C91.3 541 45.7 541 22.8 541L0 541Z" fill="#0066ff"></path><path d="M0 340L22.8 341.2C45.7 342.3 91.3 344.7 137 347.3C182.7 350 228.3 353 274 358.7C319.7 364.3 365.3 372.7 411.2 372C457 371.3 503 361.7 548.8 353.2C594.7 344.7 640.3 337.3 686 336.5C731.7 335.7 777.3 341.3 823 348.7C868.7 356 914.3 365 937.2 369.5L960 374L960 541L937.2 541C914.3 541 868.7 541 823 541C777.3 541 731.7 541 686 541C640.3 541 594.7 541 548.8 541C503 541 457 541 411.2 541C365.3 541 319.7 541 274 541C228.3 541 182.7 541 137 541C91.3 541 45.7 541 22.8 541L0 541Z" fill="#0080ff"></path><path d="M0 402L22.8 402.2C45.7 402.3 91.3 402.7 137 400.2C182.7 397.7 228.3 392.3 274 389.7C319.7 387 365.3 387 411.2 391C457 395 503 403 548.8 411C594.7 419 640.3 427 686 424.2C731.7 421.3 777.3 407.7 823 399.7C868.7 391.7 914.3 389.3 937.2 388.2L960 387L960 541L937.2 541C914.3 541 868.7 541 823 541C777.3 541 731.7 541 686 541C640.3 541 594.7 541 548.8 541C503 541 457 541 411.2 541C365.3 541 319.7 541 274 541C228.3 541 182.7 541 137 541C91.3 541 45.7 541 22.8 541L0 541Z" fill="#1e97fd"></path><path d="M0 491L22.8 488.7C45.7 486.3 91.3 481.7 137 476.5C182.7 471.3 228.3 465.7 274 460C319.7 454.3 365.3 448.7 411.2 448.2C457 447.7 503 452.3 548.8 461.3C594.7 470.3 640.3 483.7 686 489C731.7 494.3 777.3 491.7 823 483.7C868.7 475.7 914.3 462.3 937.2 455.7L960 449L960 541L937.2 541C914.3 541 868.7 541 823 541C777.3 541 731.7 541 686 541C640.3 541 594.7 541 548.8 541C503 541 457 541 411.2 541C365.3 541 319.7 541 274 541C228.3 541 182.7 541 137 541C91.3 541 45.7 541 22.8 541L0 541Z" fill="#4facf7"></path></svg>