<svg id="visual" viewBox="0 0 960 540" width="960" height="540" xmlns="http://www.w3.org/2000/svg" xmlns:xlink="http://www.w3.org/1999/xlink" version="1.1"><rect x="0" y="0" width="960" height="540" fill="#FFFFFF"></rect><path d="M542 540L530.8 527.2C519.7 514.3 497.3 488.7 485.3 463C473.3 437.3 471.7 411.7 448 386C424.3 360.3 378.7 334.7 386 308.8C393.3 283 453.7 257 458.3 231.2C463 205.3 412 179.7 405.3 154C398.7 128.3 436.3 102.7 435.5 77C434.7 51.3 395.3 25.7 375.7 12.8L356 0L960 0L960 12.8C960 25.7 960 51.3 960 77C960 102.7 960 128.3 960 154C960 179.7 960 205.3 960 231.2C960 257 960 283 960 308.8C960 334.7 960 360.3 960 386C960 411.7 960 437.3 960 463C960 488.7 960 514.3 960 527.2L960 540Z" fill="#ffb562"></path><path d="M461 540L467.8 527.2C474.7 514.3 488.3 488.7 514.2 463C540 437.3 578 411.7 570.5 386C563 360.3 510 334.7 506.8 308.8C503.7 283 550.3 257 563.2 231.2C576 205.3 555 179.7 542.2 154C529.3 128.3 524.7 102.7 513.3 77C502 51.3 484 25.7 475 12.8L466 0L960 0L960 12.8C960 25.7 960 51.3 960 77C960 102.7 960 128.3 960 154C960 179.7 960 205.3 960 231.2C960 257 960 283 960 308.8C960 334.7 960 360.3 960 386C960 411.7 960 437.3 960 463C960 488.7 960 514.3 960 527.2L960 540Z" fill="#c8b350"></path><path d="M729 540L727 527.2C725 514.3 721 488.7 705.7 463C690.3 437.3 663.7 411.7 646.5 386C629.3 360.3 621.7 334.7 636.7 308.8C651.7 283 689.3 257 689.7 231.2C690 205.3 653 179.7 632.2 154C611.3 128.3 606.7 102.7 614.7 77C622.7 51.3 643.3 25.7 653.7 12.8L664 0L960 0L960 12.8C960 25.7 960 51.3 960 77C960 102.7 960 128.3 960 154C960 179.7 960 205.3 960 231.2C960 257 960 283 960 308.8C960 334.7 960 360.3 960 386C960 411.7 960 437.3 960 463C960 488.7 960 514.3 960 527.2L960 540Z" fill="#90ad53"></path><path d="M761 540L745.3 527.2C729.7 514.3 698.3 488.7 682 463C665.7 437.3 664.3 411.7 663.8 386C663.3 360.3 663.7 334.7 676.8 308.8C690 283 716 257 730 231.2C744 205.3 746 179.7 737.8 154C729.7 128.3 711.3 102.7 720.7 77C730 51.3 767 25.7 785.5 12.8L804 0L960 0L960 12.8C960 25.7 960 51.3 960 77C960 102.7 960 128.3 960 154C960 179.7 960 205.3 960 231.2C960 257 960 283 960 308.8C960 334.7 960 360.3 960 386C960 411.7 960 437.3 960 463C960 488.7 960 514.3 960 527.2L960 540Z" fill="#58a262"></path><path d="M800 540L804.3 527.2C808.7 514.3 817.3 488.7 813.7 463C810 437.3 794 411.7 805.2 386C816.3 360.3 854.7 334.7 865.8 308.8C877 283 861 257 861.3 231.2C861.7 205.3 878.3 179.7 877.3 154C876.3 128.3 857.7 102.7 856.2 77C854.7 51.3 870.3 25.7 878.2 12.8L886 0L960 0L960 12.8C960 25.7 960 51.3 960 77C960 102.7 960 128.3 960 154C960 179.7 960 205.3 960 231.2C960 257 960 283 960 308.8C960 334.7 960 360.3 960 386C960 411.7 960 437.3 960 463C960 488.7 960 514.3 960 527.2L960 540Z" fill="#019473"></path></svg>