<svg id="visual" viewBox="0 0 960 540" width="960" height="540" xmlns="http://www.w3.org/2000/svg" xmlns:xlink="http://www.w3.org/1999/xlink" version="1.1"><rect x="0" y="0" width="960" height="540" fill="#FFFFFF"></rect><path d="M450 540L432.8 527.2C415.7 514.3 381.3 488.7 368 463C354.7 437.3 362.3 411.7 372.3 386C382.3 360.3 394.7 334.7 404 308.8C413.3 283 419.7 257 420 231.2C420.3 205.3 414.7 179.7 381.2 154C347.7 128.3 286.3 102.7 267.2 77C248 51.3 271 25.7 282.5 12.8L294 0L960 0L960 12.8C960 25.7 960 51.3 960 77C960 102.7 960 128.3 960 154C960 179.7 960 205.3 960 231.2C960 257 960 283 960 308.8C960 334.7 960 360.3 960 386C960 411.7 960 437.3 960 463C960 488.7 960 514.3 960 527.2L960 540Z" fill="#0066ff"></path><path d="M531 540L503.8 527.2C476.7 514.3 422.3 488.7 399.3 463C376.3 437.3 384.7 411.7 393.2 386C401.7 360.3 410.3 334.7 416.8 308.8C423.3 283 427.7 257 443 231.2C458.3 205.3 484.7 179.7 466.2 154C447.7 128.3 384.3 102.7 362.7 77C341 51.3 361 25.7 371 12.8L381 0L960 0L960 12.8C960 25.7 960 51.3 960 77C960 102.7 960 128.3 960 154C960 179.7 960 205.3 960 231.2C960 257 960 283 960 308.8C960 334.7 960 360.3 960 386C960 411.7 960 437.3 960 463C960 488.7 960 514.3 960 527.2L960 540Z" fill="#007aff"></path><path d="M554 540L560.8 527.2C567.7 514.3 581.3 488.7 580.8 463C580.3 437.3 565.7 411.7 566.3 386C567 360.3 583 334.7 603.5 308.8C624 283 649 257 629.7 231.2C610.3 205.3 546.7 179.7 528.3 154C510 128.3 537 102.7 564.3 77C591.7 51.3 619.3 25.7 633.2 12.8L647 0L960 0L960 12.8C960 25.7 960 51.3 960 77C960 102.7 960 128.3 960 154C960 179.7 960 205.3 960 231.2C960 257 960 283 960 308.8C960 334.7 960 360.3 960 386C960 411.7 960 437.3 960 463C960 488.7 960 514.3 960 527.2L960 540Z" fill="#008cff"></path><path d="M599 540L628 527.2C657 514.3 715 488.7 744.8 463C774.7 437.3 776.3 411.7 768 386C759.7 360.3 741.3 334.7 725.3 308.8C709.3 283 695.7 257 698.8 231.2C702 205.3 722 179.7 717.8 154C713.7 128.3 685.3 102.7 667.7 77C650 51.3 643 25.7 639.5 12.8L636 0L960 0L960 12.8C960 25.7 960 51.3 960 77C960 102.7 960 128.3 960 154C960 179.7 960 205.3 960 231.2C960 257 960 283 960 308.8C960 334.7 960 360.3 960 386C960 411.7 960 437.3 960 463C960 488.7 960 514.3 960 527.2L960 540Z" fill="#2b9dfc"></path><path d="M771 540L787.2 527.2C803.3 514.3 835.7 488.7 835.7 463C835.7 437.3 803.3 411.7 782 386C760.7 360.3 750.3 334.7 759 308.8C767.7 283 795.3 257 796 231.2C796.7 205.3 770.3 179.7 761.8 154C753.3 128.3 762.7 102.7 762 77C761.3 51.3 750.7 25.7 745.3 12.8L740 0L960 0L960 12.8C960 25.7 960 51.3 960 77C960 102.7 960 128.3 960 154C960 179.7 960 205.3 960 231.2C960 257 960 283 960 308.8C960 334.7 960 360.3 960 386C960 411.7 960 437.3 960 463C960 488.7 960 514.3 960 527.2L960 540Z" fill="#4facf7"></path></svg>