<svg id="visual" viewBox="0 0 960 540" width="960" height="540" xmlns="http://www.w3.org/2000/svg" xmlns:xlink="http://www.w3.org/1999/xlink" version="1.1"><rect x="0" y="0" width="960" height="540" fill="#0066FF"></rect><path d="M0 428L16 425.8C32 423.7 64 419.3 96 411.2C128 403 160 391 192 388.3C224 385.7 256 392.3 288 396.8C320 401.3 352 403.7 384 390.7C416 377.7 448 349.3 480 335.3C512 321.3 544 321.7 576 319.8C608 318 640 314 672 315.7C704 317.3 736 324.7 768 325.8C800 327 832 322 864 341.5C896 361 928 405 944 427L960 449L960 0L944 0C928 0 896 0 864 0C832 0 800 0 768 0C736 0 704 0 672 0C640 0 608 0 576 0C544 0 512 0 480 0C448 0 416 0 384 0C352 0 320 0 288 0C256 0 224 0 192 0C160 0 128 0 96 0C64 0 32 0 16 0L0 0Z" fill="#f7770f"></path><path d="M0 330L16 323.8C32 317.7 64 305.3 96 313.2C128 321 160 349 192 350C224 351 256 325 288 307.5C320 290 352 281 384 285.7C416 290.3 448 308.7 480 328C512 347.3 544 367.7 576 359.7C608 351.7 640 315.3 672 310.2C704 305 736 331 768 333.3C800 335.7 832 314.3 864 302.8C896 291.3 928 289.7 944 288.8L960 288L960 0L944 0C928 0 896 0 864 0C832 0 800 0 768 0C736 0 704 0 672 0C640 0 608 0 576 0C544 0 512 0 480 0C448 0 416 0 384 0C352 0 320 0 288 0C256 0 224 0 192 0C160 0 128 0 96 0C64 0 32 0 16 0L0 0Z" fill="#ff6451"></path><path d="M0 244L16 259.5C32 275 64 306 96 321.8C128 337.7 160 338.3 192 337.8C224 337.3 256 335.7 288 322.7C320 309.7 352 285.3 384 286C416 286.7 448 312.3 480 313.2C512 314 544 290 576 284.7C608 279.3 640 292.7 672 295.7C704 298.7 736 291.3 768 291.5C800 291.7 832 299.3 864 299.3C896 299.3 928 291.7 944 287.8L960 284L960 0L944 0C928 0 896 0 864 0C832 0 800 0 768 0C736 0 704 0 672 0C640 0 608 0 576 0C544 0 512 0 480 0C448 0 416 0 384 0C352 0 320 0 288 0C256 0 224 0 192 0C160 0 128 0 96 0C64 0 32 0 16 0L0 0Z" fill="#ff5d84"></path><path d="M0 229L16 228.2C32 227.3 64 225.7 96 231.5C128 237.3 160 250.7 192 248.3C224 246 256 228 288 230.3C320 232.7 352 255.3 384 256.3C416 257.3 448 236.7 480 234.2C512 231.7 544 247.3 576 252.3C608 257.3 640 251.7 672 241.3C704 231 736 216 768 221.3C800 226.7 832 252.3 864 258.3C896 264.3 928 250.7 944 243.8L960 237L960 0L944 0C928 0 896 0 864 0C832 0 800 0 768 0C736 0 704 0 672 0C640 0 608 0 576 0C544 0 512 0 480 0C448 0 416 0 384 0C352 0 320 0 288 0C256 0 224 0 192 0C160 0 128 0 96 0C64 0 32 0 16 0L0 0Z" fill="#ff68b2"></path><path d="M0 210L16 209.5C32 209 64 208 96 197.3C128 186.7 160 166.3 192 171.5C224 176.7 256 207.3 288 212.3C320 217.3 352 196.7 384 194.5C416 192.3 448 208.7 480 211.8C512 215 544 205 576 207.8C608 210.7 640 226.3 672 223.2C704 220 736 198 768 195.7C800 193.3 832 210.7 864 216C896 221.3 928 214.7 944 211.3L960 208L960 0L944 0C928 0 896 0 864 0C832 0 800 0 768 0C736 0 704 0 672 0C640 0 608 0 576 0C544 0 512 0 480 0C448 0 416 0 384 0C352 0 320 0 288 0C256 0 224 0 192 0C160 0 128 0 96 0C64 0 32 0 16 0L0 0Z" fill="#e47bd9"></path><path d="M0 105L16 117.7C32 130.3 64 155.7 96 163C128 170.3 160 159.7 192 147.8C224 136 256 123 288 116.2C320 109.3 352 108.7 384 122.3C416 136 448 164 480 176.2C512 188.3 544 184.7 576 178.5C608 172.3 640 163.7 672 162C704 160.3 736 165.7 768 166.5C800 167.3 832 163.7 864 157.5C896 151.3 928 142.7 944 138.3L960 134L960 0L944 0C928 0 896 0 864 0C832 0 800 0 768 0C736 0 704 0 672 0C640 0 608 0 576 0C544 0 512 0 480 0C448 0 416 0 384 0C352 0 320 0 288 0C256 0 224 0 192 0C160 0 128 0 96 0C64 0 32 0 16 0L0 0Z" fill="#b890f2"></path><path d="M0 122L16 117.7C32 113.3 64 104.7 96 96.3C128 88 160 80 192 85.8C224 91.7 256 111.3 288 114.2C320 117 352 103 384 100C416 97 448 105 480 103.7C512 102.3 544 91.7 576 90.3C608 89 640 97 672 100C704 103 736 101 768 106.7C800 112.3 832 125.7 864 123.5C896 121.3 928 103.7 944 94.8L960 86L960 0L944 0C928 0 896 0 864 0C832 0 800 0 768 0C736 0 704 0 672 0C640 0 608 0 576 0C544 0 512 0 480 0C448 0 416 0 384 0C352 0 320 0 288 0C256 0 224 0 192 0C160 0 128 0 96 0C64 0 32 0 16 0L0 0Z" fill="#85a0fc"></path><path d="M0 51L16 49.2C32 47.3 64 43.7 96 42C128 40.3 160 40.7 192 40.2C224 39.7 256 38.3 288 36.7C320 35 352 33 384 32.5C416 32 448 33 480 33.2C512 33.3 544 32.7 576 33.2C608 33.7 640 35.3 672 36.5C704 37.7 736 38.3 768 43C800 47.7 832 56.3 864 61C896 65.7 928 66.3 944 66.7L960 67L960 0L944 0C928 0 896 0 864 0C832 0 800 0 768 0C736 0 704 0 672 0C640 0 608 0 576 0C544 0 512 0 480 0C448 0 416 0 384 0C352 0 320 0 288 0C256 0 224 0 192 0C160 0 128 0 96 0C64 0 32 0 16 0L0 0Z" fill="#4facf7"></path></svg>