<svg id="visual" viewBox="0 0 960 540" width="960" height="540" xmlns="http://www.w3.org/2000/svg" xmlns:xlink="http://www.w3.org/1999/xlink" version="1.1"><rect x="0" y="0" width="960" height="540" fill="#FFFFFF"></rect><path d="M532 540L526.2 525C520.3 510 508.7 480 475.5 450C442.3 420 387.7 390 363.5 360C339.3 330 345.7 300 365.3 270C385 240 418 210 435 180C452 150 453 120 445.5 90C438 60 422 30 414 15L406 0L960 0L960 15C960 30 960 60 960 90C960 120 960 150 960 180C960 210 960 240 960 270C960 300 960 330 960 360C960 390 960 420 960 450C960 480 960 510 960 525L960 540Z" fill="#f7770f"></path><path d="M515 540L505.8 525C496.7 510 478.3 480 490.8 450C503.3 420 546.7 390 542.3 360C538 330 486 300 467.8 270C449.7 240 465.3 210 486.3 180C507.3 150 533.7 120 532.2 90C530.7 60 501.3 30 486.7 15L472 0L960 0L960 15C960 30 960 60 960 90C960 120 960 150 960 180C960 210 960 240 960 270C960 300 960 330 960 360C960 390 960 420 960 450C960 480 960 510 960 525L960 540Z" fill="#ff6451"></path><path d="M558 540L569 525C580 510 602 480 609.3 450C616.7 420 609.3 390 606 360C602.7 330 603.3 300 607.5 270C611.7 240 619.3 210 615.8 180C612.3 150 597.7 120 572 90C546.3 60 509.7 30 491.3 15L473 0L960 0L960 15C960 30 960 60 960 90C960 120 960 150 960 180C960 210 960 240 960 270C960 300 960 330 960 360C960 390 960 420 960 450C960 480 960 510 960 525L960 540Z" fill="#ff5d84"></path><path d="M584 540L584.3 525C584.7 510 585.3 480 591.2 450C597 420 608 390 619.3 360C630.7 330 642.3 300 634.2 270C626 240 598 210 580.2 180C562.3 150 554.7 120 553.8 90C553 60 559 30 562 15L565 0L960 0L960 15C960 30 960 60 960 90C960 120 960 150 960 180C960 210 960 240 960 270C960 300 960 330 960 360C960 390 960 420 960 450C960 480 960 510 960 525L960 540Z" fill="#ff68b2"></path><path d="M674 540L685.5 525C697 510 720 480 732.2 450C744.3 420 745.7 390 741.3 360C737 330 727 300 718.3 270C709.7 240 702.3 210 688.2 180C674 150 653 120 658.8 90C664.7 60 697.3 30 713.7 15L730 0L960 0L960 15C960 30 960 60 960 90C960 120 960 150 960 180C960 210 960 240 960 270C960 300 960 330 960 360C960 390 960 420 960 450C960 480 960 510 960 525L960 540Z" fill="#e47bd9"></path><path d="M804 540L797.2 525C790.3 510 776.7 480 757.2 450C737.7 420 712.3 390 709.8 360C707.3 330 727.7 300 748.2 270C768.7 240 789.3 210 797.3 180C805.3 150 800.7 120 782.5 90C764.3 60 732.7 30 716.8 15L701 0L960 0L960 15C960 30 960 60 960 90C960 120 960 150 960 180C960 210 960 240 960 270C960 300 960 330 960 360C960 390 960 420 960 450C960 480 960 510 960 525L960 540Z" fill="#b890f2"></path><path d="M831 540L835.7 525C840.3 510 849.7 480 841.7 450C833.7 420 808.3 390 791.8 360C775.3 330 767.7 300 772.2 270C776.7 240 793.3 210 796 180C798.7 150 787.3 120 785.2 90C783 60 790 30 793.5 15L797 0L960 0L960 15C960 30 960 60 960 90C960 120 960 150 960 180C960 210 960 240 960 270C960 300 960 330 960 360C960 390 960 420 960 450C960 480 960 510 960 525L960 540Z" fill="#85a0fc"></path><path d="M875 540L869.8 525C864.7 510 854.3 480 859.3 450C864.3 420 884.7 390 886.8 360C889 330 873 300 863.3 270C853.7 240 850.3 210 847.2 180C844 150 841 120 852.8 90C864.7 60 891.3 30 904.7 15L918 0L960 0L960 15C960 30 960 60 960 90C960 120 960 150 960 180C960 210 960 240 960 270C960 300 960 330 960 360C960 390 960 420 960 450C960 480 960 510 960 525L960 540Z" fill="#4facf7"></path></svg>