<svg id="visual" viewBox="0 0 960 540" width="960" height="540" xmlns="http://www.w3.org/2000/svg" xmlns:xlink="http://www.w3.org/1999/xlink" version="1.1"><rect x="0" y="0" width="960" height="540" fill="#FFFFFF"></rect><path d="M373 540L370 527.2C367 514.3 361 488.7 374.7 463C388.3 437.3 421.7 411.7 437.5 386C453.3 360.3 451.7 334.7 452.5 308.8C453.3 283 456.7 257 448.2 231.2C439.7 205.3 419.3 179.7 415.3 154C411.3 128.3 423.7 102.7 423.7 77C423.7 51.3 411.3 25.7 405.2 12.8L399 0L960 0L960 12.8C960 25.7 960 51.3 960 77C960 102.7 960 128.3 960 154C960 179.7 960 205.3 960 231.2C960 257 960 283 960 308.8C960 334.7 960 360.3 960 386C960 411.7 960 437.3 960 463C960 488.7 960 514.3 960 527.2L960 540Z" fill="#009473"></path><path d="M532 540L512.3 527.2C492.7 514.3 453.3 488.7 435 463C416.7 437.3 419.3 411.7 443.2 386C467 360.3 512 334.7 541.5 308.8C571 283 585 257 586.3 231.2C587.7 205.3 576.3 179.7 580.5 154C584.7 128.3 604.3 102.7 590.2 77C576 51.3 528 25.7 504 12.8L480 0L960 0L960 12.8C960 25.7 960 51.3 960 77C960 102.7 960 128.3 960 154C960 179.7 960 205.3 960 231.2C960 257 960 283 960 308.8C960 334.7 960 360.3 960 386C960 411.7 960 437.3 960 463C960 488.7 960 514.3 960 527.2L960 540Z" fill="#449f62"></path><path d="M536 540L539.8 527.2C543.7 514.3 551.3 488.7 577.2 463C603 437.3 647 411.7 646.3 386C645.7 360.3 600.3 334.7 589.5 308.8C578.7 283 602.3 257 624.7 231.2C647 205.3 668 179.7 666.3 154C664.7 128.3 640.3 102.7 627.7 77C615 51.3 614 25.7 613.5 12.8L613 0L960 0L960 12.8C960 25.7 960 51.3 960 77C960 102.7 960 128.3 960 154C960 179.7 960 205.3 960 231.2C960 257 960 283 960 308.8C960 334.7 960 360.3 960 386C960 411.7 960 437.3 960 463C960 488.7 960 514.3 960 527.2L960 540Z" fill="#70a84f"></path><path d="M744 540L734.8 527.2C725.7 514.3 707.3 488.7 690.8 463C674.3 437.3 659.7 411.7 652.5 386C645.3 360.3 645.7 334.7 656.2 308.8C666.7 283 687.3 257 691.7 231.2C696 205.3 684 179.7 669 154C654 128.3 636 102.7 650.5 77C665 51.3 712 25.7 735.5 12.8L759 0L960 0L960 12.8C960 25.7 960 51.3 960 77C960 102.7 960 128.3 960 154C960 179.7 960 205.3 960 231.2C960 257 960 283 960 308.8C960 334.7 960 360.3 960 386C960 411.7 960 437.3 960 463C960 488.7 960 514.3 960 527.2L960 540Z" fill="#9caf3d"></path><path d="M803 540L795.7 527.2C788.3 514.3 773.7 488.7 773.5 463C773.3 437.3 787.7 411.7 789.8 386C792 360.3 782 334.7 783.3 308.8C784.7 283 797.3 257 802.5 231.2C807.7 205.3 805.3 179.7 789.3 154C773.3 128.3 743.7 102.7 740.2 77C736.7 51.3 759.3 25.7 770.7 12.8L782 0L960 0L960 12.8C960 25.7 960 51.3 960 77C960 102.7 960 128.3 960 154C960 179.7 960 205.3 960 231.2C960 257 960 283 960 308.8C960 334.7 960 360.3 960 386C960 411.7 960 437.3 960 463C960 488.7 960 514.3 960 527.2L960 540Z" fill="#cbb134"></path><path d="M807 540L811 527.2C815 514.3 823 488.7 839.2 463C855.3 437.3 879.7 411.7 892.2 386C904.7 360.3 905.3 334.7 890.2 308.8C875 283 844 257 843.3 231.2C842.7 205.3 872.3 179.7 872.2 154C872 128.3 842 102.7 825.7 77C809.3 51.3 806.7 25.7 805.3 12.8L804 0L960 0L960 12.8C960 25.7 960 51.3 960 77C960 102.7 960 128.3 960 154C960 179.7 960 205.3 960 231.2C960 257 960 283 960 308.8C960 334.7 960 360.3 960 386C960 411.7 960 437.3 960 463C960 488.7 960 514.3 960 527.2L960 540Z" fill="#fcaf3c"></path></svg>