<svg id="visual" viewBox="0 0 675 900" width="675" height="900" xmlns="http://www.w3.org/2000/svg" xmlns:xlink="http://www.w3.org/1999/xlink" version="1.1"><rect x="0" y="0" width="675" height="900" fill="#FFFFFF"></rect><path d="M302 900L305.7 878.5C309.3 857 316.7 814 303.5 771.2C290.3 728.3 256.7 685.7 258.8 642.8C261 600 299 557 304.2 514.2C309.3 471.3 281.7 428.7 286.2 385.8C290.7 343 327.3 300 336.2 257.2C345 214.3 326 171.7 317.2 128.8C308.3 86 309.7 43 310.3 21.5L311 0L675 0L675 21.5C675 43 675 86 675 128.8C675 171.7 675 214.3 675 257.2C675 300 675 343 675 385.8C675 428.7 675 471.3 675 514.2C675 557 675 600 675 642.8C675 685.7 675 728.3 675 771.2C675 814 675 857 675 878.5L675 900Z" fill="#009473"></path><path d="M397 900L381.2 878.5C365.3 857 333.7 814 317.8 771.2C302 728.3 302 685.7 320.8 642.8C339.7 600 377.3 557 387.3 514.2C397.3 471.3 379.7 428.7 368.8 385.8C358 343 354 300 357.5 257.2C361 214.3 372 171.7 386.7 128.8C401.3 86 419.7 43 428.8 21.5L438 0L675 0L675 21.5C675 43 675 86 675 128.8C675 171.7 675 214.3 675 257.2C675 300 675 343 675 385.8C675 428.7 675 471.3 675 514.2C675 557 675 600 675 642.8C675 685.7 675 728.3 675 771.2C675 814 675 857 675 878.5L675 900Z" fill="#449f62"></path><path d="M466 900L451.2 878.5C436.3 857 406.7 814 398.3 771.2C390 728.3 403 685.7 404 642.8C405 600 394 557 396.7 514.2C399.3 471.3 415.7 428.7 428.8 385.8C442 343 452 300 442.5 257.2C433 214.3 404 171.7 403.5 128.8C403 86 431 43 445 21.5L459 0L675 0L675 21.5C675 43 675 86 675 128.8C675 171.7 675 214.3 675 257.2C675 300 675 343 675 385.8C675 428.7 675 471.3 675 514.2C675 557 675 600 675 642.8C675 685.7 675 728.3 675 771.2C675 814 675 857 675 878.5L675 900Z" fill="#70a84f"></path><path d="M450 900L450.5 878.5C451 857 452 814 449.3 771.2C446.7 728.3 440.3 685.7 443.5 642.8C446.7 600 459.3 557 458 514.2C456.7 471.3 441.3 428.7 449 385.8C456.7 343 487.3 300 502.3 257.2C517.3 214.3 516.7 171.7 505.3 128.8C494 86 472 43 461 21.5L450 0L675 0L675 21.5C675 43 675 86 675 128.8C675 171.7 675 214.3 675 257.2C675 300 675 343 675 385.8C675 428.7 675 471.3 675 514.2C675 557 675 600 675 642.8C675 685.7 675 728.3 675 771.2C675 814 675 857 675 878.5L675 900Z" fill="#9caf3d"></path><path d="M539 900L536.5 878.5C534 857 529 814 522.7 771.2C516.3 728.3 508.7 685.7 509.5 642.8C510.3 600 519.7 557 532.3 514.2C545 471.3 561 428.7 555.2 385.8C549.3 343 521.7 300 512.7 257.2C503.7 214.3 513.3 171.7 527.8 128.8C542.3 86 561.7 43 571.3 21.5L581 0L675 0L675 21.5C675 43 675 86 675 128.8C675 171.7 675 214.3 675 257.2C675 300 675 343 675 385.8C675 428.7 675 471.3 675 514.2C675 557 675 600 675 642.8C675 685.7 675 728.3 675 771.2C675 814 675 857 675 878.5L675 900Z" fill="#cbb134"></path><path d="M628 900L620.2 878.5C612.3 857 596.7 814 585.5 771.2C574.3 728.3 567.7 685.7 576.7 642.8C585.7 600 610.3 557 611.5 514.2C612.7 471.3 590.3 428.7 578 385.8C565.7 343 563.3 300 562.7 257.2C562 214.3 563 171.7 575 128.8C587 86 610 43 621.5 21.5L633 0L675 0L675 21.5C675 43 675 86 675 128.8C675 171.7 675 214.3 675 257.2C675 300 675 343 675 385.8C675 428.7 675 471.3 675 514.2C675 557 675 600 675 642.8C675 685.7 675 728.3 675 771.2C675 814 675 857 675 878.5L675 900Z" fill="#fcaf3c"></path></svg>