<svg id="visual" viewBox="0 0 900 600" width="900" height="600" xmlns="http://www.w3.org/2000/svg" xmlns:xlink="http://www.w3.org/1999/xlink" version="1.1"><rect x="0" y="0" width="900" height="600" fill="#005fec"></rect><path d="M0 320L21.5 299.7C43 279.3 86 238.7 128.8 226.3C171.7 214 214.3 230 257.2 228.2C300 226.3 343 206.7 385.8 215C428.7 223.3 471.3 259.7 514.2 260.2C557 260.7 600 225.3 642.8 206.3C685.7 187.3 728.3 184.7 771.2 189.5C814 194.3 857 206.7 878.5 212.8L900 219L900 0L878.5 0C857 0 814 0 771.2 0C728.3 0 685.7 0 642.8 0C600 0 557 0 514.2 0C471.3 0 428.7 0 385.8 0C343 0 300 0 257.2 0C214.3 0 171.7 0 128.8 0C86 0 43 0 21.5 0L0 0Z" fill="#0066ff"></path><path d="M0 160L21.5 157C43 154 86 148 128.8 156.3C171.7 164.7 214.3 187.3 257.2 202.7C300 218 343 226 385.8 233C428.7 240 471.3 246 514.2 230.5C557 215 600 178 642.8 163.5C685.7 149 728.3 157 771.2 162.5C814 168 857 171 878.5 172.5L900 174L900 0L878.5 0C857 0 814 0 771.2 0C728.3 0 685.7 0 642.8 0C600 0 557 0 514.2 0C471.3 0 428.7 0 385.8 0C343 0 300 0 257.2 0C214.3 0 171.7 0 128.8 0C86 0 43 0 21.5 0L0 0Z" fill="#0076ff"></path><path d="M0 105L21.5 113.7C43 122.3 86 139.7 128.8 150.2C171.7 160.7 214.3 164.3 257.2 163C300 161.7 343 155.3 385.8 148.3C428.7 141.3 471.3 133.7 514.2 147C557 160.3 600 194.7 642.8 202C685.7 209.3 728.3 189.7 771.2 171C814 152.3 857 134.7 878.5 125.8L900 117L900 0L878.5 0C857 0 814 0 771.2 0C728.3 0 685.7 0 642.8 0C600 0 557 0 514.2 0C471.3 0 428.7 0 385.8 0C343 0 300 0 257.2 0C214.3 0 171.7 0 128.8 0C86 0 43 0 21.5 0L0 0Z" fill="#0085ff"></path><path d="M0 154L21.5 143.5C43 133 86 112 128.8 103C171.7 94 214.3 97 257.2 95.5C300 94 343 88 385.8 95.8C428.7 103.7 471.3 125.3 514.2 125.3C557 125.3 600 103.7 642.8 101.2C685.7 98.7 728.3 115.3 771.2 122C814 128.7 857 125.3 878.5 123.7L900 122L900 0L878.5 0C857 0 814 0 771.2 0C728.3 0 685.7 0 642.8 0C600 0 557 0 514.2 0C471.3 0 428.7 0 385.8 0C343 0 300 0 257.2 0C214.3 0 171.7 0 128.8 0C86 0 43 0 21.5 0L0 0Z" fill="#1393fe"></path><path d="M0 105L21.5 109.7C43 114.3 86 123.7 128.8 124.8C171.7 126 214.3 119 257.2 108.8C300 98.7 343 85.3 385.8 85.2C428.7 85 471.3 98 514.2 96C557 94 600 77 642.8 79.5C685.7 82 728.3 104 771.2 105.2C814 106.3 857 86.7 878.5 76.8L900 67L900 0L878.5 0C857 0 814 0 771.2 0C728.3 0 685.7 0 642.8 0C600 0 557 0 514.2 0C471.3 0 428.7 0 385.8 0C343 0 300 0 257.2 0C214.3 0 171.7 0 128.8 0C86 0 43 0 21.5 0L0 0Z" fill="#33a0fb"></path><path d="M0 37L21.5 44.7C43 52.3 86 67.7 128.8 75.7C171.7 83.7 214.3 84.3 257.2 78.2C300 72 343 59 385.8 51.7C428.7 44.3 471.3 42.7 514.2 38C557 33.3 600 25.7 642.8 28.2C685.7 30.7 728.3 43.3 771.2 48.5C814 53.7 857 51.3 878.5 50.2L900 49L900 0L878.5 0C857 0 814 0 771.2 0C728.3 0 685.7 0 642.8 0C600 0 557 0 514.2 0C471.3 0 428.7 0 385.8 0C343 0 300 0 257.2 0C214.3 0 171.7 0 128.8 0C86 0 43 0 21.5 0L0 0Z" fill="#4facf7"></path></svg>