<svg id="visual" viewBox="0 0 960 540" width="960" height="540" xmlns="http://www.w3.org/2000/svg" xmlns:xlink="http://www.w3.org/1999/xlink" version="1.1"><path d="M0 17L14.5 14.2C29 11.3 58 5.7 87.2 6.7C116.3 7.7 145.7 15.3 174.8 22.7C204 30 233 37 262 35.2C291 33.3 320 22.7 349 23.7C378 24.7 407 37.3 436.2 43.7C465.3 50 494.7 50 523.8 41.7C553 33.3 582 16.7 611 15.7C640 14.7 669 29.3 698 34C727 38.7 756 33.3 785.2 26C814.3 18.7 843.7 9.3 872.8 10.2C902 11 931 22 945.5 27.5L960 33L960 0L945.5 0C931 0 902 0 872.8 0C843.7 0 814.3 0 785.2 0C756 0 727 0 698 0C669 0 640 0 611 0C582 0 553 0 523.8 0C494.7 0 465.3 0 436.2 0C407 0 378 0 349 0C320 0 291 0 262 0C233 0 204 0 174.8 0C145.7 0 116.3 0 87.2 0C58 0 29 0 14.5 0L0 0Z" fill="#0066ff"></path><path d="M0 44L14.5 44C29 44 58 44 87.2 49.5C116.3 55 145.7 66 174.8 73.2C204 80.3 233 83.7 262 80C291 76.3 320 65.7 349 67.5C378 69.3 407 83.7 436.2 90C465.3 96.3 494.7 94.7 523.8 89.3C553 84 582 75 611 69.5C640 64 669 62 698 62C727 62 756 64 785.2 56C814.3 48 843.7 30 872.8 34.5C902 39 931 66 945.5 79.5L960 93L960 31L945.5 25.8C931 20.7 902 10.3 872.8 9.5C843.7 8.7 814.3 17.3 785.2 24.3C756 31.3 727 36.7 698 32.3C669 28 640 14 611 15C582 16 553 32 523.8 40C494.7 48 465.3 48 436.2 41.7C407 35.3 378 22.7 349 21.7C320 20.7 291 31.3 262 33.2C233 35 204 28 174.8 21C145.7 14 116.3 7 87.2 6C58 5 29 10 14.5 12.5L0 15Z" fill="#795af3"></path><path d="M0 87L14.5 86.2C29 85.3 58 83.7 87.2 86.5C116.3 89.3 145.7 96.7 174.8 97.5C204 98.3 233 92.7 262 85.3C291 78 320 69 349 74.5C378 80 407 100 436.2 113.5C465.3 127 494.7 134 523.8 132.2C553 130.3 582 119.7 611 113.5C640 107.3 669 105.7 698 102C727 98.3 756 92.7 785.2 85.3C814.3 78 843.7 69 872.8 77.2C902 85.3 931 110.7 945.5 123.3L960 136L960 91L945.5 77.5C931 64 902 37 872.8 32.5C843.7 28 814.3 46 785.2 54C756 62 727 60 698 60C669 60 640 62 611 67.5C582 73 553 82 523.8 87.3C494.7 92.7 465.3 94.3 436.2 88C407 81.7 378 67.3 349 65.5C320 63.7 291 74.3 262 78C233 81.7 204 78.3 174.8 71.2C145.7 64 116.3 53 87.2 47.5C58 42 29 42 14.5 42L0 42Z" fill="#a94be3"></path><path d="M0 141L14.5 145.5C29 150 58 159 87.2 159C116.3 159 145.7 150 174.8 143.8C204 137.7 233 134.3 262 131.7C291 129 320 127 349 137.7C378 148.3 407 171.7 436.2 187C465.3 202.3 494.7 209.7 523.8 199.8C553 190 582 163 611 155.8C640 148.7 669 161.3 698 159.5C727 157.7 756 141.3 785.2 135.8C814.3 130.3 843.7 135.7 872.8 146.5C902 157.3 931 173.7 945.5 181.8L960 190L960 134L945.5 121.3C931 108.7 902 83.3 872.8 75.2C843.7 67 814.3 76 785.2 83.3C756 90.7 727 96.3 698 100C669 103.7 640 105.3 611 111.5C582 117.7 553 128.3 523.8 130.2C494.7 132 465.3 125 436.2 111.5C407 98 378 78 349 72.5C320 67 291 76 262 83.3C233 90.7 204 96.3 174.8 95.5C145.7 94.7 116.3 87.3 87.2 84.5C58 81.7 29 83.3 14.5 84.2L0 85Z" fill="#cc3acf"></path><path d="M0 185L14.5 186.7C29 188.3 58 191.7 87.2 190.7C116.3 189.7 145.7 184.3 174.8 179C204 173.7 233 168.3 262 164.8C291 161.3 320 159.7 349 166C378 172.3 407 186.7 436.2 198.3C465.3 210 494.7 219 523.8 208.2C553 197.3 582 166.7 611 159.5C640 152.3 669 168.7 698 171.3C727 174 756 163 785.2 160.2C814.3 157.3 843.7 162.7 872.8 175.3C902 188 931 208 945.5 218L960 228L960 188L945.5 179.8C931 171.7 902 155.3 872.8 144.5C843.7 133.7 814.3 128.3 785.2 133.8C756 139.3 727 155.7 698 157.5C669 159.3 640 146.7 611 153.8C582 161 553 188 523.8 197.8C494.7 207.7 465.3 200.3 436.2 185C407 169.7 378 146.3 349 135.7C320 125 291 127 262 129.7C233 132.3 204 135.7 174.8 141.8C145.7 148 116.3 157 87.2 157C58 157 29 148 14.5 143.5L0 139Z" fill="#e626b9"></path><path d="M0 212L14.5 212C29 212 58 212 87.2 212C116.3 212 145.7 212 174.8 215.5C204 219 233 226 262 220.5C291 215 320 197 349 203.3C378 209.7 407 240.3 436.2 250.3C465.3 260.3 494.7 249.7 523.8 231.7C553 213.7 582 188.3 611 182C640 175.7 669 188.3 698 188.3C727 188.3 756 175.7 785.2 186.5C814.3 197.3 843.7 231.7 872.8 250.5C902 269.3 931 272.7 945.5 274.3L960 276L960 226L945.5 216C931 206 902 186 872.8 173.3C843.7 160.7 814.3 155.3 785.2 158.2C756 161 727 172 698 169.3C669 166.7 640 150.3 611 157.5C582 164.7 553 195.3 523.8 206.2C494.7 217 465.3 208 436.2 196.3C407 184.7 378 170.3 349 164C320 157.7 291 159.3 262 162.8C233 166.3 204 171.7 174.8 177C145.7 182.3 116.3 187.7 87.2 188.7C58 189.7 29 186.3 14.5 184.7L0 183Z" fill="#f813a1"></path><path d="M0 276L14.5 272.5C29 269 58 262 87.2 253C116.3 244 145.7 233 174.8 233.8C204 234.7 233 247.3 262 240.2C291 233 320 206 349 208.7C378 211.3 407 243.7 436.2 259C465.3 274.3 494.7 272.7 523.8 262.8C553 253 582 235 611 231.3C640 227.7 669 238.3 698 237.5C727 236.7 756 224.3 785.2 227.2C814.3 230 843.7 248 872.8 261.5C902 275 931 284 945.5 288.5L960 293L960 274L945.5 272.3C931 270.7 902 267.3 872.8 248.5C843.7 229.7 814.3 195.3 785.2 184.5C756 173.7 727 186.3 698 186.3C669 186.3 640 173.7 611 180C582 186.3 553 211.7 523.8 229.7C494.7 247.7 465.3 258.3 436.2 248.3C407 238.3 378 207.7 349 201.3C320 195 291 213 262 218.5C233 224 204 217 174.8 213.5C145.7 210 116.3 210 87.2 210C58 210 29 210 14.5 210L0 210Z" fill="#ff1089"></path><path d="M0 320L14.5 312.7C29 305.3 58 290.7 87.2 278C116.3 265.3 145.7 254.7 174.8 260.2C204 265.7 233 287.3 262 280.2C291 273 320 237 349 240.5C378 244 407 287 436.2 304C465.3 321 494.7 312 523.8 295C553 278 582 253 611 250.3C640 247.7 669 267.3 698 271.8C727 276.3 756 265.7 785.2 267.5C814.3 269.3 843.7 283.7 872.8 291.7C902 299.7 931 301.3 945.5 302.2L960 303L960 291L945.5 286.5C931 282 902 273 872.8 259.5C843.7 246 814.3 228 785.2 225.2C756 222.3 727 234.7 698 235.5C669 236.3 640 225.7 611 229.3C582 233 553 251 523.8 260.8C494.7 270.7 465.3 272.3 436.2 257C407 241.7 378 209.3 349 206.7C320 204 291 231 262 238.2C233 245.3 204 232.7 174.8 231.8C145.7 231 116.3 242 87.2 251C58 260 29 267 14.5 270.5L0 274Z" fill="#ff2471"></path><path d="M0 503L14.5 468C29 433 58 363 87.2 336C116.3 309 145.7 325 174.8 336.7C204 348.3 233 355.7 262 355.7C291 355.7 320 348.3 349 347.3C378 346.3 407 351.7 436.2 365.2C465.3 378.7 494.7 400.3 523.8 405.8C553 411.3 582 400.7 611 391.7C640 382.7 669 375.3 698 378.8C727 382.3 756 396.7 785.2 403C814.3 409.3 843.7 407.7 872.8 395.2C902 382.7 931 359.3 945.5 347.7L960 336L960 301L945.5 300.2C931 299.3 902 297.7 872.8 289.7C843.7 281.7 814.3 267.3 785.2 265.5C756 263.7 727 274.3 698 269.8C669 265.3 640 245.7 611 248.3C582 251 553 276 523.8 293C494.7 310 465.3 319 436.2 302C407 285 378 242 349 238.5C320 235 291 271 262 278.2C233 285.3 204 263.7 174.8 258.2C145.7 252.7 116.3 263.3 87.2 276C58 288.7 29 303.3 14.5 310.7L0 318Z" fill="#ff3a5a"></path><path d="M0 519L14.5 481.3C29 443.7 58 368.3 87.2 339.7C116.3 311 145.7 329 174.8 347C204 365 233 383 262 384.7C291 386.3 320 371.7 349 368C378 364.3 407 371.7 436.2 388C465.3 404.3 494.7 429.7 523.8 437.8C553 446 582 437 611 428C640 419 669 410 698 408.2C727 406.3 756 411.7 785.2 414.3C814.3 417 843.7 417 872.8 405.3C902 393.7 931 370.3 945.5 358.7L960 347L960 334L945.5 345.7C931 357.3 902 380.7 872.8 393.2C843.7 405.7 814.3 407.3 785.2 401C756 394.7 727 380.3 698 376.8C669 373.3 640 380.7 611 389.7C582 398.7 553 409.3 523.8 403.8C494.7 398.3 465.3 376.7 436.2 363.2C407 349.7 378 344.3 349 345.3C320 346.3 291 353.7 262 353.7C233 353.7 204 346.3 174.8 334.7C145.7 323 116.3 307 87.2 334C58 361 29 431 14.5 466L0 501Z" fill="#ff5043"></path><path d="M0 541L14.5 532C29 523 58 505 87.2 490.7C116.3 476.3 145.7 465.7 174.8 464.8C204 464 233 473 262 478.3C291 483.7 320 485.3 349 483.5C378 481.7 407 476.3 436.2 484.5C465.3 492.7 494.7 514.3 523.8 508.8C553 503.3 582 470.7 611 458.8C640 447 669 456 698 468.7C727 481.3 756 497.7 785.2 494.2C814.3 490.7 843.7 467.3 872.8 457.5C902 447.7 931 451.3 945.5 453.2L960 455L960 345L945.5 356.7C931 368.3 902 391.7 872.8 403.3C843.7 415 814.3 415 785.2 412.3C756 409.7 727 404.3 698 406.2C669 408 640 417 611 426C582 435 553 444 523.8 435.8C494.7 427.7 465.3 402.3 436.2 386C407 369.7 378 362.3 349 366C320 369.7 291 384.3 262 382.7C233 381 204 363 174.8 345C145.7 327 116.3 309 87.2 337.7C58 366.3 29 441.7 14.5 479.3L0 517Z" fill="#ff642c"></path><path d="M0 541L14.5 541C29 541 58 541 87.2 541C116.3 541 145.7 541 174.8 541C204 541 233 541 262 541C291 541 320 541 349 541C378 541 407 541 436.2 541C465.3 541 494.7 541 523.8 541C553 541 582 541 611 541C640 541 669 541 698 541C727 541 756 541 785.2 541C814.3 541 843.7 541 872.8 541C902 541 931 541 945.5 541L960 541L960 453L945.5 451.2C931 449.3 902 445.7 872.8 455.5C843.7 465.3 814.3 488.7 785.2 492.2C756 495.7 727 479.3 698 466.7C669 454 640 445 611 456.8C582 468.7 553 501.3 523.8 506.8C494.7 512.3 465.3 490.7 436.2 482.5C407 474.3 378 479.7 349 481.5C320 483.3 291 481.7 262 476.3C233 471 204 462 174.8 462.8C145.7 463.7 116.3 474.3 87.2 488.7C58 503 29 521 14.5 530L0 539Z" fill="#f7770f"></path></svg>